<svg aria-hidden="true" style="position:absolute;width:0;height:0" xmlns="http://www.w3.org/2000/svg" overflow="hidden"><defs><symbol id="icon-facebook" viewBox="0 0 32 32"><path d="M17.943 25.333v-8.4h2.915l.476-3.733h-3.391v-1.819c0-.96.028-1.915 1.563-1.915h1.556V6.797c0-.04-1.336-.131-2.687-.131-2.823 0-4.589 1.547-4.589 4.387V13.2h-3.119v3.733h3.119v8.4h4.157z"/></symbol><symbol id="icon-google" viewBox="0 0 32 32"><path d="M23.191 15.069h-7.688c0 .8 0 2.4-.005 3.199h4.455c-.171.8-.776 1.92-1.631 2.483l-.003.004c-1.137.751-2.639.92-3.752.697a4.966 4.966 0 01-3.68-3.188l-.011-.035c.004-.003.007-.024.009-.027-.352-.997-.352-2.333 0-3.133h-.001c.453-1.469 1.876-2.809 3.625-3.177 1.407-.297 2.993.025 4.16 1.117a445.02 445.02 0 002.299-2.256C16.98 7.141 10.595 8.412 8.205 13.076l-.005.008a7.714 7.714 0 00-.867 3.577c0 1.313.324 2.551.897 3.638l-.021-.043-.009.007c1.069 2.029 2.912 3.529 5.127 4.119l.057.013c2.409.631 5.475.2 7.528-1.659l.003.003c1.74-1.567 2.823-4.236 2.276-7.669z"/></symbol><symbol id="icon-twitter" viewBox="0 0 32 32"><path d="M12.537 24c7.044 0 10.897-6.156 10.897-11.493 0-.176 0-.351-.012-.524a8.089 8.089 0 001.891-2.058l.019-.032a7.117 7.117 0 01-2.163.632l-.037.004a4.05 4.05 0 001.678-2.207l.008-.029a7.34 7.34 0 01-2.384.973l-.049.009c-1.449-1.627-3.876-1.705-5.419-.176-.993.987-1.416 2.459-1.107 3.861-3.08-.164-5.949-1.697-7.893-4.221-1.017 1.847-.497 4.207 1.187 5.393a3.64 3.64 0 01-1.757-.516l.017.009v.053c0 1.921 1.287 3.577 3.072 3.959a3.598 3.598 0 01-1.728.069c.501 1.645 1.94 2.773 3.577 2.805a7.389 7.389 0 01-4.755 1.733h-.001a7.336 7.336 0 01-.912-.059 10.346 10.346 0 005.87 1.812z"/></symbol><symbol id="icon-Logo" viewBox="0 0 32 32"><path d="M11.556 9.778h8.889c.982 0 1.778.796 1.778 1.778v1.778c0 .982-.796 1.778-1.778 1.778h-8.889a1.778 1.778 0 01-1.778-1.778v-1.778c0-.982.796-1.778 1.778-1.778zM11.556 16.889h8.889c.982 0 1.778.796 1.778 1.778v1.778c0 .982-.796 1.778-1.778 1.778h-8.889a1.778 1.778 0 01-1.778-1.778v-1.778c0-.982.796-1.778 1.778-1.778z"/></symbol><symbol id="icon-Swiss-knife" viewBox="0 0 32 32"><path opacity=".3" d="M21.045 18.667h5.621v-16a8 8 0 00-8 8v5.562l-8.228-8.228c-.965.965-1.562 2.298-1.562 3.771s.597 2.806 1.562 3.771l6.866 6.866 3.742-3.741z"/><path d="M5.778 16a4.444 4.444 0 00-4.444 4.444v3.111a4.444 4.444 0 004.444 4.444h20.444a4.444 4.444 0 004.444-4.444v-3.111A4.444 4.444 0 0026.222 16H5.778zM28 22a2 2 0 11-4 0 2 2 0 114 0z"/></symbol><symbol id="icon-head-card" viewBox="0 0 34 32"><path fill="var(--color5, #516ea9)" d="M24.657 19.015h8.502c.427 0 .773.346.773.773v3.478a.773.773 0 01-.773.773h-8.502a.773.773 0 01-.773-.773v-3.478c0-.427.346-.773.773-.773z"/><path fill="var(--color1, #fff)" opacity=".8" d="M26.355 22.647h-.089v-.417h.089v.417zm-.094-.528c0-.016.004-.028.013-.037s.021-.013.037-.013c.016 0 .028.004.036.013s.013.021.013.037c0 .015-.004.027-.013.036s-.021.013-.036.013c-.016 0-.029-.004-.037-.013s-.013-.021-.013-.036zm.627.528h-.089v-.257c0-.032-.007-.056-.02-.072s-.033-.024-.062-.024c-.038 0-.065.011-.082.033s-.026.059-.026.111v.208h-.089v-.417h.07l.012.055h.004c.013-.02.03-.035.054-.046s.049-.016.077-.016c.1 0 .15.051.15.153v.272zm.33.008c-.063 0-.111-.018-.144-.055s-.049-.09-.049-.159c0-.07.017-.124.051-.162s.084-.057.149-.057c.044 0 .084.008.119.024l-.027.071a.26.26 0 00-.093-.022c-.072 0-.108.048-.108.144 0 .047.009.082.027.106s.045.035.079.035a.23.23 0 00.112-.029v.077c-.016.009-.033.016-.051.02s-.039.006-.06.006h-.005zm.465-.433c.018 0 .033.001.044.004l-.009.083a.158.158 0 00-.038-.005h-.001c-.035 0-.064.012-.087.035s-.033.053-.033.09v.218h-.089v-.417h.07l.012.074h.005a.167.167 0 01.053-.059h.001a.125.125 0 01.072-.022zm.343.433c-.065 0-.116-.019-.152-.057s-.055-.09-.055-.157c0-.068.017-.122.051-.161s.081-.058.14-.058c.055 0 .099.017.131.05s.048.08.048.138v.048h-.278c.001.041.012.072.033.094s.05.032.087.032a.299.299 0 00.14-.031l-.002.001v.072a.284.284 0 01-.138.028h-.004zm-.016-.365c-.028 0-.051.009-.068.027s-.027.044-.03.078h.19c-.001-.034-.009-.061-.025-.078s-.038-.027-.066-.027zm.579.357l-.018-.058h-.003c-.02.025-.04.043-.061.052s-.047.014-.078.014c-.041 0-.073-.011-.096-.033s-.034-.053-.034-.094c0-.043.016-.075.048-.097s.081-.034.146-.036l.072-.002v-.022c0-.027-.006-.047-.019-.06s-.032-.02-.058-.02a.216.216 0 00-.062.009.486.486 0 00-.059.023l.003-.001-.029-.063a.296.296 0 01.074-.027.305.305 0 01.076-.009c.053 0 .093.012.12.035s.041.06.041.109v.281h-.063zm-.132-.06c.032 0 .058-.009.077-.027s.029-.043.029-.076v-.036l-.054.002c-.042.002-.072.009-.091.021s-.028.031-.028.057c0 .019.006.033.017.043s.028.015.05.015zm.638-.059c0 .041-.015.072-.045.094s-.072.032-.128.032a.3.3 0 01-.134-.025v-.077a.324.324 0 00.137.034c.055 0 .082-.016.082-.049v-.001a.037.037 0 00-.009-.025.106.106 0 00-.029-.022h-.001a.546.546 0 00-.054-.024l-.004-.001c-.048-.019-.081-.037-.098-.056s-.025-.043-.025-.072c0-.036.014-.063.043-.083s.068-.03.118-.03h.001a.33.33 0 01.14.031l-.002-.001-.029.067a.303.303 0 00-.114-.028c-.047 0-.07.013-.07.04 0 .013.006.024.018.033s.039.021.08.037c.034.013.059.026.075.037s.027.024.035.038a.105.105 0 01.011.052zm.317.127c-.065 0-.116-.019-.152-.057s-.055-.09-.055-.157c0-.068.017-.122.051-.161s.081-.058.14-.058c.055 0 .099.017.131.05s.048.08.048.138v.048h-.278c.001.041.012.072.033.094s.05.032.087.032a.299.299 0 00.14-.031l-.002.001v.072a.284.284 0 01-.138.028h-.004zm-.016-.365c-.028 0-.051.009-.068.027s-.027.044-.03.078h.189c0-.034-.009-.061-.025-.078s-.038-.027-.066-.027zm.788.357h-.089v-.356c0-.043.001-.076.003-.101l-.021.02-.085.069-.045-.056.162-.128h.074v.552zm.594 0h-.374v-.067l.142-.143c.042-.043.07-.073.083-.091a.229.229 0 00.03-.05l.001-.001a.144.144 0 00.009-.051c0-.025-.008-.045-.023-.059s-.035-.022-.062-.022c-.021 0-.042.004-.062.012s-.042.022-.068.042l-.048-.058a.258.258 0 01.181-.071c.051 0 .092.013.123.04s.046.063.046.108a.17.17 0 01-.014.071.271.271 0 01-.042.07v-.001a.823.823 0 01-.092.096l-.096.093v.004h.262v.078zm.178-.386c0 .038.004.065.011.084s.019.028.036.028c.033 0 .05-.037.05-.111s-.017-.111-.05-.111c-.017 0-.029.009-.036.028s-.011.046-.011.084zm.17-.001c0 .058-.01.101-.031.131s-.051.043-.092.043c-.038 0-.068-.015-.089-.045s-.031-.073-.031-.129c0-.115.04-.172.12-.172.04 0 .07.015.091.045s.032.072.032.128zm.189.221c0 .038.004.066.011.084s.02.028.036.028c.033 0 .049-.037.049-.112s-.017-.111-.049-.111c-.017 0-.029.009-.036.027s-.011.046-.011.083zm.17 0c0 .058-.01.101-.031.13s-.051.043-.091.043c-.038 0-.068-.015-.089-.045s-.032-.073-.032-.129c0-.115.04-.173.121-.173.039 0 .069.015.09.045s.032.072.032.128zm-.112-.385l-.306.552h-.073l.306-.552h.073z"/><path fill="var(--color1, #fff)" d="M26.84 20.728a.257.257 0 00-.087-.04h-.002a.35.35 0 00-.1-.015c-.078 0-.136.026-.176.078s-.057.123-.054.213a.214.214 0 01.089-.085l.001-.001a.294.294 0 01.137-.03c.086 0 .154.025.204.075s.075.117.075.202c0 .059-.013.111-.038.156s-.063.078-.107.101l-.002.001a.346.346 0 01-.162.036c-.073 0-.137-.017-.19-.051s-.095-.082-.124-.146a.56.56 0 01-.042-.228c0-.092.015-.172.046-.24s.075-.122.132-.16a.353.353 0 01.2-.057c.045 0 .09.006.137.019a.46.46 0 01.127.049l-.002-.001-.063.124zm-.224.247a.174.174 0 00-.126.045.142.142 0 00-.046.104v.006a.142.142 0 00.073.128.195.195 0 00.094.021c.049 0 .089-.014.119-.041s.045-.065.045-.114c0-.045-.014-.081-.043-.108s-.066-.041-.115-.041zm1.64-.232c.075 0 .134.023.177.069s.064.107.064.186v.413h-.162v-.366c0-.047-.013-.084-.04-.11s-.061-.041-.105-.041c-.051.002-.092.02-.122.056s-.045.08-.045.135v.326h-.162v-.366c0-.047-.013-.084-.038-.11s-.061-.041-.105-.041c-.052.002-.093.02-.124.056s-.045.08-.045.135v.326h-.161v-.662h.161v.122c.044-.084.121-.127.233-.129.058 0 .106.014.145.042s.067.066.083.116c.042-.104.124-.157.246-.158zm.71.001c.068 0 .129.014.181.042s.094.068.122.117l.001.001c.03.05.045.108.045.174s-.015.126-.045.177a.305.305 0 01-.121.118l-.002.001c-.052.028-.112.042-.181.042s-.13-.014-.183-.042a.315.315 0 01-.123-.117l-.001-.001c-.029-.051-.043-.11-.043-.177s.014-.124.043-.174a.314.314 0 01.122-.118l.002-.001a.386.386 0 01.183-.042zm0 .137c-.056 0-.101.019-.136.056s-.052.085-.052.145.017.108.052.145c.035.037.08.056.136.056.054 0 .099-.019.134-.056s.052-.085.052-.145-.017-.108-.052-.145a.176.176 0 00-.134-.056zm.885-.138c.076 0 .136.023.179.069s.066.107.066.186v.413h-.162v-.366c0-.046-.013-.082-.04-.109s-.062-.041-.108-.041c-.054.001-.096.019-.127.054s-.046.081-.046.136v.325h-.161v-.662h.161v.124c.045-.085.125-.128.237-.13zm.813.627c-.053.032-.108.048-.166.048s-.103-.016-.14-.049c-.036-.034-.054-.083-.054-.148v-.326h-.093l-.001-.117h.094v-.182h.16v.182h.189v.117h-.189v.298c0 .031.006.052.017.066s.029.019.052.019a.231.231 0 00.094-.027l.037.121zm.531-.627c.076 0 .136.023.179.069s.066.107.066.186v.413h-.162v-.366c0-.046-.013-.082-.04-.109s-.062-.041-.108-.041c-.054.001-.096.019-.127.054s-.047.081-.047.136v.325h-.161v-.918h.161v.382c.045-.087.125-.131.239-.132zM5.874 0h18.551c.427 0 .773.346.773.773v30.454a.773.773 0 01-.773.773H5.874a.773.773 0 01-.773-.773V.773c0-.427.346-.773.773-.773z"/><path fill="var(--color6, #212b36)" d="M7.92 17.365c.086 0 .164.019.234.058s.126.092.166.158l.001.002c.04.068.061.143.061.225v.004a.438.438 0 01-.062.224l.001-.002a.444.444 0 01-.165.16l-.002.001c-.07.04-.148.059-.234.059s-.164-.02-.235-.059a.45.45 0 01-.165-.159l-.001-.002a.434.434 0 01-.061-.222v-.005a.427.427 0 01.224-.383l.002-.001a.479.479 0 01.235-.058zm.002.148a.3.3 0 00-.254.145l-.001.001a.281.281 0 00-.04.145v.003a.302.302 0 00.146.257l.001.001c.042.025.092.04.146.04h.003a.28.28 0 00.144-.04l-.001.001a.286.286 0 00.104-.106l.001-.001a.289.289 0 00.04-.147v-.003a.279.279 0 00-.04-.148.279.279 0 00-.104-.106l-.001-.001a.274.274 0 00-.143-.04h-.002zm1.465.061c.075 0 .134.023.177.069s.064.107.064.186v.413h-.162v-.366c0-.047-.013-.084-.04-.11s-.061-.041-.105-.041c-.051.002-.092.02-.122.056s-.045.08-.045.135v.326h-.162v-.366c0-.047-.013-.084-.038-.11s-.061-.041-.105-.041c-.052.002-.093.02-.124.056s-.045.08-.045.135v.326h-.161v-.662h.161v.122c.044-.084.121-.127.232-.129.058 0 .106.014.145.042s.067.066.083.116c.042-.104.124-.157.246-.158zm.812.668v-.08a.211.211 0 01-.088.065l-.001.001a.324.324 0 01-.247-.004.202.202 0 01-.08-.073l-.001-.001a.195.195 0 01-.028-.102v-.003c0-.062.022-.11.066-.145s.105-.054.185-.054h.193v-.017c0-.039-.013-.069-.038-.09s-.063-.032-.111-.032a.387.387 0 00-.197.062l-.058-.111a.514.514 0 01.291-.082c.086 0 .152.021.199.062s.072.099.073.173l.001.433H10.2zm-.176-.117c.046 0 .086-.011.119-.032s.051-.049.056-.082v-.059h-.167c-.043 0-.075.007-.095.02s-.03.033-.03.062c0 .028.01.05.031.067s.05.025.087.025zm.92-.551c.076 0 .136.023.179.069s.066.107.066.186v.413h-.162v-.366c0-.046-.013-.082-.04-.109s-.062-.041-.108-.041c-.054.001-.096.019-.127.054s-.047.081-.047.136v.325h-.161v-.918h.161v.382c.045-.087.125-.131.239-.132zm1.595 0c.075 0 .134.023.177.069s.064.107.064.186v.413h-.162v-.366c0-.047-.013-.084-.04-.11s-.061-.041-.105-.041c-.051.002-.092.02-.122.056s-.045.08-.045.135v.326h-.162v-.366c0-.047-.013-.084-.038-.11s-.061-.041-.105-.041c-.052.002-.093.02-.124.056s-.045.08-.045.135v.326h-.161v-.662h.161v.122c.044-.084.121-.127.232-.129.058 0 .106.014.145.042s.067.066.083.116c.042-.104.124-.157.246-.158zm1.032.006v.662h-.162v-.122c-.045.086-.121.129-.23.129-.074 0-.133-.023-.176-.068s-.064-.107-.064-.186v-.414h.162v.367c0 .046.012.082.037.109s.061.04.105.04c.051-.001.092-.019.121-.054s.045-.08.045-.135v-.326h.162zm.648.662l-.179-.289-.101.106v.183h-.161v-.918h.161v.532l.272-.275h.185l-.245.255.26.406h-.192zm.688-.041c-.053.032-.108.048-.166.048s-.104-.016-.14-.049c-.036-.034-.054-.083-.054-.148v-.326h-.093l-.001-.117h.094v-.182h.16v.182h.189v.117h-.189v.298c0 .031.006.052.017.066s.029.019.052.019a.231.231 0 00.094-.027l.037.121zm.127-.621h.161v.662h-.161v-.662zm.079-.285c.026 0 .048.009.066.027s.026.041.026.069c0 .027-.009.05-.026.068a.085.085 0 01-.063.027h-.005a.085.085 0 01-.063-.027.095.095 0 01-.026-.065v-.003c0-.028.009-.051.026-.069a.085.085 0 01.063-.027h.003zm.744.412c.022-.043.052-.075.09-.098s.084-.035.135-.036v.156c-.068-.004-.123.012-.164.048s-.061.084-.061.145v.319h-.161v-.662h.161v.127zm.614-.132c.105 0 .185.03.237.09s.08.145.08.254l-.001.048h-.488c.011.047.033.084.066.111s.075.04.124.04a.249.249 0 00.178-.075l.087.09a.332.332 0 01-.119.083l-.002.001a.396.396 0 01-.157.03.37.37 0 01-.179-.042.293.293 0 01-.118-.116l-.001-.002c-.028-.051-.042-.11-.042-.176s.014-.125.042-.176a.304.304 0 01.118-.118l.002-.001a.345.345 0 01.174-.043zm.171.284c-.002-.049-.018-.087-.048-.116s-.071-.043-.121-.043c-.047 0-.087.014-.119.043s-.051.067-.058.116h.346zm.677-.1a.539.539 0 00-.097-.044l-.003-.001a.28.28 0 00-.094-.016c-.027 0-.049.005-.066.015s-.023.023-.023.043c0 .021.01.037.03.048s.053.022.096.035a.78.78 0 01.119.044l-.005-.002c.03.013.055.033.077.061s.033.061.033.105c0 .064-.025.114-.074.148s-.112.052-.187.052h-.001a.504.504 0 01-.152-.024l.003.001a.35.35 0 01-.124-.07l.056-.113c.03.026.065.046.104.06l.002.001c.041.014.08.021.117.021.03 0 .053-.005.07-.015a.052.052 0 00.027-.045v-.002-.002a.054.054 0 00-.031-.05.53.53 0 00-.1-.038.849.849 0 01-.115-.041l.006.002a.209.209 0 01-.073-.058.16.16 0 01-.031-.103c0-.065.023-.115.07-.148s.108-.052.179-.052a.433.433 0 01.243.071l-.058.116zm.205-.179h.161v.662h-.161v-.662zm.079-.285c.026 0 .048.009.066.027s.026.041.026.069c0 .027-.009.05-.026.068a.085.085 0 01-.063.027h-.003a.09.09 0 01-.092-.092v-.003c0-.028.009-.051.026-.069s.039-.027.066-.027zm.919.029v.918h-.161v-.106c-.024.037-.055.066-.093.085s-.08.028-.13.028a.323.323 0 01-.166-.042.294.294 0 01-.109-.118l-.001-.002c-.026-.052-.04-.111-.04-.178s.013-.124.038-.174a.29.29 0 01.109-.118l.001-.001a.317.317 0 01.163-.042.255.255 0 01.226.115v-.365h.161zm-.349.79c.055 0 .1-.019.135-.056s.053-.087.053-.146-.018-.108-.053-.145c-.035-.038-.08-.057-.135-.057s-.1.019-.135.057a.207.207 0 00-.053.145c.001.059.019.108.053.146s.08.056.135.056zm.831-.539c.106 0 .185.03.237.09s.08.145.08.254l-.001.048h-.488c.011.047.033.084.066.111s.075.04.124.04a.238.238 0 00.096-.019.235.235 0 00.082-.056l.087.09a.32.32 0 01-.119.083l-.002.001a.396.396 0 01-.157.03.37.37 0 01-.179-.042.3.3 0 01-.118-.116l-.001-.002c-.028-.051-.042-.11-.042-.176s.014-.125.042-.176a.304.304 0 01.118-.118l.002-.001a.345.345 0 01.174-.043zm.17.284c-.002-.049-.018-.087-.048-.116s-.071-.043-.121-.043c-.047 0-.087.014-.119.043s-.051.067-.058.116h.346zm.684-.285c.076 0 .136.023.179.069s.066.107.066.186v.413h-.162v-.366c0-.046-.013-.082-.04-.109s-.062-.041-.108-.041c-.054.001-.096.019-.127.054s-.046.081-.046.136v.325h-.161v-.662h.161v.124c.045-.085.125-.128.237-.13zm.881.215a.223.223 0 00-.173-.073c-.054 0-.097.018-.131.054s-.049.083-.049.141c0 .059.017.107.049.143s.078.054.131.054c.079 0 .139-.026.178-.078l.1.083c-.03.043-.069.076-.117.099s-.105.035-.169.035a.356.356 0 01-.174-.042.303.303 0 01-.117-.116l-.001-.002c-.028-.051-.042-.11-.042-.176s.014-.126.042-.177a.316.316 0 01.117-.118l.002-.001a.36.36 0 01.176-.042c.06 0 .114.011.161.032.047.02.086.05.116.088v.001l-.098.093zm.495-.214c.105 0 .185.03.237.09s.08.145.08.254l-.001.048h-.488c.011.047.033.084.066.111s.075.04.124.04a.249.249 0 00.178-.075l.087.09a.332.332 0 01-.119.083l-.002.001a.396.396 0 01-.157.03.37.37 0 01-.179-.042.293.293 0 01-.118-.116l-.001-.002c-.028-.051-.042-.11-.042-.176s.014-.125.042-.176a.304.304 0 01.118-.118l.002-.001a.345.345 0 01.174-.043zm.171.284c-.002-.049-.018-.087-.048-.116s-.071-.043-.121-.043c-.047 0-.087.014-.119.043s-.051.067-.058.116h.346zM7.421 28.305h.304v.758H7.58v-.63h-.159v-.128zm.776.316c.07.006.126.028.167.064s.063.083.063.142c0 .048-.012.09-.037.127s-.06.065-.105.085a.389.389 0 01-.159.03.504.504 0 01-.156-.024l.004.001a.45.45 0 01-.128-.063l.057-.113a.328.328 0 00.214.077c.053 0 .094-.011.123-.032s.045-.051.045-.088c0-.038-.015-.066-.044-.085s-.072-.03-.127-.03h-.115v-.088l.203-.197h-.319l-.001-.123h.506v.09l-.232.222.04.004zm.516-.318c.063 0 .113.02.149.061s.054.095.054.166-.018.127-.054.168c-.036.04-.086.061-.149.061s-.112-.02-.148-.061c-.036-.041-.054-.097-.054-.168s.018-.125.054-.166a.19.19 0 01.148-.061zm0 .082c-.035 0-.062.013-.081.038s-.028.061-.028.106c0 .046.009.082.028.108s.047.038.081.038c.035 0 .063-.013.082-.038s.029-.062.029-.108c0-.045-.01-.081-.029-.106s-.047-.038-.082-.038zm.506-.08h.107l-.552.758h-.108l.553-.758zm.069.307c.063 0 .113.02.149.061s.054.095.054.166-.018.127-.054.168c-.036.04-.086.061-.149.061s-.112-.02-.148-.061c-.036-.041-.054-.097-.054-.168s.018-.125.054-.166a.19.19 0 01.148-.061zm0 .082c-.035 0-.062.013-.081.038s-.028.061-.028.106c0 .046.009.082.028.108s.047.038.081.038c.035 0 .063-.013.082-.038s.029-.062.029-.108c0-.045-.01-.081-.029-.106s-.047-.038-.082-.038z"/><path fill="var(--color7, #637381)" d="M7.843 30.068l-.069-.176h-.221l-.068.176H7.42l.218-.554h.054l.217.554h-.066zm-.089-.234l-.064-.171a1.094 1.094 0 01-.026-.08.985.985 0 01-.025.085l.002-.005-.065.171h.178zm.453.241c-.027 0-.052-.005-.074-.015s-.042-.026-.056-.046h-.005a.56.56 0 01.005.069v.17h-.063v-.599h.051l.009.057h.003c.016-.023.035-.039.056-.049s.046-.015.074-.015c.055 0 .097.019.127.056s.045.09.045.158-.015.121-.046.159-.072.056-.126.056zm-.009-.375c-.042 0-.073.012-.092.035s-.029.061-.029.112v.014c0 .058.01.1.029.125s.05.037.093.037c.036 0 .064-.014.084-.043s.031-.069.031-.12c0-.052-.01-.091-.031-.119s-.049-.041-.085-.041zm.518-.054c.018 0 .035.001.049.004l-.009.058a.306.306 0 00-.045-.006c-.033 0-.062.014-.086.041s-.035.061-.035.102v.222h-.063v-.414h.052l.007.077h.003c.015-.027.034-.048.056-.062s.045-.022.071-.022z"/><path fill="var(--color6, #212b36)" d="M13.388 28.465a.22.22 0 00-.076-.035h-.002a.301.301 0 00-.088-.013c-.068 0-.119.023-.154.068s-.05.108-.048.186a.191.191 0 01.078-.074h.001a.265.265 0 01.12-.026c.075 0 .135.022.179.066s.066.103.066.176c0 .052-.011.097-.034.136s-.055.069-.094.088l-.001.001a.303.303 0 01-.142.031.28.28 0 01-.275-.172.501.501 0 01-.037-.199c0-.08.013-.15.04-.21s.066-.107.116-.14a.31.31 0 01.175-.05c.039 0 .079.005.12.016a.42.42 0 01.111.043l-.002-.001-.055.108zm-.196.217a.152.152 0 00-.11.039.122.122 0 00-.04.091v.005c-.001.022.004.043.015.063s.027.036.049.049c.022.012.05.018.082.018.043 0 .078-.012.104-.036s.039-.057.039-.1c0-.04-.013-.071-.038-.094s-.058-.036-.101-.036zm.663-.383c.079 0 .142.018.187.054s.069.084.069.145c0 .035-.009.066-.028.094s-.046.051-.077.066h-.001c.045.017.08.042.105.076s.039.073.039.117-.012.083-.036.116c-.024.033-.058.059-.103.077s-.096.026-.155.026-.111-.009-.156-.026-.078-.043-.102-.076-.036-.071-.036-.115c0-.045.013-.084.04-.118s.064-.06.11-.077a.216.216 0 01-.083-.069v-.001a.17.17 0 01-.029-.095v-.002c0-.059.023-.106.068-.141s.108-.053.186-.053zm.002.104c-.042 0-.075.009-.098.027s-.035.043-.035.076.012.058.035.076c.024.018.057.027.098.027s.074-.009.097-.027c.023-.018.035-.043.035-.076s-.012-.058-.035-.076a.155.155 0 00-.097-.027zm-.002.318c-.049 0-.087.01-.115.03s-.041.049-.041.085c0 .038.014.067.041.088s.066.031.116.031c.049 0 .087-.01.115-.03s.042-.05.042-.088c0-.037-.014-.065-.042-.085s-.066-.031-.116-.031zm.583-.418c.063 0 .113.02.149.061s.054.095.054.166-.018.127-.054.168c-.036.04-.086.061-.149.061s-.112-.02-.148-.061c-.036-.041-.054-.097-.054-.168s.018-.125.054-.166.085-.061.148-.061zm0 .082c-.035 0-.062.013-.081.038s-.028.061-.028.106c0 .046.009.082.028.108s.047.038.081.038c.035 0 .063-.013.082-.038s.029-.062.029-.108c0-.045-.01-.081-.029-.106s-.047-.038-.082-.038zm.506-.08h.107l-.552.758h-.108l.553-.758zm.068.307c.063 0 .113.02.149.061s.054.095.054.166-.018.127-.054.168c-.036.04-.086.061-.149.061s-.112-.02-.148-.061c-.036-.041-.054-.097-.054-.168s.018-.125.054-.166.085-.061.148-.061zm0 .082c-.035 0-.062.013-.081.038s-.028.061-.028.106c0 .046.009.082.028.108s.047.038.081.038c.035 0 .063-.013.082-.038s.029-.062.029-.108c0-.045-.01-.081-.029-.106s-.047-.038-.082-.038z"/><path fill="var(--color7, #637381)" d="M12.907 30.068v-.552h.064v.494h.243v.058h-.308zm.564-.045a.22.22 0 00.058-.008h-.002v.048a.095.095 0 01-.03.008h-.001a.198.198 0 01-.035.003c-.08 0-.12-.042-.12-.126v-.246h-.059v-.03l.059-.026.026-.088h.036v.096h.12v.049h-.12v.243c0 .025.006.044.018.057s.028.02.049.02zm.269.045l-.157-.414h.067l.089.245c.02.057.032.095.035.112h.003c.003-.013.011-.041.026-.083l.099-.274h.067l-.157.414h-.073z"/><path fill="var(--color6, #212b36)" d="M19.247 28.305h.304v.758h-.145v-.63h-.159v-.128zm1.014.631v.127H19.7v-.105l.286-.294c.027-.027.049-.055.066-.081s.025-.05.025-.069v-.003a.075.075 0 00-.032-.061.15.15 0 00-.09-.024.255.255 0 00-.106.025.376.376 0 00-.106.07l-.057-.111a.544.544 0 01.137-.079l.004-.001a.396.396 0 01.149-.029c.05 0 .094.008.132.024s.068.039.089.068a.16.16 0 01.032.101c0 .037-.013.076-.038.117s-.061.085-.106.133l-.193.195h.369zm1.148-.458c.066 0 .117.02.155.061s.056.094.056.162v.361h-.142v-.32c0-.041-.012-.073-.035-.096s-.053-.036-.092-.036c-.045.001-.08.018-.107.049s-.039.07-.039.118v.286h-.142v-.32c0-.041-.011-.073-.034-.096s-.053-.036-.092-.036c-.045.001-.082.018-.108.049s-.039.07-.039.118v.286h-.141v-.579h.141v.107c.038-.074.106-.111.203-.113.05 0 .093.012.127.037s.059.058.073.102c.037-.091.109-.137.215-.139zm.707.549a.27.27 0 01-.145.042c-.05 0-.09-.014-.122-.043s-.048-.073-.048-.13v-.286h-.081l-.001-.103h.082v-.159h.14v.159h.166v.103h-.166v.261c0 .027.005.046.015.057s.025.016.045.016a.197.197 0 00.082-.024l.032.106zm.465-.549c.066 0 .119.02.157.061s.057.094.057.162v.361h-.142v-.32c0-.04-.012-.072-.035-.095s-.055-.036-.094-.036c-.047.001-.084.017-.111.048s-.041.071-.041.119v.285h-.141v-.803h.141v.334c.04-.076.109-.114.209-.116z"/><path fill="var(--color7, #637381)" d="M19.322 30.068v-.552h.064v.494h.243v.058h-.308zm.788-.208c0 .067-.017.12-.051.158s-.081.057-.141.057c-.037 0-.07-.009-.098-.026s-.052-.043-.066-.074v-.001a.252.252 0 01-.023-.114c0-.067.017-.12.051-.157s.081-.057.14-.057c.058 0 .104.019.138.058s.051.091.051.156zm-.315 0c0 .053.011.093.032.121s.052.041.093.041.072-.014.093-.041.032-.068.032-.121c0-.053-.011-.092-.032-.12s-.052-.041-.094-.041c-.041 0-.072.013-.093.04s-.031.067-.031.12zm.718.208l-.013-.059h-.003c-.021.026-.041.044-.062.053s-.046.014-.077.014c-.041 0-.073-.011-.097-.032s-.035-.051-.035-.09c0-.084.067-.127.2-.131l.07-.002v-.026c0-.032-.007-.056-.021-.072s-.036-.023-.067-.023a.28.28 0 00-.117.032l-.019-.048a.252.252 0 01.065-.026h.002a.304.304 0 01.073-.009c.049 0 .086.011.109.033s.036.057.036.105v.282h-.046zm-.141-.045c.039 0 .07-.011.092-.032s.034-.051.034-.09v-.037l-.063.003c-.05.002-.086.01-.108.023s-.033.035-.033.064c0 .023.007.04.02.052s.033.018.058.018zm.639.045V29.8c0-.034-.008-.059-.023-.075s-.039-.025-.072-.025c-.043 0-.075.012-.095.035s-.03.062-.03.116v.217h-.063v-.414h.051l.01.057h.003c.013-.02.031-.036.054-.047s.049-.017.077-.017c.05 0 .087.012.112.036s.038.062.038.115v.27h-.063z"/><path fill="var(--color3, #13c296)" d="M7.749 22.286c0 .046.014.083.041.113a.303.303 0 00.098.068l.002.001c.04.016.095.035.165.058.088.027.159.053.213.078s.101.062.139.111a.304.304 0 01.057.193c0 .1-.036.183-.108.249a.51.51 0 01-.289.117v.247h-.135v-.245a.726.726 0 01-.253-.065l.005.002a.756.756 0 01-.21-.14l.08-.154a.679.679 0 00.203.139l.004.002a.593.593 0 00.226.048.362.362 0 00.204-.05.16.16 0 00.076-.139.162.162 0 00-.041-.113.29.29 0 00-.102-.07l-.002-.001a2.003 2.003 0 00-.167-.058 1.62 1.62 0 01-.211-.076.384.384 0 01-.139-.109l-.001-.001a.305.305 0 01-.056-.191c0-.095.035-.173.104-.234a.478.478 0 01.278-.111v-.224h.135v.223a.784.784 0 01.373.126l-.003-.002-.074.16a.72.72 0 00-.184-.084l-.005-.001a.603.603 0 00-.178-.03.33.33 0 00-.182.045.133.133 0 00-.067.119zm.826-.319h.473v1.299H8.87v-1.137h-.295v-.161zm.699 0h.972v.139l-.566 1.159h-.189l.555-1.137h-.61l-.002.187h-.16v-.349zm1.997.223a.487.487 0 00-.138-.059l-.003-.001a.535.535 0 00-.154-.022c-.125 0-.221.043-.288.13s-.1.205-.1.356l.002.054c.032-.07.08-.124.145-.161s.142-.056.232-.056c.13 0 .232.037.306.111a.403.403 0 01.113.301.46.46 0 01-.056.23.385.385 0 01-.156.149l-.002.001a.51.51 0 01-.237.052.52.52 0 01-.28-.074.474.474 0 01-.18-.215.859.859 0 01-.061-.341c0-.137.022-.257.067-.36a.501.501 0 01.482-.324c.062 0 .127.009.195.026.069.017.13.04.184.069l-.07.135zm-.336.384a.335.335 0 00-.165.039.251.251 0 00-.144.229v.009c-.001.043.009.085.032.126s.056.075.1.102a.323.323 0 00.167.041c.089 0 .16-.025.213-.074a.262.262 0 00.082-.204.252.252 0 00-.078-.195.287.287 0 00-.206-.072zm.74.501c.027 0 .05.009.069.028.02.019.03.043.03.074a.28.28 0 01-.027.088l.001-.003-.1.211h-.095l.074-.21a.094.094 0 01-.039-.035.11.11 0 01-.013-.051v-.001c0-.03.009-.054.028-.072.02-.02.044-.03.072-.03zm.857-1.115c.174 0 .309.057.403.171.094.113.141.275.141.486s-.047.374-.141.488a.492.492 0 01-.403.171.493.493 0 01-.404-.171c-.093-.114-.139-.276-.139-.488s.046-.373.139-.486a.494.494 0 01.404-.171zm0 .141c-.24 0-.36.172-.36.516 0 .171.03.299.091.386s.15.13.269.13.208-.043.269-.13c.061-.087.091-.215.091-.386 0-.344-.12-.516-.36-.516zm1.319-.141c.174 0 .309.057.403.171.094.113.141.275.141.486s-.047.374-.141.488a.492.492 0 01-.403.171.493.493 0 01-.404-.171c-.093-.114-.139-.276-.139-.488s.046-.373.139-.486a.494.494 0 01.404-.171zm0 .141c-.24 0-.36.172-.36.516 0 .171.03.299.091.386s.15.13.269.13.208-.043.269-.13c.061-.087.091-.215.091-.386 0-.344-.12-.516-.36-.516zm1.319-.141c.174 0 .309.057.403.171.094.113.141.275.141.486s-.047.374-.141.488a.492.492 0 01-.403.171.493.493 0 01-.404-.171c-.093-.114-.139-.276-.139-.488s.046-.373.139-.486a.494.494 0 01.404-.171zm0 .141c-.24 0-.36.172-.36.516 0 .171.03.299.091.386s.15.13.269.13.208-.043.269-.13c.061-.087.091-.215.091-.386 0-.344-.12-.516-.36-.516z"/><path fill="var(--color7, #637381)" d="M7.74 19.556l-.187-.489H7.55c.004.039.005.085.005.138v.351h-.059v-.552h.097l.175.455h.003l.176-.455h.096v.552h-.064V19.2c0-.041.002-.085.005-.133h-.003l-.189.488H7.74zm.658.007c-.061 0-.109-.019-.145-.056s-.053-.089-.053-.155c0-.067.016-.12.049-.159s.077-.059.132-.059c.052 0 .093.017.123.051s.045.079.045.135v.04h-.285c.001.049.013.085.037.111s.056.038.099.038a.326.326 0 00.132-.028v.056a.336.336 0 01-.061.02h-.002a.345.345 0 01-.066.006h-.005zm-.017-.376c-.033 0-.06.011-.08.032s-.031.052-.035.09h.216c0-.04-.009-.07-.026-.091s-.043-.032-.075-.032zm.504-.053c.018 0 .035.001.049.004l-.009.058a.306.306 0 00-.045-.006c-.033 0-.062.014-.086.041s-.035.061-.035.102v.222h-.063v-.414h.052l.007.077h.003c.015-.027.034-.048.055-.062s.045-.022.071-.022zm.358.429h-.002a.177.177 0 01-.073-.015h.001a.14.14 0 01-.056-.046h-.004a.553.553 0 01.004.069v.17H9.05v-.599h.051l.009.057h.003c.016-.023.035-.039.056-.049s.046-.015.074-.015c.055 0 .097.019.127.056s.045.09.045.158-.015.121-.046.159-.072.056-.126.056zm-.009-.375c-.042 0-.073.012-.092.035s-.029.061-.029.112v.014c0 .058.01.1.029.125s.05.037.093.037c.036 0 .064-.014.084-.043s.031-.069.031-.12c0-.052-.01-.091-.031-.119s-.049-.041-.085-.041zm.584.368l-.012-.059h-.003c-.021.026-.041.044-.062.053s-.046.014-.077.014c-.041 0-.073-.011-.097-.032s-.035-.051-.035-.09c0-.084.067-.127.2-.131l.07-.002v-.026c0-.032-.007-.056-.021-.072s-.036-.023-.067-.023a.28.28 0 00-.117.032l-.019-.048a.283.283 0 01.14-.035c.049 0 .086.011.109.033s.036.057.036.105v.282h-.046zm-.142-.045c.039 0 .07-.011.092-.032s.034-.051.034-.09v-.037l-.063.003c-.05.002-.086.01-.108.023s-.033.035-.033.064c0 .023.007.04.02.052s.033.018.058.018zm.49 0a.22.22 0 00.058-.008h-.002v.048a.095.095 0 01-.03.008h-.001a.198.198 0 01-.035.003c-.08 0-.12-.042-.12-.126v-.246h-.059v-.03l.059-.026.026-.088h.036v.096h.12v.049h-.12v.243c0 .025.006.044.018.057s.028.02.049.02zm.241.045h-.063v-.414h.063v.414zm-.068-.526c0-.014.003-.025.011-.031s.015-.01.025-.01h.001c.01 0 .019.003.026.01s.011.017.011.031c0 .014-.004.025-.011.032s-.016.01-.025.01h-.001-.001a.036.036 0 01-.025-.01c-.007-.007-.011-.018-.011-.032zm.745.413c0 .038-.014.068-.043.089s-.069.031-.121.031a.263.263 0 01-.128-.026v-.058a.325.325 0 00.13.033.15.15 0 00.075-.015.053.053 0 00.027-.046v-.003c0-.016-.007-.03-.021-.041s-.041-.025-.082-.041a.449.449 0 01-.082-.037.113.113 0 01-.036-.036.098.098 0 01-.012-.046v-.003c0-.034.014-.06.041-.08s.065-.029.113-.029c.045 0 .088.009.131.027l-.022.051a.3.3 0 00-.113-.026c-.03 0-.052.005-.067.014s-.023.022-.023.038c0 .011.003.021.008.028s.015.015.028.022a.859.859 0 00.072.031c.049.018.082.036.099.054s.026.041.026.068zm.204.113h-.063v-.414h.063v.414zm-.068-.526c0-.014.004-.025.011-.031s.015-.01.025-.01h.001c.01 0 .019.003.026.01s.011.017.011.031c0 .014-.004.025-.011.032s-.016.01-.026.01h-.001-.001a.036.036 0 01-.025-.01c-.007-.007-.011-.018-.011-.032zm.521.47h-.003c-.029.042-.072.063-.13.063-.054 0-.096-.019-.126-.055s-.045-.09-.045-.158.015-.121.045-.159a.151.151 0 01.126-.057.15.15 0 01.129.061h.005l-.003-.03-.002-.029v-.168h.063v.587h-.051l-.008-.055zm-.125.011c.043 0 .074-.012.093-.035s.029-.061.029-.113v-.013c0-.059-.01-.1-.029-.125s-.05-.038-.093-.038c-.037 0-.065.014-.085.043s-.029.069-.029.121c0 .053.01.093.029.12s.048.04.085.04zm.713-.163c0 .067-.017.12-.051.158s-.081.057-.141.057c-.037 0-.07-.009-.098-.026s-.052-.043-.066-.074v-.001a.252.252 0 01-.023-.114c0-.067.017-.12.051-.157s.081-.057.14-.057c.058 0 .104.019.138.058s.051.091.051.156zm-.315 0c0 .053.011.093.032.121s.052.041.093.041.072-.014.093-.041.032-.068.032-.121c0-.053-.011-.092-.032-.12s-.052-.041-.094-.041c-.041 0-.072.013-.093.04s-.031.067-.031.12zm.991.208v-.269c0-.033-.007-.058-.021-.074s-.036-.025-.066-.025c-.039 0-.068.011-.086.034s-.028.057-.028.103v.231h-.063v-.269c0-.033-.007-.058-.021-.074s-.036-.025-.066-.025c-.039 0-.068.012-.086.035s-.027.062-.027.115v.217h-.063v-.414h.051l.01.057h.003c.012-.02.028-.036.05-.047s.046-.017.072-.017c.065 0 .107.023.127.07h.003a.121.121 0 01.054-.051.163.163 0 01.077-.019h.003c.047 0 .082.012.105.036s.035.062.035.115v.27h-.063zm.29-.414v.268c0 .034.008.059.023.076s.039.025.072.025c.043 0 .075-.012.095-.035s.03-.062.03-.116v-.217h.063v.414h-.052l-.009-.055h-.003a.134.134 0 01-.053.047h-.001a.178.178 0 01-.078.016c-.05 0-.088-.012-.113-.036s-.037-.062-.037-.115v-.271h.063zm.737.414v-.268c0-.034-.008-.059-.023-.075s-.039-.025-.072-.025c-.043 0-.075.012-.095.035s-.03.062-.03.116v.217h-.063v-.414h.051l.01.057h.003c.013-.02.031-.036.054-.047s.049-.017.077-.017c.05 0 .087.012.112.036s.038.062.038.115v.27h-.063zm.396.007c-.06 0-.106-.018-.139-.055s-.049-.089-.049-.157c0-.069.017-.123.05-.16s.081-.057.143-.057a.305.305 0 01.107.021l-.019.053a.27.27 0 00-.043-.013h-.002a.279.279 0 00-.043-.006c-.084 0-.126.054-.126.161 0 .051.01.09.031.117s.051.041.091.041a.279.279 0 00.108-.023l-.002.001v.055a.233.233 0 01-.105.022zm.301-.421v.268c0 .034.008.059.023.076s.039.025.072.025c.043 0 .075-.012.095-.035s.03-.062.03-.116v-.217h.063v.414h-.052l-.009-.055h-.003a.134.134 0 01-.053.047h-.001a.178.178 0 01-.078.016c-.05 0-.088-.012-.113-.036s-.037-.062-.037-.115v-.271h.063zm.517.414h-.063v-.587h.063v.587zm.745 0h-.363v-.054l.145-.146c.044-.045.073-.077.088-.096s.025-.038.032-.056a.152.152 0 00.011-.057v-.001c0-.029-.009-.053-.027-.07s-.043-.026-.074-.026c-.023 0-.045.004-.065.011s-.043.021-.068.041l-.033-.043a.255.255 0 01.166-.063c.052 0 .092.013.122.04s.044.062.044.107c0 .035-.01.07-.029.104s-.056.078-.11.13l-.121.118v.003h.284v.058zm.125-.236c0-.108.021-.189.063-.243s.105-.081.187-.081a.24.24 0 01.067.007v.054a.208.208 0 00-.063-.009h-.004c-.059 0-.104.018-.136.055s-.048.095-.051.174h.005c.028-.043.071-.065.131-.065.05 0 .089.015.117.045s.043.071.043.122c0 .057-.016.102-.047.136s-.073.049-.127.049c-.057 0-.102-.021-.136-.064s-.05-.103-.05-.179zm.185.19c.036 0 .063-.011.083-.034s.03-.055.03-.098c0-.036-.009-.065-.028-.086s-.046-.031-.082-.031c-.023 0-.043.005-.062.014s-.034.022-.045.038a.097.097 0 00-.017.051c0 .026.005.05.015.073s.024.04.043.053a.11.11 0 00.063.02zm.824-.067c0 .038-.014.068-.043.089s-.069.031-.121.031a.263.263 0 01-.128-.026v-.058a.325.325 0 00.13.033.157.157 0 00.076-.015.052.052 0 00.026-.046v-.003c0-.016-.007-.03-.021-.041s-.041-.025-.082-.041a.484.484 0 01-.082-.037.113.113 0 01-.036-.036.098.098 0 01-.012-.046v-.003c0-.034.014-.06.041-.08s.065-.029.113-.029c.045 0 .088.009.131.027l-.022.051a.3.3 0 00-.113-.026c-.03 0-.052.005-.067.014s-.023.022-.023.038c0 .011.003.021.008.028s.015.015.028.022a.782.782 0 00.073.031c.049.018.082.036.099.054s.026.041.026.068zm.275.068a.22.22 0 00.058-.008h-.002v.048a.095.095 0 01-.03.008h-.001a.198.198 0 01-.035.003c-.08 0-.12-.042-.12-.126v-.246h-.059v-.03l.059-.026.026-.088h.036v.096h.12v.049h-.12v.243c0 .025.006.044.018.057s.028.02.049.02zm.367-.377c.018 0 .035.001.049.004l-.009.058a.306.306 0 00-.045-.006c-.033 0-.062.014-.086.041s-.035.061-.035.102v.222h-.063v-.414h.052l.007.077h.003c.015-.027.034-.048.055-.062s.045-.022.071-.022zm.34.429c-.061 0-.109-.019-.145-.056s-.053-.089-.053-.155c0-.067.016-.12.049-.159s.077-.059.132-.059c.052 0 .093.017.123.051s.045.079.045.135v.04h-.285c.001.049.013.085.037.111s.056.038.098.038a.332.332 0 00.134-.029l-.002.001v.056a.336.336 0 01-.061.02h-.002a.345.345 0 01-.066.006h-.005zm-.017-.376c-.033 0-.06.011-.08.032s-.031.052-.035.09h.216c0-.04-.009-.07-.026-.091s-.043-.032-.076-.032zm.489.376c-.061 0-.109-.019-.145-.056s-.053-.089-.053-.155c0-.067.016-.12.049-.159s.077-.059.132-.059c.052 0 .093.017.123.051s.045.079.045.135v.04h-.285c.001.049.013.085.037.111s.056.038.098.038a.323.323 0 00.132-.028v.056a.336.336 0 01-.061.02h-.002a.345.345 0 01-.066.006h-.005zm-.017-.376c-.033 0-.06.011-.08.032s-.031.052-.035.09h.216c0-.04-.009-.07-.026-.091s-.043-.032-.076-.032zm.449.324a.22.22 0 00.058-.008h-.002v.048a.095.095 0 01-.03.008h-.001a.198.198 0 01-.035.003c-.08 0-.12-.042-.12-.126v-.246h-.059v-.03l.059-.026.026-.088h.036v.096h.12v.049h-.12v.243c0 .025.006.044.018.057s.028.02.049.02zm.244-.045l.006.009a1.387 1.387 0 01-.066.181h-.047a1.72 1.72 0 00.039-.189h.069zm.828-.462v.357c0 .063-.019.112-.057.148s-.09.054-.157.054c-.066 0-.118-.018-.154-.054s-.054-.086-.054-.149v-.356h.064v.36c0 .046.013.081.038.106s.062.037.111.037c.047 0 .082-.012.108-.037s.038-.061.038-.107v-.359h.064zm.584.552h-.076l-.201-.268-.058.051v.216h-.064v-.552h.064v.274l.25-.274h.076l-.222.24.23.312z"/><path fill="var(--color8, #98a4af)" d="M7.583 24.966h-.09v-.552h.311v.076h-.222v.172h.208v.077h-.208v.226zm.793-.552v.357c0 .041-.009.077-.026.107s-.044.055-.075.07h-.001a.267.267 0 01-.118.025c-.068 0-.122-.018-.16-.054s-.057-.086-.057-.149v-.356h.091v.349c0 .046.011.079.032.101s.054.032.097.032c.085 0 .128-.045.128-.134v-.348h.09zm.639.552h-.111l-.271-.44H8.63l.002.024c.003.047.005.09.005.128v.287h-.082v-.552h.109l.271.438h.002l-.003-.063-.002-.085v-.289h.083v.552zm.633-.281c0 .091-.025.161-.076.209s-.123.072-.219.072h-.154v-.552h.171c.088 0 .156.024.205.071s.073.114.073.2zm-.095.003c0-.132-.062-.198-.185-.198H9.29v.4h.064c.133 0 .199-.067.199-.202zm.253.278v-.552h.09v.552h-.09zm.734 0h-.111l-.271-.44h-.003l.002.024c.004.047.005.09.005.128v.287h-.082v-.552h.109l.271.438h.002l-.003-.057v-.006l-.002-.085v-.289h.083v.552zm.41-.299h.203v.277a.606.606 0 01-.192.03h-.003c-.083 0-.148-.025-.193-.074s-.068-.119-.068-.209c0-.089.026-.158.077-.208s.121-.075.211-.075h.002c.058 0 .114.012.164.034l-.003-.001-.032.075a.322.322 0 00-.134-.031c-.059 0-.105.018-.14.055s-.051.087-.051.152c0 .067.015.119.046.154s.075.052.133.052c.029 0 .06-.004.094-.011v-.142h-.114v-.077zm.705.004h.063c.042 0 .072-.008.091-.023s.028-.039.028-.07c0-.031-.01-.054-.031-.067s-.051-.02-.092-.02h-.06v.18zm0 .075v.22h-.09v-.552h.156c.071 0 .124.013.158.04s.051.067.051.121c0 .069-.036.118-.107.147l.156.244h-.103l-.132-.22h-.089zm.755.22h-.312v-.552h.312v.076h-.222v.15h.208v.076h-.208v.173h.222v.077zm.648-.276a.338.338 0 01-.039.169.211.211 0 01-.11.096h-.001l.132.142h-.121l-.104-.124H12.8c-.083 0-.147-.025-.192-.074s-.067-.12-.067-.211.022-.161.067-.21.109-.073.192-.073c.082 0 .145.025.19.074s.067.119.067.209zm-.421 0c0 .068.014.119.041.155s.068.052.122.052c.054 0 .094-.017.121-.052s.041-.086.041-.155c0-.068-.014-.119-.041-.154s-.067-.052-.121-.052c-.054 0-.095.017-.123.052s-.041.086-.041.154zm1.01-.276v.357c0 .041-.009.077-.026.107s-.044.055-.075.07h-.001a.267.267 0 01-.118.025c-.068 0-.122-.018-.16-.054s-.057-.086-.057-.149v-.356h.091v.349c0 .046.011.079.032.101s.054.032.097.032c.085 0 .128-.045.128-.134v-.348h.09zm.492.552h-.312v-.552h.312v.076h-.222v.15h.208v.076h-.208v.173h.222v.077zm.477-.15c0 .049-.018.087-.053.115s-.084.042-.147.042-.113-.01-.153-.029v-.085a.42.42 0 00.159.038c.036 0 .062-.007.079-.02a.065.065 0 00.026-.052v-.002-.001a.07.07 0 00-.023-.052.381.381 0 00-.097-.051c-.05-.02-.086-.044-.106-.07s-.031-.058-.031-.094c0-.046.016-.082.049-.109s.077-.04.132-.04c.053 0 .105.012.158.035l-.029.074a.338.338 0 00-.131-.031c-.029 0-.051.006-.066.019a.062.062 0 00-.023.048v.002c0 .014.003.027.009.037s.016.02.03.029.039.021.075.036c.041.017.07.033.089.047s.033.031.041.049c.009.018.013.04.013.065zm.336.15h-.09v-.474H14.7v-.077h.415v.077h-.162v.474z"/><path fill="var(--color4, #000)" d="M5.063-.039h20.174v15.536H5.063z"/><path fill="var(--color3, #13c296)" d="M3.246 9.43h3.71c.256 0 .464.208.464.464v3.71a.464.464 0 01-.464.464h-3.71a.464.464 0 01-.464-.464v-3.71c0-.256.208-.464.464-.464z"/></symbol><symbol id="icon-Attachment" viewBox="0 0 32 32"><path fill="var(--color9, #99efd0)" opacity=".3" d="M5.629 18.828c-.483.483-.781 1.149-.781 1.886s.299 1.403.781 1.886L9.4 26.371c.483.483 1.149.781 1.886.781s1.403-.299 1.886-.781l3.771-3.771c.483-.483.781-1.149.781-1.886s-.299-1.403-.781-1.886L16 17.885l-2.828 2.829a1.334 1.334 0 11-1.886-1.886L14.115 16l-.943-.943c-.483-.483-1.149-.781-1.886-.781s-1.403.299-1.886.781l-3.771 3.769z"/><path fill="var(--color9, #99efd0)" d="M15.057 9.4c-.483.483-.781 1.149-.781 1.886s.299 1.403.781 1.886l.943.943 2.828-2.829a1.334 1.334 0 111.886 1.886L17.885 16l.943.943c.483.483 1.149.781 1.886.781s1.403-.299 1.886-.781l3.771-3.771c.483-.483.781-1.149.781-1.886s-.299-1.403-.781-1.886L22.6 5.629c-.483-.483-1.149-.781-1.886-.781s-1.403.299-1.886.781L15.057 9.4z"/></symbol><symbol id="icon-Bulb" viewBox="0 0 32 32"><path fill="var(--color9, #99efd0)" opacity=".3" d="M16 22.667c5.891 0 10.667-4.776 10.667-10.667S21.891 1.333 16 1.333 5.333 6.109 5.333 12 10.109 22.667 16 22.667z"/><path fill="var(--color9, #99efd0)" opacity=".3" d="M8.717 12l5.373 13.816 1.877-.729 1.864.736L23.292 12H8.716zm3.899 2.667h6.757l-3.405 8.62-3.352-8.62zM13.333 29.333h5.333a2.667 2.667 0 11-5.334 0z"/><path fill="var(--color9, #99efd0)" d="M10.667 22.667c0-.736.597-1.333 1.333-1.333h8A1.333 1.333 0 0120 24a1.333 1.333 0 010 2.666 1.333 1.333 0 010 2.666h-8a1.333 1.333 0 010-2.666A1.333 1.333 0 0112 24a1.333 1.333 0 01-1.333-1.333z"/></symbol><symbol id="icon-Flip-horizontal" viewBox="0 0 32 32"><path opacity=".3" d="M4.365 24.419a.667.667 0 00.619.915H11.334a.667.667 0 00.667-.667V8.795c0-.733-1.013-.929-1.285-.247L4.367 24.419z"/><path d="M27.635 24.419a.667.667 0 01-.618.915h-6.349a.667.667 0 01-.667-.667V8.795c0-.733 1.013-.929 1.285-.247l6.349 15.871z"/><path opacity=".3" d="M16 2.667c.736 0 1.333.597 1.333 1.333v24a1.333 1.333 0 01-2.666 0V4c0-.736.597-1.333 1.333-1.333z"/></symbol><symbol id="icon-LTE" viewBox="0 0 32 32"><path fill="var(--color9, #99efd0)" opacity=".3" d="M9.675 25.24l-1.701 2.049c-3.252-2.704-5.307-6.751-5.307-11.277v-.013V16A14.64 14.64 0 017.959 4.72l1.705 2.051c-2.654 2.211-4.331 5.518-4.331 9.216v.014V16v.016c0 3.703 1.681 7.013 4.322 9.209l.02.016zm12.65 0l1.703 2.051c3.251-2.704 5.305-6.75 5.305-11.276V16v.001a14.64 14.64 0 00-5.292-11.28l-1.705 2.051c2.654 2.211 4.331 5.517 4.331 9.215v.015-.001.016c0 3.703-1.681 7.013-4.322 9.209l-.02.016zm-3.421-4.093l1.697 2.057A9.305 9.305 0 0024 16.009v-.01a9.308 9.308 0 00-3.379-7.187l-1.701 2.053a6.64 6.64 0 012.413 5.125v.016c0 2.065-.941 3.91-2.418 5.13l-.011.009zM11.4 23.204l1.697-2.057a6.643 6.643 0 01-2.431-5.14V16c0-2.012.895-3.875 2.413-5.133l-1.7-2.053a9.304 9.304 0 00-3.38 7.179v.008a9.313 9.313 0 003.4 7.204z"/><path fill="var(--color9, #99efd0)" d="M16 18.667a2.667 2.667 0 100-5.334 2.667 2.667 0 100 5.334z"/></symbol><symbol id="icon-Thunder-move" viewBox="0 0 32 32"><path fill="var(--color9, #99efd0)" d="M20 26.031c0 .989 1.283 1.377 1.832.555l7.799-11.697a1 1 0 00-.832-1.555h-6.132V5.97c0-.989-1.283-1.377-1.832-.555l-7.799 11.697a1 1 0 00.832 1.555H20v7.364z"/><path fill="var(--color9, #99efd0)" opacity=".3" d="M4 8.667a2 2 0 012-2h6.667a2 2 0 110 4H6a2 2 0 01-2-2zm0 16a2 2 0 012-2h6.667a2 2 0 110 4H6a2 2 0 01-2-2zm-.667-10a2 2 0 100 4h5.333a2 2 0 100-4H3.333z"/></symbol><symbol id="icon-Airpods" viewBox="0 0 32 32"><path fill="var(--color9, #99efd0)" opacity=".3" d="M18.667 15.296a7.939 7.939 0 003.952 1.92l.048.007v10.111a2 2 0 11-4 0V15.297zm-9.334 1.927a7.97 7.97 0 004.007-1.933l-.007.006v12.037a2 2 0 11-4 0V17.222z"/><path fill="var(--color9, #99efd0)" d="M24 16a6.667 6.667 0 000-13.334A6.667 6.667 0 0024 16zm-5.333-6.333a1 1 0 011-1h.667a1 1 0 010 2h-.667a1 1 0 01-1-1zm9.333-3c-.736 0-1.333.597-1.333 1.333v2.667a1.333 1.333 0 002.666 0V8c0-.736-.597-1.333-1.333-1.333zM8 16A6.667 6.667 0 008 2.666 6.667 6.667 0 008 16zm2.667-6.333a1 1 0 011-1h.667a1 1 0 010 2h-.667a1 1 0 01-1-1zM4 6.667c-.736 0-1.333.597-1.333 1.333v2.667a1.333 1.333 0 002.666 0V8c0-.736-.597-1.333-1.333-1.333z"/></symbol><symbol id="icon-chart" viewBox="0 0 31 32"><path fill="var(--color4, #000)" d="M8.18.05h18.507c.384 0 .696.311.696.696v23.481a.696.696 0 01-.696.696H8.18a.696.696 0 01-.696-.696V.746c0-.384.311-.696.696-.696z"/><path fill="var(--color10, #1d2067)" d="M.645 1.294h14.924c.343 0 .622.278.622.622v14.426a.622.622 0 01-.622.622H.645a.622.622 0 01-.622-.622V1.916c0-.343.278-.622.622-.622z"/><path fill="var(--color11, #8476aa)" d="M2.29 3.428c.069 0 .132.016.188.047a.35.35 0 01.134.491.373.373 0 01-.322.177.38.38 0 01-.189-.048.358.358 0 01-.182-.311.348.348 0 01.182-.309.387.387 0 01.189-.047zm.002.119a.239.239 0 00-.237.237.237.237 0 00.119.207.223.223 0 00.118.032c.042 0 .081-.011.116-.032s.064-.05.085-.087a.237.237 0 000-.239.234.234 0 00-.201-.118zm.395.055l.135-.001.139.405.136-.405h.13l-.203.532h-.133l-.205-.531zm.819-.005c.085 0 .149.024.191.073s.065.116.065.204l-.001.039h-.393c.009.038.026.068.053.09s.06.032.099.032a.199.199 0 00.144-.06l.07.073c-.027.029-.059.052-.098.068s-.08.024-.126.024c-.054 0-.102-.011-.144-.034s-.073-.054-.095-.095c-.023-.041-.034-.088-.034-.141s.011-.1.034-.141c.023-.041.055-.073.096-.095s.088-.035.14-.035zm.137.229c-.001-.039-.014-.07-.039-.094s-.057-.035-.098-.035c-.038 0-.07.012-.095.035s-.041.054-.047.094h.279zm.359-.123c.018-.034.042-.061.073-.079s.067-.028.108-.029v.125c-.055-.003-.099.01-.132.039s-.049.067-.049.116v.257h-.129V3.6h.129v.102zm.216-.101l.135-.001.139.405.136-.405h.13l-.203.532h-.133l-.205-.531zm.616-.001h.129v.532h-.129v-.532zm.064-.229c.021 0 .039.007.053.022s.021.033.021.056c0 .022-.007.04-.021.055s-.032.022-.053.022c-.021 0-.039-.007-.053-.022s-.021-.033-.021-.055c0-.023.007-.041.021-.056s.032-.022.053-.022zm.447.225c.085 0 .149.024.191.073s.065.116.065.204l-.001.039h-.393c.009.038.026.068.053.09s.06.032.099.032a.199.199 0 00.144-.06l.07.073c-.027.029-.059.052-.098.068s-.08.024-.126.024c-.054 0-.102-.011-.144-.034s-.073-.054-.096-.095c-.023-.041-.034-.088-.034-.141s.011-.1.034-.141c.023-.041.055-.073.096-.095s.088-.035.14-.035zm.138.229c-.001-.039-.014-.07-.039-.094s-.057-.035-.098-.035c-.038 0-.07.012-.096.035s-.041.054-.047.094h.279zm.129-.224l.133-.001.13.402.126-.402h.13l.128.402.127-.402h.13l-.193.532h-.132l-.127-.375-.126.375h-.132l-.195-.531zM10.556 4.133v-.444h.052v.397h.196v.047h-.247zm.52 0l-.01-.047h-.002c-.017.021-.033.035-.05.043s-.037.011-.062.011c-.033 0-.059-.008-.078-.026s-.028-.041-.028-.073c0-.067.054-.102.161-.106l.056-.002v-.021c0-.026-.006-.045-.017-.058s-.029-.019-.054-.019a.22.22 0 00-.094.026l-.015-.039a.24.24 0 01.113-.029c.04 0 .069.009.088.026s.029.046.029.085v.227h-.037zm-.113-.035c.031 0 .056-.009.074-.026s.027-.041.027-.072v-.03l-.05.002c-.04.001-.069.008-.087.019s-.026.028-.026.051c0 .018.005.032.016.042s.027.014.046.014zm.47-.056c0 .031-.012.055-.035.072s-.056.025-.097.025a.208.208 0 01-.103-.021v-.047c.016.008.033.014.051.019s.036.007.053.007c.026 0 .047-.004.061-.012s.021-.021.021-.039c0-.013-.006-.024-.017-.033s-.033-.02-.066-.033c-.031-.012-.053-.022-.066-.03s-.023-.019-.029-.029a.08.08 0 01-.009-.039c0-.027.011-.048.033-.064s.052-.024.091-.024c.036 0 .071.007.105.022l-.018.041a.238.238 0 00-.091-.021c-.024 0-.042.004-.054.011s-.018.018-.018.031c0 .009.002.017.007.023s.012.012.022.018a.5.5 0 00.058.025c.039.014.066.029.08.043s.021.033.021.055zm.189.056l.026-.002.02-.004v.039c-.005.003-.014.005-.024.006l-.029.003c-.064 0-.097-.034-.097-.102V3.84h-.048v-.024l.048-.021.021-.071h.029v.077h.097v.039h-.097v.196c0 .02.005.035.014.046s.023.016.039.016zm.39-.236c.047 0 .083.012.11.035s.04.055.04.095c0 .046-.015.082-.044.108s-.069.039-.121.039a.22.22 0 01-.114-.024v-.049a.225.225 0 00.115.03c.036 0 .063-.008.083-.025s.03-.041.03-.073c0-.062-.038-.093-.114-.093a.443.443 0 00-.077.009l-.026-.017.017-.208h.221v.046h-.178l-.011.133a.326.326 0 01.07-.007zm.826.271v-.216c0-.026-.006-.046-.017-.059s-.029-.02-.053-.02c-.031 0-.055.009-.069.027s-.022.046-.022.083v.186h-.05v-.216c0-.026-.006-.046-.017-.059s-.029-.02-.053-.02c-.032 0-.055.01-.069.029s-.022.05-.022.093v.175h-.05v-.333h.041l.008.046h.002c.01-.016.023-.029.04-.038s.037-.014.058-.014c.052 0 .086.019.102.056h.002c.01-.017.024-.031.043-.041s.04-.015.064-.015c.038 0 .066.01.084.029s.028.05.028.093v.217h-.05zm.442-.166c0 .054-.014.097-.041.127s-.065.046-.113.046c-.03 0-.056-.007-.079-.021s-.041-.034-.053-.06a.204.204 0 01-.019-.092c0-.054.014-.096.041-.127s.065-.046.113-.046c.047 0 .083.015.111.046s.041.073.041.126zm-.254 0c0 .043.009.075.026.097s.042.033.075.033c.033 0 .058-.011.075-.033s.026-.055.026-.097-.009-.074-.026-.096-.042-.033-.076-.033c-.033 0-.058.011-.075.033s-.025.054-.025.097zm.57.166v-.215c0-.027-.006-.047-.019-.061s-.032-.02-.058-.02c-.035 0-.06.009-.077.028s-.024.05-.024.093v.175h-.05V3.8h.041l.008.046h.002c.01-.016.025-.029.043-.038s.039-.014.062-.014c.04 0 .07.01.091.029s.03.05.03.093v.217h-.05zm.262-.035l.026-.002.02-.004v.039c-.005.003-.014.005-.024.006l-.029.003c-.064 0-.097-.034-.097-.102V3.84h-.048v-.024l.048-.021.021-.071h.029v.077h.097v.039h-.097v.196c0 .02.005.035.014.046s.023.016.039.016zm.34.035v-.215c0-.027-.006-.047-.018-.061s-.032-.02-.058-.02c-.035 0-.061.01-.077.029s-.024.05-.024.094v.174h-.05v-.472h.05v.143a.498.498 0 01-.002.043h.003c.01-.016.024-.029.042-.038s.039-.014.063-.014c.041 0 .071.01.091.029s.031.05.031.092v.217h-.05z"/><path fill="var(--color1, #fff)" opacity=".2" d="M8.467 14.729l-.151-.394h-.002c.003.031.004.068.004.111v.282H8.27v-.444h.078l.141.366h.002l.142-.366h.077v.444h-.052v-.286c0-.033.001-.068.004-.107H8.66l-.152.393h-.042zm.562 0l-.01-.047h-.002c-.017.021-.033.035-.05.043s-.037.011-.062.011c-.033 0-.059-.008-.078-.026s-.028-.041-.028-.073c0-.067.054-.102.161-.106l.056-.002v-.021c0-.026-.006-.045-.017-.058s-.029-.019-.054-.019a.22.22 0 00-.094.026l-.015-.039a.24.24 0 01.113-.029c.04 0 .069.009.088.026s.029.046.029.085v.227h-.037zm-.114-.035c.031 0 .056-.009.074-.026s.027-.041.027-.072v-.03l-.05.002c-.04.001-.069.008-.087.019s-.026.028-.026.051c0 .018.005.032.016.042s.027.014.046.014zm.408-.303c.015 0 .028.001.04.004l-.007.047a.18.18 0 00-.036-.005c-.027 0-.05.011-.069.033s-.029.049-.029.082v.179h-.05v-.333h.042l.006.062h.002c.012-.022.027-.038.045-.05s.037-.018.057-.018zM12.914 14.729l-.151-.394h-.002c.003.031.004.068.004.111v.282h-.048v-.444h.078l.141.366h.002l.142-.366h.077v.444h-.052v-.286c0-.033.001-.068.004-.107h-.002l-.152.393h-.042zm.563 0l-.01-.047h-.002c-.017.021-.033.035-.05.043s-.037.011-.062.011c-.033 0-.059-.008-.078-.026s-.028-.041-.028-.073c0-.067.054-.102.161-.106l.056-.002v-.021c0-.026-.006-.045-.017-.058s-.029-.019-.054-.019a.22.22 0 00-.094.026l-.015-.039a.24.24 0 01.113-.029c.04 0 .069.009.088.026s.029.046.029.085v.227h-.037zm-.114-.035c.031 0 .056-.009.074-.026s.027-.041.027-.072v-.03l-.05.002c-.04.001-.069.008-.087.019s-.026.028-.026.051c0 .018.005.032.016.042s.027.014.046.014zm.202-.297h.054l.073.19a.754.754 0 01.03.094h.002l.016-.053.083-.231h.054l-.143.379c-.014.037-.031.064-.05.08s-.042.024-.07.024a.24.24 0 01-.046-.005v-.04a.21.21 0 00.037.004c.035 0 .059-.019.074-.058l.018-.047-.134-.335zM10.855 14.729l-.055-.141h-.178l-.055.141h-.052l.175-.446h.043l.175.446h-.053zm-.072-.187l-.052-.138a.602.602 0 01-.021-.064.55.55 0 01-.019.064l-.052.138h.144zm.333.193c-.022 0-.041-.004-.059-.012s-.033-.02-.045-.037h-.004c.002.019.004.038.004.055v.137h-.05v-.482h.041l.007.046h.002c.013-.018.028-.031.045-.04s.037-.012.059-.012c.044 0 .078.015.102.045s.036.072.036.127c0 .055-.012.097-.037.128s-.058.045-.101.045zm-.007-.302c-.034 0-.059.009-.074.028s-.023.049-.023.09v.011c0 .047.008.08.023.101s.041.03.075.03c.029 0 .051-.012.067-.035s.025-.055.025-.096c0-.042-.008-.073-.025-.095s-.039-.033-.069-.033zm.386-.042c.015 0 .028.001.04.004l-.007.047a.18.18 0 00-.036-.005c-.027 0-.05.011-.069.033s-.029.049-.029.082v.179h-.05v-.333h.042l.006.062h.002c.012-.022.027-.038.045-.05s.037-.018.057-.018zM6.139 14.729h-.052v-.444h.247v.046h-.196v.162h.184v.046h-.184v.19zm.402.006c-.049 0-.088-.015-.117-.045s-.043-.072-.043-.125c0-.054.013-.096.039-.128s.062-.047.107-.047c.042 0 .075.014.099.041s.036.063.036.108v.032h-.229c.001.039.011.069.029.089s.045.03.079.03a.283.283 0 00.106-.022v.045c-.018.008-.035.013-.051.016s-.035.005-.057.005zm-.014-.302c-.027 0-.048.009-.064.026s-.025.041-.028.072h.174c0-.032-.007-.056-.021-.073s-.034-.026-.061-.026zm.378-.042c.044 0 .078.015.102.045s.036.072.036.127c0 .055-.012.097-.037.128s-.058.045-.101.045c-.022 0-.042-.004-.059-.012s-.033-.02-.045-.037h-.004l-.011.043H6.75v-.473h.05v.115l-.002.069H6.8a.12.12 0 01.104-.05zm-.008.042c-.034 0-.059.01-.074.03s-.023.053-.023.1c0 .047.008.08.023.101s.041.03.075.03c.031 0 .054-.011.069-.034s.023-.055.023-.097c0-.043-.008-.076-.023-.097s-.039-.032-.07-.032zM3.862 14.846a.11.11 0 01-.045-.008v-.044a.163.163 0 00.045.006c.02 0 .035-.006.046-.018s.016-.03.016-.053v-.444h.052v.44c0 .038-.01.068-.029.089s-.047.032-.084.032zm.428-.117l-.01-.047h-.002c-.017.021-.033.035-.05.043s-.037.011-.062.011c-.033 0-.059-.008-.078-.026s-.028-.041-.028-.073c0-.067.054-.102.161-.106l.056-.002v-.021c0-.026-.006-.045-.017-.058s-.029-.019-.054-.019a.22.22 0 00-.094.026l-.015-.039a.24.24 0 01.113-.029c.04 0 .069.009.088.026s.029.046.029.085v.227H4.29zm-.113-.035c.031 0 .056-.009.074-.026s.027-.041.027-.072v-.03l-.05.002c-.04.001-.069.008-.087.019s-.026.028-.026.051c0 .018.005.032.016.042s.027.014.046.014zm.483.035v-.215c0-.027-.006-.047-.019-.061s-.032-.02-.058-.02c-.035 0-.06.009-.077.028s-.024.05-.024.093v.175h-.05v-.333h.041l.008.046h.002c.01-.016.025-.029.043-.038s.039-.014.062-.014c.04 0 .07.01.09.029s.03.05.03.093v.217h-.05zM2.385 7.19c.04 0 .073.009.096.028s.036.045.036.078c0 .022-.007.042-.02.06s-.035.034-.065.049c.036.017.062.035.077.054s.023.041.023.066c0 .037-.013.066-.039.088s-.061.033-.106.033c-.047 0-.084-.01-.109-.031s-.038-.05-.038-.088c0-.051.031-.09.093-.119-.028-.016-.048-.033-.06-.051s-.018-.039-.018-.062c0-.032.012-.058.036-.077s.056-.029.096-.029zm-.096.339c0 .024.008.043.025.057s.041.02.071.02c.03 0 .054-.007.07-.021s.025-.034.025-.058c0-.02-.008-.037-.024-.052s-.043-.03-.083-.045c-.03.013-.052.027-.066.043s-.02.034-.02.056zm.095-.298c-.025 0-.045.006-.059.018s-.022.028-.022.049c0 .019.006.035.018.048s.034.027.066.04c.029-.012.049-.025.061-.039s.018-.03.018-.049c0-.02-.007-.037-.022-.049s-.035-.018-.06-.018zm.561.41h-.061l-.162-.215-.046.041v.174h-.052v-.444h.052v.22l.201-.22h.061l-.179.193.185.251zM2.53 12.304h-.292v-.043l.117-.117c.036-.036.059-.062.07-.077s.02-.03.026-.045a.123.123 0 00.009-.047c0-.024-.007-.042-.022-.056s-.034-.021-.06-.021a.16.16 0 00-.108.042l-.027-.034a.204.204 0 01.134-.051c.042 0 .074.011.098.032s.036.05.036.086c0 .028-.008.056-.024.084s-.045.062-.089.104l-.097.095v.002h.228v.047zm.415 0h-.061l-.162-.215-.046.041v.174h-.052v-.444h.052v.22l.201-.22h.061l-.179.193.185.251zM2.914 13.636c0 .077-.012.134-.036.172s-.061.057-.111.057c-.048 0-.084-.019-.109-.058s-.037-.096-.037-.171c0-.077.012-.135.036-.172s.061-.056.11-.056c.048 0 .085.02.11.059s.038.096.038.17zm-.243 0c0 .065.008.112.023.141s.039.044.073.044c.034 0 .058-.015.073-.045s.023-.077.023-.141c0-.064-.008-.11-.023-.14s-.039-.045-.073-.045c-.033 0-.057.015-.073.044s-.023.076-.023.141zM2.243 9.005c0-.087.017-.152.051-.196s.084-.065.151-.065c.023 0 .041.002.054.006v.043a.174.174 0 00-.053-.008c-.048 0-.084.015-.109.045s-.039.076-.041.14H2.3c.022-.035.057-.052.106-.052.04 0 .071.012.094.036s.035.057.035.098c0 .046-.013.082-.038.109s-.059.039-.102.039c-.046 0-.082-.017-.109-.052s-.04-.083-.04-.144zm.149.153c.029 0 .051-.009.067-.027s.024-.044.024-.079c0-.029-.007-.052-.022-.069s-.037-.025-.066-.025c-.018 0-.035.004-.05.011s-.027.018-.036.031a.071.071 0 00-.013.041c0 .021.004.04.012.058s.02.032.034.043a.084.084 0 00.051.016zm.553.037h-.061l-.162-.215-.046.041v.174h-.052v-.444h.052v.22l.201-.22h.061l-.179.193.185.251zM2.069 6.086H2.02V5.77l.002-.075-.014.013-.072.059-.027-.035.117-.091h.042v.444zm.463-.222c0 .077-.012.134-.036.172s-.061.057-.111.057c-.048 0-.084-.019-.109-.058s-.037-.096-.037-.171c0-.077.012-.135.036-.172s.061-.056.11-.056c.048 0 .085.02.11.059s.038.096.038.17zm-.243 0c0 .065.008.112.023.141s.039.044.073.044c.034 0 .058-.015.073-.045s.023-.077.023-.141-.008-.11-.023-.14c-.015-.03-.039-.045-.073-.045s-.057.015-.073.044a.324.324 0 00-.023.141zm.656.222h-.061l-.162-.215-.046.041v.174h-.052v-.444h.052v.22l.201-.22h.061l-.179.193.185.251zM2.551 10.648h-.066v.102h-.048v-.102h-.216v-.044l.211-.3h.053v.298h.066v.046zm-.115-.046v-.148l.003-.098h-.002a.593.593 0 01-.027.048l-.139.197h.165zm.509.148h-.061l-.162-.215-.046.041v.174h-.052v-.444h.052v.22l.201-.22h.061l-.179.193.185.251z"/><path fill="var(--color11, #8476aa)" d="M8.604 10.248a.187.187 0 01.374 0v3.607h-.373v-3.607z"/><path fill="var(--color9, #99efd0)" d="M9.113 11.304a.174.174 0 01.348 0v2.539h-.348v-2.539z"/><path fill="var(--color11, #8476aa)" d="M6.365 9.191a.187.187 0 11.374 0v4.664h-.373V9.191z"/><path fill="var(--color9, #99efd0)" d="M6.887 10.609a.174.174 0 01.348 0v3.235h-.348v-3.235z"/><path fill="var(--color11, #8476aa)" d="M13.081 6.579a.187.187 0 01.374 0v7.275h-.373V6.579z"/><path fill="var(--color9, #99efd0)" d="M13.565 8.73a.174.174 0 01.348 0v5.113h-.348V8.73z"/><path fill="var(--color11, #8476aa)" d="M4.127 11.678a.187.187 0 01.374 0v2.176h-.373v-2.176z"/><path fill="var(--color9, #99efd0)" d="M4.591 12.383a.209.209 0 11.418 0v1.461h-.417v-1.461z"/><path fill="var(--color11, #8476aa)" d="M10.842 7.388a.187.187 0 01.374 0v6.467h-.373V7.388z"/><path fill="var(--color9, #99efd0)" d="M11.339 9.287a.174.174 0 01.348 0v4.557h-.348V9.287z"/><path fill="var(--color3, #13c296)" d="M10.594 22.125h4.975c.343 0 .622.278.622.622V27.1a.622.622 0 01-.622.622h-4.975a.622.622 0 01-.622-.622v-4.353c0-.343.278-.622.622-.622z"/><path fill="none" stroke="var(--color1, #fff)" stroke-linejoin="round" stroke-linecap="round" stroke-width=".373" d="M11.651 25.64l1.099-.971.527.554 1.216-1.046h-.695"/></symbol><symbol id="icon-technologies-1" viewBox="0 0 145 32"><path d="M20.17 17.772c-.049.059-.096.119-.148.175l-.001.011-4.902 5.483-.007-.002a3.517 3.517 0 01-1.117.845l-.021.009c-.394.189-.857.3-1.345.3H7.804a.662.662 0 00-.282.063l.004-.002a.746.746 0 00-.237.175l-.001.001a.84.84 0 00-.156.259l-.002.006a.88.88 0 00-.055.31v4.819H7.06a1.037 1.037 0 01-.202.482l.002-.002a.882.882 0 01-.388.291l-.006.002a.77.77 0 01-.479.018l.006.001a.863.863 0 01-.413-.258l-.001-.001-.002.002-4.446-4.969.004-.009a3.956 3.956 0 01-.787-1.262l-.009-.027a4.23 4.23 0 01-.279-1.527V10.524a4.16 4.16 0 01.978-2.714l-.002-.006 5.042-5.637c.654-.718 1.534-1.12 2.449-1.119h4.102c.523 0 1.018.132 1.462.362v-.011c.382.198.726.464 1.017.791l.006-.004 5.982 6.69.001 7.849h7.001v12.196c.002.007.002.015.002.022v.276a2.054 2.054 0 01-.555 1.298l.001-.001a1.656 1.656 0 01-1.194.527h-3.508a1.61 1.61 0 01-.705-.165 1.777 1.777 0 01-.582-.465l-.003-.003a1.998 1.998 0 01-.365-.677l-.004-.014a2.135 2.135 0 01-.089-.805v.007-12.196l-.926 1.041zm-6.809-1.031h.001a.67.67 0 00.283-.063l-.004.002a.744.744 0 00.236-.176l.001-.001a.825.825 0 00.156-.258l.002-.006a.88.88 0 00.055-.31V9.716v-.001a.904.904 0 00-.057-.317l.002.006a.821.821 0 00-.158-.264l.001.001a.725.725 0 00-.232-.175l-.004-.002a.648.648 0 00-.278-.062H7.806a.688.688 0 00-.514.237l-.001.001a.862.862 0 00-.214.57v6.215c0 .45.326.814.729.814l5.559.002z"/><path d="M21.1 16.74h6.999L21.1 8.894v7.845zm16.923-9.15h6.479c2.646 0 4.994 0 6.409 2.271.617 1.022.913 2.474.913 3.698 0 .994-.183 1.966-.548 2.806-1.391 3.215-4.357 3.292-6.548 3.342h-2.667V25.6h-4.038V7.591zm4.04 3.317v5.458h2.421c1.506 0 3.333-.049 3.333-2.831 0-2.629-2.032-2.629-3.196-2.629h-2.558zm14.599 2.752c.775-.741 1.62-1.327 3.444-1.531v3.471l-1.163.202c-1.686.332-2.191.613-2.191 2.297v7.5h-3.511V12.256h3.422v1.403zm17.152 5.252c0 3.369-1.733 7.067-6.388 7.067-3.353 0-6.409-2.143-6.409-7.067 0-4.081 2.303-7.322 6.866-7.04 4.858.306 5.93 4.618 5.93 7.04zm-8.668-2.625c-.433.766-.592 1.686-.592 2.606 0 2.121.911 3.985 2.873 3.985 1.895 0 2.83-1.711 2.83-3.806 0-1.482-.32-2.631-.981-3.348-.73-.766-1.551-.791-2.053-.74-1.004.076-1.596.459-2.075 1.302zm11.52-5.336c0-.662.046-1.557.502-2.271.433-.663 1.414-1.353 3.057-1.353.706 0 1.415.128 2.097.229v2.935h-.843c-1.323 0-1.391.306-1.369 2.092h2.35v2.398h-2.326v10.613h-3.49V14.98h-1.871v-2.399h1.894v-1.632zm7.549-.347h3.466V7.567h-3.466v3.036zm0 15.001h3.466V12.262h-3.466v13.342zm7.048-17.179h3.49v4.158h2.304v2.398h-2.326v5.996c-.023.816-.023 1.505.912 1.505l1.255-.052v3.061c-.753.128-1.21.206-1.847.206-1.211 0-2.533-.078-3.286-1.302-.479-.79-.501-1.734-.501-3.009v-6.431H89.53v-2.398h1.733V8.425zm18.973-.835c.48 1.938.958 3.878 1.481 5.818.891 3.468 1.051 4.03 1.553 7.525.478-3.572.592-4.183 1.322-7.857.342-1.838.706-3.674 1.05-5.486h3.991l-4.082 18.011h-4.154c-.501-1.989-.981-3.98-1.505-5.945-.866-3.316-.913-3.444-1.392-5.969-.41 2.22-.455 2.399-1.369 5.842L105.58 25.6h-4.151L97.348 7.589h4.015c1.734 8.546 1.918 9.489 2.395 13.393.592-3.57.753-4.26 1.596-7.831l1.323-5.562h3.559zm21.19 14.62c-.411.689-.822 1.353-1.438 1.99a6.156 6.156 0 01-4.444 1.888h-.052.003c-3.536 0-6.022-2.526-6.022-6.889 0-3.212 1.414-7.346 6.113-7.346.708 0 2.759.076 4.288 1.914 1.552 1.862 1.642 4.464 1.689 5.969h-8.508c-.023 1.657.821 3.317 2.715 3.317 1.915 0 2.576-1.403 3.01-2.348l2.646 1.505zm-3.491-4.935c-.068-.559-.159-1.295-.661-1.878-.434-.484-1.093-.738-1.711-.738-.843 0-1.436.458-1.778.865-.48.585-.593 1.194-.708 1.753h4.858zm5.661 8.325h3.513V7.591h-3.513v18.011zm6.653 0h3.513V7.591h-3.513v18.011z"/></symbol><symbol id="icon-technologies-2" viewBox="0 0 145 32"><path d="M10.985 17.43l8.549 13.5c.193.291.52.481.89.481l.045-.001h-.002 3.183c.447 0 .829-.275.988-.665l.003-.007c.051-.121.08-.262.08-.41v-.011.001-28.59A1.109 1.109 0 0023.99.697l-.008-.002a1.084 1.084 0 00-1.211.352l-.002.002-11.783 15.07a1.193 1.193 0 00.002 1.316l-.003-.004zm-9.61 13.976h5.654c.447 0 .83-.275.99-.665l.003-.007c.051-.121.08-.262.08-.41v-.012.001-7.249a1.113 1.113 0 00-.733-1.028l-.008-.002a1.086 1.086 0 00-1.211.351l-.002.002-5.639 7.249a1.116 1.116 0 00.293 1.596l.004.003c.162.105.359.169.57.172h.001zm100.731-16.301a1.983 1.983 0 00-.208-.22l-.002-.001-.118-.101-.059-.052a5.04 5.04 0 00-.845-.582l-.026-.013a5.527 5.527 0 00-1.02-.487l-.04-.012a6.696 6.696 0 00-1.121-.304l-.043-.007a6.562 6.562 0 00-1.196-.106c-.667 0-1.312.096-1.921.276l.048-.012a7.491 7.491 0 00-1.707.727 7.184 7.184 0 00-1.446 1.125 8.118 8.118 0 00-1.132 1.452 6.543 6.543 0 00-.745 1.705c-.168.57-.264 1.225-.264 1.903s.096 1.333.276 1.952l-.012-.049a6.85 6.85 0 00.745 1.702 8.129 8.129 0 001.132 1.452c.436.437.923.816 1.451 1.127a8.366 8.366 0 001.698.726 6.564 6.564 0 003.156.156c.402-.066.798-.18 1.175-.337a7.677 7.677 0 001.049-.527c.334-.201.656-.422.962-.663.089-.078.172-.16.249-.25l.039-.044a.88.88 0 00.162-.294l.002-.006.015-.09.001-.04a.749.749 0 00-.1-.376l.002.004-.034-.055a.874.874 0 00-.093-.126l.001.001-.091-.124c-.185-.25-.357-.5-.543-.73a.795.795 0 00-.283-.207l-.005-.002a.514.514 0 00-.344.001l.004-.001a1.46 1.46 0 00-.425.292l-.162.139c-.162.135-.249.223-.475.383a3.46 3.46 0 01-.632.388l-.021.009a3.149 3.149 0 01-.793.281 4.296 4.296 0 01-2.693-.286 4.898 4.898 0 01-2.458-2.5l-.012-.032c-.244-.537-.387-1.164-.387-1.824s.142-1.288.398-1.852l-.011.028a5.078 5.078 0 011.012-1.53 5.34 5.34 0 011.43-1.031l.031-.014a3.88 3.88 0 011.701-.386c.29 0 .573.031.845.091l-.026-.005c.283.066.562.155.833.266.258.111.506.24.743.389.496.295 1.056 1.141 1.6.47l.786-1.065a.464.464 0 00.082-.359v.003a.703.703 0 00-.137-.345l.001.002zM53.744 26.438L45.145 6.711a.792.792 0 00-.723-.5h-1.384a.774.774 0 00-.715.477l-.002.005-8.622 19.722a.766.766 0 00.052.767l-.002-.003a.777.777 0 00.661.369h1.295c.32 0 .593-.197.706-.476l.002-.005 2.068-4.868h10.454l2.055 4.868a.794.794 0 00.727.5h1.241a.769.769 0 00.668-.31l.001-.002a.803.803 0 00.114-.822l.002.005zm-14.161-6.749l.036-.078 4.144-9.723 4.156 9.801h-8.336zm92.912-1.496a7.377 7.377 0 00-1.008-2.167l.016.025a7.247 7.247 0 00-1.111-1.19l-.01-.008a5.019 5.019 0 00-1.3-.846l-.032-.013c-.425-.22-.92-.41-1.438-.544l-.05-.011a6.741 6.741 0 00-3.539.078l.048-.012a6.58 6.58 0 00-1.662.726 7.742 7.742 0 00-1.412 1.135 6.29 6.29 0 00-1.051 1.455 7.154 7.154 0 00-.666 1.672l-.011.051a6.853 6.853 0 00-.148 2.979l-.006-.04a7.304 7.304 0 001.226 3.305l-.016-.025c.327.441.703.841 1.121 1.194.398.357.848.647 1.334.864.474.239.974.425 1.488.551a6.783 6.783 0 005.151-.791 7.89 7.89 0 001.411-1.131l.001-.001a5.87 5.87 0 001.014-1.406l.022-.049a.451.451 0 00.038-.481l.001.003a.367.367 0 00-.315-.194h-2.069a.562.562 0 00-.44.212l-.001.001a4.313 4.313 0 01-.897.825 4.471 4.471 0 01-2.43.709 4.517 4.517 0 01-1.545-.271l.031.01a5.031 5.031 0 01-1.341-.74l.012.009a3.809 3.809 0 01-.95-1.128l-.01-.019a5.988 5.988 0 01-.438-1.464l-.005-.036-.012-.064h.069l10.565-.023c.433 0 .679-.271.679-.751a7.273 7.273 0 00-.329-2.448l.014.052zm-2.249.943l-8.55.039.022-.073c.155-.522.371-.978.645-1.392l-.012.019a4.82 4.82 0 011.265-1.278 4.475 4.475 0 012.438-.715 4.5 4.5 0 011.546.272l-.031-.01c.478.175.926.421 1.329.731.395.315.722.708.962 1.154.209.368.359.767.444 1.182l.015.069h-.074zm-61.323 6.299c.426-.439.8-.927 1.113-1.452.311-.54.554-1.119.722-1.719.167-.57.262-1.224.262-1.902s-.096-1.332-.275-1.951l.012.05a7.282 7.282 0 00-3.254-4.287l-.033-.018a7.543 7.543 0 00-1.684-.726 6.616 6.616 0 00-1.895-.271c-.975 0-1.901.206-2.738.577l.043-.017a7.39 7.39 0 00-1.695 1.078l-.091.078v-.77a.643.643 0 00-.417-.673l-.004-.001a.624.624 0 00-.283-.03h.003-1.082a.646.646 0 00-.721.708v-.003V30.72c0 .281.168.523.409.63l.004.002a.66.66 0 00.266.055h1.126a.736.736 0 00.504-.198.68.68 0 00.196-.479v-.023.001-4.849l.091.078c.507.43 1.071.785 1.674 1.057.794.354 1.72.56 2.694.56.675 0 1.327-.099 1.942-.283l-.048.012a7.425 7.425 0 001.707-.726 7.163 7.163 0 001.451-1.12zm-3.281-.694c-.514.247-1.117.391-1.754.391s-1.24-.144-1.779-.402l.025.011a4.505 4.505 0 01-1.453-1.056l-.003-.003a5.054 5.054 0 01-.98-1.496l-.012-.033c-.228-.534-.361-1.156-.361-1.809s.133-1.274.373-1.839l-.012.031c.24-.555.576-1.063.992-1.5a4.85 4.85 0 011.456-1.04c.514-.246 1.116-.39 1.753-.39s1.239.144 1.778.401l-.025-.011a4.902 4.902 0 011.435 1.038c.41.438.738.946.972 1.502.229.534.363 1.155.363 1.807s-.133 1.273-.374 1.837l.012-.031a5.552 5.552 0 01-.979 1.54l.004-.005c-.404.443-.89.802-1.43 1.058zm10.093-11.323h-1.081a.644.644 0 00-.687.425l-.001.005a.658.658 0 00-.033.29v-.003 16.587a.67.67 0 00.672.682h1.131a.736.736 0 00.504-.198.666.666 0 00.197-.475l-.001-.026v.001-4.849l.091.078c.507.43 1.071.785 1.678 1.057.793.354 1.719.56 2.693.56.675 0 1.327-.099 1.942-.283l-.048.012a7.367 7.367 0 001.74-.745l-.034.019a7.365 7.365 0 001.452-1.132 8.004 8.004 0 001.11-1.454c.31-.542.554-1.119.722-1.719.168-.57.264-1.224.264-1.902s-.096-1.332-.276-1.951l.012.049a7.263 7.263 0 00-3.251-4.287l-.033-.018a7.47 7.47 0 00-1.632-.712l-.055-.014a6.616 6.616 0 00-1.895-.271c-.975 0-1.901.206-2.739.577l.043-.017a7.31 7.31 0 00-1.695 1.077l-.098.103v-.751a.643.643 0 00-.408-.68l-.004-.002a.607.607 0 00-.283-.036h.003zm.978 5.135c.24-.554.576-1.062.992-1.499a4.86 4.86 0 011.422-1.037l.029-.013c.514-.246 1.116-.39 1.753-.39s1.239.144 1.778.4l-.025-.011a4.925 4.925 0 011.455 1.04c.41.437.738.945.972 1.499.231.534.365 1.155.365 1.807s-.134 1.274-.376 1.838l.012-.03a5.332 5.332 0 01-.975 1.538c-.405.442-.891.8-1.43 1.057-.514.246-1.118.39-1.755.39s-1.241-.144-1.78-.401l.025.011a4.529 4.529 0 01-1.449-1.056l-.003-.003a5.037 5.037 0 01-.981-1.496l-.012-.033a4.638 4.638 0 01-.367-1.824c0-.645.13-1.26.364-1.819l-.012.031zm39.644-4.622a.652.652 0 00-.191-.53.637.637 0 00-.535-.176h.003-1.088a.628.628 0 00-.669.417l-.001.004c-.031.091-.042.187-.031.283v7.954a2.99 2.99 0 01-.293 1.348 2.886 2.886 0 01-.743.999 3.6 3.6 0 01-1.035.603 3.208 3.208 0 01-1.149.208 3.264 3.264 0 01-1.479-.352l.019.009a2.814 2.814 0 01-.961-.827l-.005-.008a2.929 2.929 0 01-.525-1.105l-.004-.02a5.388 5.388 0 01-.164-1.267V14.132a1.249 1.249 0 00-.163-.693l.003.006a.833.833 0 00-.692-.249h.004-.784l-.029-.001a.85.85 0 00-.603.25.972.972 0 00-.247.726v-.003 7.323l-.001.087c0 .811.129 1.591.367 2.323l-.015-.053a5.889 5.889 0 001.065 1.94 4.844 4.844 0 001.735 1.3 6.244 6.244 0 002.416.477 6.43 6.43 0 001.296-.132l-.041.007c.332-.08.657-.192.969-.332.292-.135.561-.315.801-.529l.172-.16.094-.094V26.902c0 .166.066.317.173.427a.67.67 0 00.522.25l.028-.001h-.001 1.116a.658.658 0 00.469-.195.598.598 0 00.198-.503v.002-12.953zm27.685 7.785a3.678 3.678 0 00-.966-1.246l-.006-.005a5.863 5.863 0 00-1.449-.878l-.039-.014a9.894 9.894 0 00-1.811-.572l-.068-.012a6.394 6.394 0 01-.966-.299l.045.016a3.48 3.48 0 01-.781-.402l.012.008a1.756 1.756 0 01-.711-.838l-.004-.012a1.344 1.344 0 01.002-.806l-.003.009c.087-.293.454-1.098 1.873-1.188 1.356-.085 2.038.633 2.273.953.036.046.368.478.606.751a.732.732 0 00.142.098.623.623 0 00.595-.077l-.002.001.828-.62a.607.607 0 00.294-.521V16.032a1.392 1.392 0 00-.192-.458l.003.005a10.77 10.77 0 00-.804-1.025l.01.011a3.983 3.983 0 00-.862-.764l-.015-.009a3.949 3.949 0 00-1.072-.471l-.028-.007a5.764 5.764 0 00-1.457-.183c-.679 0-1.331.115-1.938.326l.041-.013a4.144 4.144 0 00-1.494.817l.006-.005c-.41.345-.74.772-.965 1.258l-.009.022a3.907 3.907 0 00-.352 1.632c0 .553.113 1.079.318 1.556l-.01-.026c.203.455.505.859.88 1.184.387.335.822.632 1.29.875l.037.018a9.673 9.673 0 001.666.619l.071.016c.176.041.352.087.535.138.183.049.362.098.543.14.321.078.633.193.926.345.247.119.466.289.642.5a1.341 1.341 0 01-.029 1.552l.003-.004c-.181.233-.402.43-.655.578a3.153 3.153 0 01-.826.341c-.49.111-.998.111-1.488 0a3.766 3.766 0 01-.764-.29l.021.01a3.211 3.211 0 01-.672-.452l.004.003a3.642 3.642 0 01-.469-.662l-.01-.019a1.073 1.073 0 00-.275-.378l-.001-.001a.614.614 0 00-.69-.076l.003-.002-.992.473a.648.648 0 00-.353.333l-.002.004a.55.55 0 00-.024.316l-.001-.004c.011.112.038.215.08.31l-.003-.006c.171.454.415.876.721 1.25.34.409.754.748 1.22 1.001.404.247.873.441 1.373.556l.032.006a6.53 6.53 0 003.442-.111 4.64 4.64 0 001.633-.837l-.009.007a3.637 3.637 0 001.089-1.345 4.007 4.007 0 00.375-1.686v-.019a3.98 3.98 0 00-.376-1.694l.01.024z"/></symbol><symbol id="icon-technologies-3" viewBox="0 0 114 32"><path d="M27.993 8.33l-.002-.002-.004-.006c-.036-.06-.07-.11-.105-.159l.004.006-.03-.038a1.572 1.572 0 00-.091-.112l.002.002-.054-.058a2.806 2.806 0 00-.148-.141l-.003-.003a2.513 2.513 0 00-.152-.117l-.008-.006-.069-.047a2.211 2.211 0 00-.262-.14l-.014-.006a1.18 1.18 0 00-.173-.068l-.016-.005-.068-.021a1.324 1.324 0 00-.124-.033l-.013-.003-.049-.01a2.05 2.05 0 00-.163-.025l-.01-.001-.018-.002a2.067 2.067 0 00-1.241.261l.01-.005-10.801 6.111-7.724-4.369 7.73-4.374 5.154 2.913c.98.554 2.233.225 2.799-.735s.23-2.187-.751-2.741L15.423.903a2.08 2.08 0 00-2.058.005l.01-.005-11.78 6.665a1.984 1.984 0 00-.062 3.495l.01.005 11.829 6.692c.062.034.126.065.191.092.018.007.036.018.053.025.039.016.081.027.121.041.214.07.433.11.652.11h.004c.224 0 .448-.041.667-.114.034-.012.07-.021.105-.034.021-.009.041-.02.062-.03.062-.027.123-.055.185-.089l.005-.002 8.756-4.953v8.747l-9.777 5.53-9.776-5.53v-5.53c0-1.108-.918-2.006-2.048-2.006-1.132 0-2.049.898-2.049 2.006v6.688a2 2 0 001.024 1.738l11.825 6.689c.294.169.648.269 1.024.269s.729-.1 1.034-.275l-.01.005 11.825-6.689a2 2 0 001.024-1.738V9.332c0-.366-.101-.708-.276-1.003zM38.89 19.557a8.247 8.247 0 002.082.987c.622.2 1.338.317 2.081.32h.002c.683 0 1.236-.156 1.655-.47.42-.315.63-.721.63-1.222a1.13 1.13 0 00-.502-.975 5.395 5.395 0 00-1.222-.62l-.038-.012a54.985 54.985 0 00-1.633-.569 7.279 7.279 0 01-1.663-.789l.029.017a4.087 4.087 0 01-1.25-1.258l-.01-.017c-.334-.529-.501-1.221-.501-2.078 0-.657.135-1.258.406-1.801s.647-1.01 1.131-1.403a5.22 5.22 0 011.703-.901l.037-.01a7.205 7.205 0 012.152-.322h.084-.004c1.47 0 2.873.291 4.152.819l-.072-.026v3.129a8.032 8.032 0 00-1.864-.81l-.058-.015a6.863 6.863 0 00-1.899-.268h-.001c-.655 0-1.185.143-1.591.428s-.609.665-.609 1.136c0 .4.167.714.502.943s.751.431 1.249.61c.498.178 1.044.364 1.634.558.591.192 1.135.453 1.633.782s.914.761 1.249 1.297c.335.535.502 1.239.502 2.111 0 .671-.139 1.289-.416 1.854a4.325 4.325 0 01-1.145 1.44l-.008.006c-.492.4-1.079.71-1.762.932s-1.43.332-2.242.332c-1.494 0-2.969-.321-4.421-.964v-3.173zM49.922 8.03h3.482v5.442c.926-.672 1.9-1.007 2.926-1.007.555 0 1.068.096 1.538.289.469.193.874.464 1.216.814.342.351.609.768.801 1.254s.288 1.014.288 1.585v7.029h-3.481v-6.385c0-.443-.139-.807-.416-1.093a1.407 1.407 0 00-1.013-.429l-.048.001h.002c-.64 0-1.246.286-1.814.857v7.05h-3.482V8.03zm11.674 4.692h3.481v10.714h-3.481V12.722zm-.171-2.85c0-.571.178-1.033.534-1.382.357-.35.818-.526 1.388-.526.542 0 .993.176 1.356.526s.544.811.544 1.382c0 .543-.181.993-.544 1.35s-.816.535-1.356.535c-.57 0-1.033-.178-1.388-.535-.357-.357-.534-.807-.534-1.35zm12.443 8.207c0-.785-.197-1.418-.588-1.895a1.878 1.878 0 00-1.479-.719l-.049.001h.002c-.628 0-1.189.25-1.687.751v3.729c.498.498 1.061.75 1.686.75a1.87 1.87 0 001.527-.729c.393-.486.588-1.115.588-1.887zm-7.283-5.357h3.482v.578c.812-.558 1.644-.837 2.498-.837h.057c1.374 0 2.606.608 3.441 1.57l.005.006c.427.492.758 1.083.993 1.769.234.686.352 1.442.352 2.271 0 .83-.117 1.586-.352 2.272a5.293 5.293 0 01-.999 1.775l.006-.007a4.56 4.56 0 01-3.455 1.576h-.05.003c-.854 0-1.686-.278-2.498-.836v5.271h-3.482V12.723zm15.475 7.972h2.284c.542 0 .986-.161 1.335-.482.348-.321.523-.732.523-1.232 0-.501-.175-.911-.523-1.232-.35-.322-.794-.482-1.335-.482H82.06v3.429zm0-6.086h1.985c.498 0 .912-.15 1.239-.45s.492-.678.492-1.136c0-.471-.165-.853-.492-1.146s-.741-.439-1.239-.439H82.06v3.172zm-3.397-5.915h6.046c.655 0 1.252.101 1.793.3.542.201 1.01.48 1.409.837s.709.778.929 1.263c.222.486.332 1.015.332 1.586 0 .729-.172 1.378-.514 1.95a3.103 3.103 0 01-1.408 1.265c.768.286 1.362.731 1.782 1.339.395.567.631 1.271.631 2.03l-.001.062v-.003c0 .601-.114 1.154-.342 1.662a3.87 3.87 0 01-.947 1.304l-.004.003a4.304 4.304 0 01-1.452.846 5.362 5.362 0 01-1.79.301h-.059.003-6.407V8.695zm11.418 9.386c0-.828.143-1.585.427-2.271a5.198 5.198 0 011.195-1.767l.001-.001a5.552 5.552 0 011.789-1.144l.038-.013a6.256 6.256 0 012.316-.418c.841 0 1.612.14 2.318.418a5.456 5.456 0 011.817 1.158l-.002-.002c.505.492.9 1.083 1.185 1.769.284.686.427 1.442.427 2.271 0 .815-.143 1.568-.427 2.261a5.255 5.255 0 01-1.185 1.778l-.001.001a5.422 5.422 0 01-1.779 1.144l-.037.013c-.704.279-1.477.418-2.318.418a6.236 6.236 0 01-2.316-.418 5.571 5.571 0 01-1.829-1.159l.002.002a5.144 5.144 0 01-1.196-1.778 5.786 5.786 0 01-.427-2.201v-.063.003zm3.567 0c0 .815.203 1.468.609 1.961.406.494.935.74 1.59.74.64 0 1.168-.246 1.582-.738.412-.492.619-1.147.619-1.962 0-.814-.207-1.467-.619-1.961a1.975 1.975 0 00-1.582-.738c-.655 0-1.185.246-1.59.738-.406.492-.609 1.147-.609 1.961zm16.073 0c0-.785-.196-1.418-.587-1.895a1.876 1.876 0 00-1.478-.719l-.051.001h.002c-.628 0-1.189.25-1.687.751v3.729c.498.498 1.06.75 1.686.75.628 0 1.136-.244 1.526-.729.394-.486.588-1.115.588-1.887zM102.438 8.03h3.482v5.271c.811-.558 1.644-.837 2.498-.837h.056c1.374 0 2.606.608 3.442 1.57l.005.006c.427.492.758 1.083.992 1.769.235.686.353 1.442.353 2.271 0 .83-.118 1.586-.353 2.272a5.291 5.291 0 01-.998 1.775l.006-.007a4.56 4.56 0 01-3.454 1.576h-.051.003c-.854 0-1.687-.278-2.498-.836v.578h-3.483V8.031z"/></symbol><symbol id="icon-technologies-4" viewBox="0 0 130 32"><path d="M119.082 21.963c-5.735 0-10.4-4.66-10.4-10.386V1.192h20.799v10.385c0 5.727-4.666 10.386-10.4 10.386zM110.57 3.079v8.497c0 4.686 3.818 8.498 8.511 8.498 4.69 0 8.508-3.813 8.508-8.498V3.079h-17.018z"/><path d="M123.808 7.486h-9.454v1.888h1.292l-.655 5.233h1.905l.656-5.233h3.056l.656 5.233h1.905l-.655-5.233h1.292V7.486zM11.906 4.313c5.579 0 8.554 2.599 8.554 6.314 0 2.97-2.231 5.199-5.206 6.016v.074c4.649 1.152 6.322 3.863 6.322 6.722 0 4.086-2.976 6.871-8.554 6.871H.75v-.742c2.233 0 2.233 0 2.233-2.415V7.468c0-2.414 0-2.414-2.233-2.414v-.743h11.157zM9.675 16.566c3.348 0 4.649-2.228 4.649-5.756 0-3.157-1.301-5.756-3.532-5.756H8.934v11.513h.742zm-.743.744v12.257h2.603c2.975 0 3.905-2.972 3.905-6.314 0-3.343-1.674-5.943-5.022-5.943H8.932zm14.13 3.901c0-6.314 5.206-9.842 9.855-9.842 4.277 0 8.144 1.856 7.028 8.17H28.938c0 5.014 2.863 6.871 5.653 6.871 3.348 0 4.834-1.857 5.579-3.157h.372c-.743 3.713-3.348 7.428-7.996 7.428-6.137 0-9.484-4.455-9.484-9.47zm5.876-2.415h5.467c.633-2.526 1.153-6.686-1.674-6.686-2.119 0-3.644 1.969-3.793 6.686zm26.849-2.229c0-1.67-1.115-2.228-2.231-2.228-1.152 0-2.417.558-3.718 1.671v11.141c0 2.415 0 2.415 2.231 2.415v.743H41.655v-.743c2.231 0 2.231 0 2.231-2.415V15.453c0-1.856 0-1.856-1.86-1.856v-.558l7.623-1.671h.298l-.111 3.899h.074c1.413-2.414 4.091-3.899 6.806-3.899 2.491 0 5.022 1.486 5.022 5.572v10.213c0 2.415 0 2.415 2.23 2.415v.743h-9.669v-.743c1.487 0 1.487 0 1.487-2.415V16.568zm20.453 9.844c3.348 0 4.834-1.858 5.578-3.158h.373c-.745 3.714-3.348 7.428-7.996 7.428-6.137 0-9.483-4.455-9.483-9.47 0-6.314 5.206-9.842 9.855-9.842s7.104 2.265 7.104 4.642c0 1.3-.594 2.599-2.826 2.599-1.86 0-2.27-1.151-2.233-1.931.187-2.711 0-4.569-2.231-4.569-2.602 0-3.793 3.455-3.793 7.762 0 4.866 2.864 6.538 5.653 6.538zm21.198-9.844c0-1.67-1.116-2.228-2.233-2.228-1.152 0-2.417.558-3.718 1.671v11.141c0 2.415 0 2.415 2.231 2.415v.743H83.306v-.743c2.231 0 2.231 0 2.231-2.415V5.797c0-1.858 0-1.858-1.86-1.858v-.555l7.513-1.671h.297v13.556h.074c1.414-2.414 4.091-3.899 6.806-3.899 2.492 0 5.022 1.486 5.022 5.572v10.213c0 2.415 0 2.415 2.233 2.415v.743h-9.671v-.743c1.488 0 1.488 0 1.488-2.415V16.57z"/></symbol><symbol id="icon-technologies-5" viewBox="0 0 69 32"><path d="M12.288 13.986a.837.837 0 00-.817-.171l.006-.002-7.669 2.42L14.767 5.751a.847.847 0 00-.021-1.244l-.001-.001L10.653.851a.845.845 0 00-1.287.193l-.002.004L.457 16.004a.652.652 0 00.126.821l.001.001 1.735 1.552c.213.191.508.26.784.183l6.213-1.732-7.151 11.237c-.345.543.369 1.132.834.686L14.946 17.3a.65.65 0 00-.017-.955l-.001-.001-2.641-2.357zm55.777-1.602l-1.186-1.058a.392.392 0 00-.626.153l-.001.003-2.439 6.582c-1.169 3.153-2.555 4.234-3.424 4.234-.277 0-.672-.203-.672-.874 0-.23.039-.714.322-1.477l2.325-6.266a1.183 1.183 0 00-.321-1.295l-.001-.001-1.186-1.058a.392.392 0 00-.627.152l-.001.003-2.439 6.582c-1.168 3.153-2.554 4.234-3.422 4.234-.278 0-.673-.203-.673-.874 0-.23.041-.714.322-1.477l5.076-13.702a1.182 1.182 0 00-.32-1.295l-.001-.001-1.188-1.058a.392.392 0 00-.627.154l-.001.003-5.194 14.018c-.369.994-.542 2.006-.542 2.597 0 1.994 1.345 3.138 2.795 3.138 1.088 0 2.288-.695 3.375-2.127.373 1.358 1.471 2.127 2.65 2.127.656 0 1.355-.256 2.047-.77l-1.71 4.607a7.688 7.688 0 00-3.34-.751 7.8 7.8 0 00-2.365.365l.055-.015c-.229.069-.182.401.053.425 2.431.229 4.431 1.28 5.908 3.254a.797.797 0 001.383-.196l.002-.005 6.314-17.03a1.182 1.182 0 00-.319-1.297l-.001-.001zm-25.463 9.903c-.476 0-.832-.468-.832-1.164 0-.234.074-.788.358-1.566 1.632-4.256 3.852-6.566 4.847-6.566.658 0 .758.684.758 1.499 0 3.323-2.962 7.794-5.132 7.794v.002zm5.281-11.283c-1.174 0-2.266.674-3.243 1.705l2.492-6.78a1.211 1.211 0 00-.324-1.32l-.001-.001-1.201-1.079a.39.39 0 00-.631.157l-.001.003-5.244 14.282c-.373 1.015-.546 2.047-.546 2.646 0 1.935 1.354 3.2 3.195 3.2 4.345 0 8.265-5.152 8.265-9.306-.002-2.034-.982-3.508-2.758-3.508zm-16.38 11.283c-.478 0-.833-.468-.833-1.164 0-.234.074-.788.359-1.566 1.633-4.256 3.856-6.566 4.853-6.566.658 0 .759.684.759 1.499-.001 3.323-2.966 7.794-5.14 7.794v.002zm2.042-9.578l2.495-6.78a1.209 1.209 0 00-.324-1.32l-.001-.001-1.202-1.079a.393.393 0 00-.633.157l-.001.003-5.253 14.283c-1.183 3.212-2.583 4.313-3.462 4.313-.281 0-.681-.204-.681-.891 0-.233.042-.725.327-1.503l2.348-6.385a1.211 1.211 0 00-.324-1.321l-.001-.001-1.2-1.078a.394.394 0 00-.633.157l-.001.003-2.468 6.706c-1.182 3.212-2.582 4.313-3.46 4.313-.282 0-.682-.204-.682-.891 0-.233.042-.725.327-1.503l2.348-6.385a1.21 1.21 0 00-.326-1.32l-.001-.001-1.199-1.079a.394.394 0 00-.633.157l-.001.003-2.466 6.706c-.373 1.015-.548 2.047-.548 2.646 0 2.033 1.36 3.2 2.827 3.2 1.099 0 2.313-.709 3.412-2.169.377 1.385 1.487 2.167 2.678 2.167 1.103 0 2.322-.713 3.422-2.178.394 1.342 1.551 2.178 3.042 2.178 4.351 0 8.278-5.151 8.278-9.305 0-2.034-.982-3.508-2.759-3.508-1.177 0-2.27.674-3.247 1.705z"/></symbol><symbol id="icon-technologies-6" viewBox="0 0 145 32"><path d="M18.575.848c-.14.164-.148.379-.169 4.747-.012 2.773-.049 4.575-.094 4.575-.039 0-.135-.069-.21-.154-.158-.177-.98-.718-1.575-1.039-1.579-.848-4.281-1.292-6.185-1.019-1.378.198-3.783 1.106-4.337 1.637a7.746 7.746 0 01-.666.498l-.029.018c-.517.352-2.277 2.16-2.277 2.338 0 .046-.196.388-.436.759-.716 1.11-1.035 1.95-1.472 3.877-.342 1.509-.193 3.978.367 6.097.214.809 1.231 2.825 1.479 2.934.034.015.062.065.062.111 0 .288 1.396 1.778 2.393 2.558 2.695 2.105 6.809 2.732 9.924 1.515.836-.326 2.343-1.142 2.72-1.473l.282-.246.037.938c.037.849.057.956.226 1.147l.187.212h1.714c1.573 0 1.729-.012 1.895-.158l.182-.156V16.688c0-12.23-.012-13.893-.116-13.998-.063-.065-.358-.255-.655-.422-.298-.166-.61-.367-.695-.447C20.139.9 18.923.438 18.574.847zM83.408.825c-.108.128-.127.367-.127 1.618 0 1.674-.006 1.657.634 2.089.224.151.474.338.554.416s.341.246.578.375c.238.129.67.407.959.618.69.502 1.1.517 1.329.049.169-.348.165-4.724-.006-5.073l-.117-.241h-1.838c-1.684 0-1.849.012-1.967.149zm45.591-.094c-1.097.148-2.949.738-3.881 1.237a4.069 4.069 0 01-.623.283l-.029.009c-.249.065-1.723 1.105-2.481 1.753-.994.849-2.608 2.738-2.978 3.49-.258.524-.635 1.195-.689 1.231-.098.064-.83 1.936-1.009 2.582-.695 2.494-.694 2.481-.694 10.095v6.597l.186.543c.103.3.271.642.373.761.101.119.241.313.309.431.177.303.927.807 1.465.985.631.209 12.128.231 13.487.027 2.175-.326 4.864-1.435 6.364-2.624.255-.202.534-.398.62-.436.085-.039.479-.398.876-.796s.753-.738.79-.753c.038-.015.337-.382.666-.815.33-.433.671-.874.763-.977.09-.105.293-.455.45-.78.158-.326.332-.647.39-.715.057-.069.272-.511.481-.985 1.561-3.545 1.615-8.388.134-11.99-.24-.585-.484-1.118-.54-1.185s-.228-.386-.379-.709c-.572-1.211-2.516-3.495-3.712-4.358-.341-.249-.592-.44-.841-.634l.069.052c-2.176-1.71-6.428-2.738-9.567-2.316zm2.932 5.637c1.681.465 3.029 1.908 3.471 3.716.204.834.169 6.064-.046 6.831-.174.619-.378 1.092-.593 1.374-.987 1.296-1.623 1.796-2.74 2.153-2.265.724-4.954-.816-5.671-3.248-.23-.778-.357-5.783-.174-6.785.543-2.954 3.124-4.766 5.753-4.039zM35.326 7.849c-1.657.145-4.282 1.132-5.184 1.95a3.607 3.607 0 01-.56.411c-.517.282-2.065 2.082-2.502 2.907-1.281 2.425-1.669 3.873-1.669 6.236 0 9.922 11.077 15.22 18.053 8.634 2.38-2.247 2.476-2.747.608-3.195a43.158 43.158 0 01-2.073-.523l.406.097c-1.061-.295-1.243-.277-1.73.182-2.303 2.17-5.559 2.432-8.049.647-1.212-.869-2.233-2.187-2.545-3.287l-.102-.361h16.635l.25-.246.249-.247-.043-1.657c-.025-.966-.09-1.877-.155-2.187l-.239-1.147c-.142-.679-.793-2.19-1.218-2.823-.15-.225-.295-.482-.32-.574-.092-.32-1.712-2.09-2.249-2.459a9.632 9.632 0 01-.691-.523l.016.013c-1.385-1.175-4.63-2.047-6.887-1.849zm22.454.112c-.665.062-1.775.341-2.129.534a.952.952 0 01-.333.12l-.005.001c-.972 0-3.431 2.462-4.362 4.369-1.135 2.324-1.167 2.63-1.14 10.882l.021 6.617.217.197c.279.255 3.367.313 3.716.07.31-.217.31-.218.351-7.403l.038-6.998.236-.619c.13-.34.431-.892.67-1.227.785-1.108.718-1.046 1.834-1.662 1.188-.657 2.466-.602 3.625.156.305.201.581.364.61.364.284 0 1.415 1.793 1.673 2.649.318 1.065.341 1.637.341 8.242 0 6.193.002 6.268.159 6.446.256.293 3.43.277 3.754-.018l.217-.197.042-6.863.043-6.862.238-.778c1.477-4.821 6.878-4.734 8.492.139l.21.639.039 6.924c.033 5.702.059 6.948.146 7.06.193.247 3.63.199 3.854-.054l.169-.19v-6.876c0-7.75.009-7.594-.576-9.398-.505-1.556-1.691-3.455-2.511-4.02a5.969 5.969 0 01-.606-.51l.002.002c-1.457-1.401-4.726-2.151-6.828-1.569-1.815.505-2.991 1.21-4.234 2.546l-.596.638-.332-.411c-1.628-2.031-4.401-3.188-7.042-2.94zm25.985-.025c-.522.106-.484-.789-.484 11.529v11.074l.203.17c.204.171 3.241.271 3.612.118.362-.148.351.197.351-11.408 0-11.905.025-11.279-.433-11.462-.187-.076-2.898-.094-3.249-.021zm15.45.101c-.945.18-2.306.631-2.975.988-.517.277-1.318.796-1.385.898-.021.032-.196.16-.386.286s-.673.582-1.071 1.015c-2.622 2.85-3.604 6.24-3.014 10.405.411 2.896 2.754 6.366 5.243 7.761 1.033.578 1.254.686 1.99.954 3.833 1.398 8.266.277 11.204-2.833 2.448-2.592 3.68-7.018 2.905-10.425-.436-1.924-.714-2.678-1.354-3.684a24.11 24.11 0 01-.566-.942c-.286-.521-1.634-1.913-2.39-2.466-2.402-1.761-5.424-2.482-8.201-1.957zm30.735-.071c-.88.222-1.737 1.046-2.062 1.989l-.202.583v2.865c0 2.785.006 2.88.18 3.397.896 2.673 4.554 2.907 5.751.369.35-.742.369-.975.343-3.972l-.023-2.823-.239-.532c-.673-1.502-2.199-2.265-3.749-1.877zm1.371 3.464l.263.278v2.118c0 1.862-.016 2.143-.132 2.321-.33.507-.748.554-1.15.128l-.262-.278v-4.289l.262-.278c.19-.201.331-.278.508-.278.18 0 .321.078.51.278zM13.318 12.538c4.702 1.282 6.623 7.015 3.718 11.097-.549.772-.751.972-1.73 1.711-2.503 1.892-6.404 1.246-8.597-1.424-4.129-5.026.526-13.042 6.609-11.382zm24.632.005c1.995.652 3.579 2.092 4.32 3.926l.265.658H29.97l.105-.315c.218-.655.736-1.578 1.086-1.936.089-.09.236-.27.33-.399 1.196-1.659 4.383-2.613 6.459-1.935zm64.813.044c1.321.406 2.057.864 2.988 1.862 4.702 5.046.288 13.37-6.244 11.775-1.088-.266-1.483-.48-2.735-1.483-1.871-1.499-2.732-4.5-2.071-7.199.908-3.708 4.646-6.006 8.062-4.955zm35.966 5.473c.144.154.262.358.262.455 0 .462-.823 2.661-1.073 2.868-.027.022-.266.336-.533.695-.266.361-.599.747-.738.86-.143.112-.513.411-.827.665-.858.694-1.648 1.066-3.194 1.505-1.893.537-4.905-.037-6.55-1.248-1.134-.834-2.454-2.284-2.63-2.887a7.887 7.887 0 00-.336-.79l.022.049c-.668-1.415-.56-2.164.313-2.164.438 0 .609.177.817.848.092.299.284.757.427 1.018s.261.505.261.542c0 .315 1.58 1.892 2.252 2.244 4.073 2.135 8.78.418 10.053-3.669.399-1.284.89-1.612 1.474-.991z"/></symbol></defs></svg>