<!-- Generated by IcoMoon.io -->
<svg version="1.1" xmlns="http://www.w3.org/2000/svg" width="32" height="32" viewBox="0 0 32 32">
<title>Airpods</title>
<path fill="#99efd0" opacity="0.3" d="M18.667 15.296c1.083 0.974 2.445 1.659 3.952 1.92l0.048 0.007v10.111c0 1.105-0.895 2-2 2s-2-0.895-2-2v0-12.037zM9.333 17.223c1.555-0.268 2.917-0.952 4.007-1.933l-0.007 0.006v12.037c0 1.105-0.895 2-2 2s-2-0.895-2-2v0-10.111z"></path>
<path fill="#99efd0" d="M24 16c3.682 0 6.667-2.985 6.667-6.667s-2.985-6.667-6.667-6.667v0c-3.682 0-6.667 2.985-6.667 6.667s2.985 6.667 6.667 6.667v0zM18.667 9.667c0-0.552 0.448-1 1-1v0h0.667c0.552 0 1 0.448 1 1s-0.448 1-1 1v0h-0.667c-0.552 0-1-0.448-1-1v0zM28 6.667c-0.736 0-1.333 0.597-1.333 1.333v0 2.667c0 0.736 0.597 1.333 1.333 1.333s1.333-0.597 1.333-1.333v0-2.667c0-0.736-0.597-1.333-1.333-1.333v0zM8 16c3.682 0 6.667-2.985 6.667-6.667s-2.985-6.667-6.667-6.667v0c-3.682 0-6.667 2.985-6.667 6.667s2.985 6.667 6.667 6.667v0zM10.667 9.667c0-0.552 0.448-1 1-1v0h0.667c0.552 0 1 0.448 1 1s-0.448 1-1 1v0h-0.667c-0.552 0-1-0.448-1-1v0zM4 6.667c-0.736 0-1.333 0.597-1.333 1.333v0 2.667c0 0.736 0.597 1.333 1.333 1.333s1.333-0.597 1.333-1.333v0-2.667c0-0.736-0.597-1.333-1.333-1.333v0z"></path>
</svg>
