<!-- Generated by IcoMoon.io -->
<svg version="1.1" xmlns="http://www.w3.org/2000/svg" width="32" height="32" viewBox="0 0 32 32">
<title>Attachment</title>
<path fill="#99efd0" opacity="0.3" d="M5.629 18.828c-0.483 0.483-0.781 1.149-0.781 1.886s0.299 1.403 0.781 1.886l3.771 3.771c0.483 0.483 1.149 0.781 1.886 0.781s1.403-0.299 1.886-0.781l3.771-3.771c0.483-0.483 0.781-1.149 0.781-1.886s-0.299-1.403-0.781-1.886l-0.943-0.943-2.828 2.829c-0.241 0.241-0.575 0.391-0.943 0.391-0.737 0-1.334-0.597-1.334-1.334 0-0.368 0.149-0.702 0.391-0.943v0l2.829-2.828-0.943-0.943c-0.483-0.483-1.149-0.781-1.886-0.781s-1.403 0.299-1.886 0.781l-3.771 3.769z"></path>
<path fill="#99efd0" d="M15.057 9.4c-0.483 0.483-0.781 1.149-0.781 1.886s0.299 1.403 0.781 1.886l0.943 0.943 2.828-2.829c0.241-0.241 0.575-0.391 0.943-0.391 0.737 0 1.334 0.597 1.334 1.334 0 0.368-0.149 0.702-0.391 0.943v0l-2.829 2.828 0.943 0.943c0.483 0.483 1.149 0.781 1.886 0.781s1.403-0.299 1.886-0.781l3.771-3.771c0.483-0.483 0.781-1.149 0.781-1.886s-0.299-1.403-0.781-1.886l-3.771-3.771c-0.483-0.483-1.149-0.781-1.886-0.781s-1.403 0.299-1.886 0.781l-3.771 3.771z"></path>
</svg>
