<!-- Generated by IcoMoon.io -->
<svg version="1.1" xmlns="http://www.w3.org/2000/svg" width="32" height="32" viewBox="0 0 32 32">
<title>Bulb</title>
<path fill="#99efd0" opacity="0.3" d="M16 22.667c5.891 0 10.667-4.776 10.667-10.667s-4.776-10.667-10.667-10.667v0c-5.891 0-10.667 4.776-10.667 10.667s4.776 10.667 10.667 10.667v0z"></path>
<path fill="#99efd0" opacity="0.3" d="M8.717 12l5.373 13.816 1.877-0.729 1.864 0.736 5.461-13.823h-14.576zM12.616 14.667h6.757l-3.405 8.62-3.352-8.62z"></path>
<path fill="#99efd0" opacity="0.3" d="M13.333 29.333h5.333c0 1.473-1.194 2.667-2.667 2.667s-2.667-1.194-2.667-2.667v0z"></path>
<path fill="#99efd0" d="M10.667 22.667c0-0.736 0.597-1.333 1.333-1.333v0h8c0.736 0 1.333 0.597 1.333 1.333s-0.597 1.333-1.333 1.333v0c0.736 0 1.333 0.597 1.333 1.333s-0.597 1.333-1.333 1.333v0c0.736 0 1.333 0.597 1.333 1.333s-0.597 1.333-1.333 1.333v0h-8c-0.736 0-1.333-0.597-1.333-1.333s0.597-1.333 1.333-1.333v0c-0.736 0-1.333-0.597-1.333-1.333s0.597-1.333 1.333-1.333v0c-0.736 0-1.333-0.597-1.333-1.333v0z"></path>
</svg>
