<!-- Generated by IcoMoon.io -->
<svg version="1.1" xmlns="http://www.w3.org/2000/svg" width="31" height="32" viewBox="0 0 31 32">
<title>chart</title>
<path fill="#000" d="M8.18 0.050h18.507c0.384 0 0.696 0.311 0.696 0.696v23.481c0 0.384-0.311 0.696-0.696 0.696h-18.507c-0.384 0-0.696-0.311-0.696-0.696v-23.481c0-0.384 0.311-0.696 0.696-0.696z"></path>
<path fill="#1d2067" d="M0.645 1.294h14.924c0.343 0 0.622 0.278 0.622 0.622v14.426c0 0.343-0.278 0.622-0.622 0.622h-14.924c-0.343 0-0.622-0.278-0.622-0.622v-14.426c0-0.343 0.278-0.622 0.622-0.622z"></path>
<path fill="#8476aa" d="M2.29 3.428c0.069 0 0.132 0.016 0.188 0.047s0.102 0.074 0.134 0.128 0.049 0.115 0.049 0.181c0 0.066-0.016 0.127-0.049 0.182s-0.077 0.098-0.134 0.129c-0.056 0.032-0.119 0.048-0.188 0.048s-0.132-0.016-0.189-0.048c-0.056-0.032-0.101-0.075-0.133-0.129s-0.049-0.116-0.049-0.182 0.016-0.127 0.049-0.181c0.032-0.054 0.077-0.097 0.133-0.128s0.12-0.047 0.189-0.047zM2.292 3.547c-0.042 0-0.082 0.011-0.118 0.032s-0.065 0.049-0.087 0.086c-0.021 0.036-0.032 0.076-0.032 0.119s0.011 0.084 0.032 0.12c0.022 0.036 0.051 0.065 0.087 0.087s0.076 0.032 0.118 0.032c0.042 0 0.081-0.011 0.116-0.032s0.064-0.050 0.085-0.087c0.021-0.036 0.032-0.077 0.032-0.12s-0.011-0.084-0.032-0.119c-0.021-0.036-0.049-0.065-0.085-0.086s-0.075-0.032-0.116-0.032zM2.687 3.602l0.135-0.001 0.139 0.405 0.136-0.405h0.13l-0.203 0.532h-0.133l-0.205-0.531zM3.506 3.597c0.085 0 0.149 0.024 0.191 0.073s0.065 0.116 0.065 0.204c0 0.017-0 0.030-0.001 0.039h-0.393c0.009 0.038 0.026 0.068 0.053 0.090s0.060 0.032 0.099 0.032c0.027 0 0.053-0.005 0.078-0.015s0.047-0.026 0.066-0.045l0.070 0.073c-0.027 0.029-0.059 0.052-0.098 0.068s-0.080 0.024-0.126 0.024c-0.054 0-0.102-0.011-0.144-0.034s-0.073-0.054-0.095-0.095c-0.023-0.041-0.034-0.088-0.034-0.141s0.011-0.1 0.034-0.141c0.023-0.041 0.055-0.073 0.096-0.095s0.088-0.035 0.14-0.035zM3.643 3.826c-0.001-0.039-0.014-0.070-0.039-0.094s-0.057-0.035-0.098-0.035c-0.038 0-0.070 0.012-0.095 0.035s-0.041 0.054-0.047 0.094h0.279zM4.002 3.703c0.018-0.034 0.042-0.061 0.073-0.079s0.067-0.028 0.108-0.029v0.125c-0.055-0.003-0.099 0.010-0.132 0.039s-0.049 0.067-0.049 0.116v0.257h-0.129v-0.532h0.129v0.102zM4.218 3.602l0.135-0.001 0.139 0.405 0.136-0.405h0.13l-0.203 0.532h-0.133l-0.205-0.531zM4.834 3.601h0.129v0.532h-0.129v-0.532zM4.898 3.372c0.021 0 0.039 0.007 0.053 0.022s0.021 0.033 0.021 0.056c0 0.022-0.007 0.040-0.021 0.055s-0.032 0.022-0.053 0.022c-0.021 0-0.039-0.007-0.053-0.022s-0.021-0.033-0.021-0.055c0-0.023 0.007-0.041 0.021-0.056s0.032-0.022 0.053-0.022zM5.345 3.597c0.085 0 0.149 0.024 0.191 0.073s0.065 0.116 0.065 0.204c0 0.017-0 0.030-0.001 0.039h-0.393c0.009 0.038 0.026 0.068 0.053 0.090s0.060 0.032 0.099 0.032c0.027 0 0.053-0.005 0.078-0.015s0.047-0.026 0.066-0.045l0.070 0.073c-0.027 0.029-0.059 0.052-0.098 0.068s-0.080 0.024-0.126 0.024c-0.054 0-0.102-0.011-0.144-0.034s-0.073-0.054-0.096-0.095c-0.023-0.041-0.034-0.088-0.034-0.141s0.011-0.1 0.034-0.141c0.023-0.041 0.055-0.073 0.096-0.095s0.088-0.035 0.14-0.035zM5.483 3.826c-0.001-0.039-0.014-0.070-0.039-0.094s-0.057-0.035-0.098-0.035c-0.038 0-0.070 0.012-0.096 0.035s-0.041 0.054-0.047 0.094h0.279zM5.612 3.602l0.133-0.001 0.13 0.402 0.126-0.402h0.13l0.128 0.402 0.127-0.402h0.13l-0.193 0.532h-0.132l-0.127-0.375-0.126 0.375h-0.132l-0.195-0.531z"></path>
<path fill="#8476aa" d="M10.556 4.133v-0.444h0.052v0.397h0.196v0.047h-0.247zM11.076 4.133l-0.010-0.047h-0.002c-0.017 0.021-0.033 0.035-0.050 0.043s-0.037 0.011-0.062 0.011c-0.033 0-0.059-0.008-0.078-0.026s-0.028-0.041-0.028-0.073c0-0.067 0.054-0.102 0.161-0.106l0.056-0.002v-0.021c0-0.026-0.006-0.045-0.017-0.058s-0.029-0.019-0.054-0.019c-0.028 0-0.059 0.009-0.094 0.026l-0.015-0.039c0.016-0.009 0.034-0.016 0.054-0.021s0.039-0.008 0.059-0.008c0.040 0 0.069 0.009 0.088 0.026s0.029 0.046 0.029 0.085v0.227h-0.037zM10.963 4.098c0.031 0 0.056-0.009 0.074-0.026s0.027-0.041 0.027-0.072v-0.030l-0.050 0.002c-0.040 0.001-0.069 0.008-0.087 0.019s-0.026 0.028-0.026 0.051c0 0.018 0.005 0.032 0.016 0.042s0.027 0.014 0.046 0.014zM11.433 4.042c0 0.031-0.012 0.055-0.035 0.072s-0.056 0.025-0.097 0.025c-0.044 0-0.079-0.007-0.103-0.021v-0.047c0.016 0.008 0.033 0.014 0.051 0.019s0.036 0.007 0.053 0.007c0.026 0 0.047-0.004 0.061-0.012s0.021-0.021 0.021-0.039c0-0.013-0.006-0.024-0.017-0.033s-0.033-0.020-0.066-0.033c-0.031-0.012-0.053-0.022-0.066-0.030s-0.023-0.019-0.029-0.029c-0.006-0.011-0.009-0.024-0.009-0.039 0-0.027 0.011-0.048 0.033-0.064s0.052-0.024 0.091-0.024c0.036 0 0.071 0.007 0.105 0.022l-0.018 0.041c-0.033-0.014-0.064-0.021-0.091-0.021-0.024 0-0.042 0.004-0.054 0.011s-0.018 0.018-0.018 0.031c0 0.009 0.002 0.017 0.007 0.023s0.012 0.012 0.022 0.018c0.010 0.006 0.030 0.014 0.058 0.025 0.039 0.014 0.066 0.029 0.080 0.043s0.021 0.033 0.021 0.055zM11.622 4.098c0.009 0 0.018-0.001 0.026-0.002s0.015-0.003 0.020-0.004v0.039c-0.005 0.003-0.014 0.005-0.024 0.006s-0.020 0.003-0.029 0.003c-0.064 0-0.097-0.034-0.097-0.102v-0.198h-0.048v-0.024l0.048-0.021 0.021-0.071h0.029v0.077h0.097v0.039h-0.097v0.196c0 0.020 0.005 0.035 0.014 0.046s0.023 0.016 0.039 0.016zM12.012 3.862c0.047 0 0.083 0.012 0.11 0.035s0.040 0.055 0.040 0.095c0 0.046-0.015 0.082-0.044 0.108s-0.069 0.039-0.121 0.039c-0.050 0-0.088-0.008-0.114-0.024v-0.049c0.014 0.009 0.032 0.016 0.053 0.022s0.042 0.008 0.062 0.008c0.036 0 0.063-0.008 0.083-0.025s0.030-0.041 0.030-0.073c0-0.062-0.038-0.093-0.114-0.093-0.019 0-0.045 0.003-0.077 0.009l-0.026-0.017 0.017-0.208h0.221v0.046h-0.178l-0.011 0.133c0.023-0.005 0.046-0.007 0.070-0.007zM12.838 4.133v-0.216c0-0.026-0.006-0.046-0.017-0.059s-0.029-0.020-0.053-0.020c-0.031 0-0.055 0.009-0.069 0.027s-0.022 0.046-0.022 0.083v0.186h-0.050v-0.216c0-0.026-0.006-0.046-0.017-0.059s-0.029-0.020-0.053-0.020c-0.032 0-0.055 0.010-0.069 0.029s-0.022 0.050-0.022 0.093v0.175h-0.050v-0.333h0.041l0.008 0.046h0.002c0.010-0.016 0.023-0.029 0.040-0.038s0.037-0.014 0.058-0.014c0.052 0 0.086 0.019 0.102 0.056h0.002c0.010-0.017 0.024-0.031 0.043-0.041s0.040-0.015 0.064-0.015c0.038 0 0.066 0.010 0.084 0.029s0.028 0.050 0.028 0.093v0.217h-0.050zM13.28 3.967c0 0.054-0.014 0.097-0.041 0.127s-0.065 0.046-0.113 0.046c-0.030 0-0.056-0.007-0.079-0.021s-0.041-0.034-0.053-0.060c-0.013-0.026-0.019-0.057-0.019-0.092 0-0.054 0.014-0.096 0.041-0.127s0.065-0.046 0.113-0.046c0.047 0 0.083 0.015 0.111 0.046s0.041 0.073 0.041 0.126zM13.026 3.967c0 0.043 0.009 0.075 0.026 0.097s0.042 0.033 0.075 0.033c0.033 0 0.058-0.011 0.075-0.033s0.026-0.055 0.026-0.097c0-0.042-0.009-0.074-0.026-0.096s-0.042-0.033-0.076-0.033c-0.033 0-0.058 0.011-0.075 0.033s-0.025 0.054-0.025 0.097zM13.596 4.133v-0.215c0-0.027-0.006-0.047-0.019-0.061s-0.032-0.020-0.058-0.020c-0.035 0-0.060 0.009-0.077 0.028s-0.024 0.050-0.024 0.093v0.175h-0.050v-0.333h0.041l0.008 0.046h0.002c0.010-0.016 0.025-0.029 0.043-0.038s0.039-0.014 0.062-0.014c0.040 0 0.070 0.010 0.091 0.029s0.030 0.050 0.030 0.093v0.217h-0.050zM13.858 4.098c0.009 0 0.018-0.001 0.026-0.002s0.015-0.003 0.020-0.004v0.039c-0.005 0.003-0.014 0.005-0.024 0.006s-0.020 0.003-0.029 0.003c-0.064 0-0.097-0.034-0.097-0.102v-0.198h-0.048v-0.024l0.048-0.021 0.021-0.071h0.029v0.077h0.097v0.039h-0.097v0.196c0 0.020 0.005 0.035 0.014 0.046s0.023 0.016 0.039 0.016zM14.198 4.133v-0.215c0-0.027-0.006-0.047-0.018-0.061s-0.032-0.020-0.058-0.020c-0.035 0-0.061 0.010-0.077 0.029s-0.024 0.050-0.024 0.094v0.174h-0.050v-0.472h0.050v0.143c0 0.017-0.001 0.031-0.002 0.043h0.003c0.010-0.016 0.024-0.029 0.042-0.038s0.039-0.014 0.063-0.014c0.041 0 0.071 0.010 0.091 0.029s0.031 0.050 0.031 0.092v0.217h-0.050z"></path>
<path fill="#fff" opacity="0.2" d="M8.467 14.729l-0.151-0.394h-0.002c0.003 0.031 0.004 0.068 0.004 0.111v0.282h-0.048v-0.444h0.078l0.141 0.366h0.002l0.142-0.366h0.077v0.444h-0.052v-0.286c0-0.033 0.001-0.068 0.004-0.107h-0.002l-0.152 0.393h-0.042zM9.029 14.729l-0.010-0.047h-0.002c-0.017 0.021-0.033 0.035-0.050 0.043s-0.037 0.011-0.062 0.011c-0.033 0-0.059-0.008-0.078-0.026s-0.028-0.041-0.028-0.073c0-0.067 0.054-0.102 0.161-0.106l0.056-0.002v-0.021c0-0.026-0.006-0.045-0.017-0.058s-0.029-0.019-0.054-0.019c-0.028 0-0.059 0.009-0.094 0.026l-0.015-0.039c0.016-0.009 0.034-0.016 0.054-0.021s0.039-0.008 0.059-0.008c0.040 0 0.069 0.009 0.088 0.026s0.029 0.046 0.029 0.085v0.227h-0.037zM8.915 14.694c0.031 0 0.056-0.009 0.074-0.026s0.027-0.041 0.027-0.072v-0.030l-0.050 0.002c-0.040 0.001-0.069 0.008-0.087 0.019s-0.026 0.028-0.026 0.051c0 0.018 0.005 0.032 0.016 0.042s0.027 0.014 0.046 0.014zM9.323 14.391c0.015 0 0.028 0.001 0.040 0.004l-0.007 0.047c-0.014-0.003-0.026-0.005-0.036-0.005-0.027 0-0.050 0.011-0.069 0.033s-0.029 0.049-0.029 0.082v0.179h-0.050v-0.333h0.042l0.006 0.062h0.002c0.012-0.022 0.027-0.038 0.045-0.050s0.037-0.018 0.057-0.018z"></path>
<path fill="#fff" opacity="0.2" d="M12.914 14.729l-0.151-0.394h-0.002c0.003 0.031 0.004 0.068 0.004 0.111v0.282h-0.048v-0.444h0.078l0.141 0.366h0.002l0.142-0.366h0.077v0.444h-0.052v-0.286c0-0.033 0.001-0.068 0.004-0.107h-0.002l-0.152 0.393h-0.042zM13.477 14.729l-0.010-0.047h-0.002c-0.017 0.021-0.033 0.035-0.050 0.043s-0.037 0.011-0.062 0.011c-0.033 0-0.059-0.008-0.078-0.026s-0.028-0.041-0.028-0.073c0-0.067 0.054-0.102 0.161-0.106l0.056-0.002v-0.021c0-0.026-0.006-0.045-0.017-0.058s-0.029-0.019-0.054-0.019c-0.028 0-0.059 0.009-0.094 0.026l-0.015-0.039c0.016-0.009 0.034-0.016 0.054-0.021s0.039-0.008 0.059-0.008c0.040 0 0.069 0.009 0.088 0.026s0.029 0.046 0.029 0.085v0.227h-0.037zM13.363 14.694c0.031 0 0.056-0.009 0.074-0.026s0.027-0.041 0.027-0.072v-0.030l-0.050 0.002c-0.040 0.001-0.069 0.008-0.087 0.019s-0.026 0.028-0.026 0.051c0 0.018 0.005 0.032 0.016 0.042s0.027 0.014 0.046 0.014zM13.565 14.397h0.054l0.073 0.19c0.016 0.043 0.026 0.075 0.030 0.094h0.002c0.003-0.010 0.008-0.028 0.016-0.053s0.036-0.102 0.083-0.231h0.054l-0.143 0.379c-0.014 0.037-0.031 0.064-0.050 0.080s-0.042 0.024-0.070 0.024c-0.015 0-0.031-0.002-0.046-0.005v-0.040c0.011 0.002 0.024 0.004 0.037 0.004 0.035 0 0.059-0.019 0.074-0.058l0.018-0.047-0.134-0.335z"></path>
<path fill="#fff" opacity="0.2" d="M10.855 14.729l-0.055-0.141h-0.178l-0.055 0.141h-0.052l0.175-0.446h0.043l0.175 0.446h-0.053zM10.783 14.542l-0.052-0.138c-0.007-0.017-0.014-0.039-0.021-0.064-0.004 0.019-0.011 0.041-0.019 0.064l-0.052 0.138h0.144zM11.116 14.735c-0.022 0-0.041-0.004-0.059-0.012s-0.033-0.020-0.045-0.037h-0.004c0.002 0.019 0.004 0.038 0.004 0.055v0.137h-0.050v-0.482h0.041l0.007 0.046h0.002c0.013-0.018 0.028-0.031 0.045-0.040s0.037-0.012 0.059-0.012c0.044 0 0.078 0.015 0.102 0.045s0.036 0.072 0.036 0.127c0 0.055-0.012 0.097-0.037 0.128s-0.058 0.045-0.101 0.045zM11.109 14.433c-0.034 0-0.059 0.009-0.074 0.028s-0.023 0.049-0.023 0.090v0.011c0 0.047 0.008 0.080 0.023 0.101s0.041 0.030 0.075 0.030c0.029 0 0.051-0.012 0.067-0.035s0.025-0.055 0.025-0.096c0-0.042-0.008-0.073-0.025-0.095s-0.039-0.033-0.069-0.033zM11.495 14.391c0.015 0 0.028 0.001 0.040 0.004l-0.007 0.047c-0.014-0.003-0.026-0.005-0.036-0.005-0.027 0-0.050 0.011-0.069 0.033s-0.029 0.049-0.029 0.082v0.179h-0.050v-0.333h0.042l0.006 0.062h0.002c0.012-0.022 0.027-0.038 0.045-0.050s0.037-0.018 0.057-0.018z"></path>
<path fill="#fff" opacity="0.2" d="M6.139 14.729h-0.052v-0.444h0.247v0.046h-0.196v0.162h0.184v0.046h-0.184v0.19zM6.541 14.735c-0.049 0-0.088-0.015-0.117-0.045s-0.043-0.072-0.043-0.125c0-0.054 0.013-0.096 0.039-0.128s0.062-0.047 0.107-0.047c0.042 0 0.075 0.014 0.099 0.041s0.036 0.063 0.036 0.108v0.032h-0.229c0.001 0.039 0.011 0.069 0.029 0.089s0.045 0.030 0.079 0.030c0.036 0 0.071-0.008 0.106-0.022v0.045c-0.018 0.008-0.035 0.013-0.051 0.016s-0.035 0.005-0.057 0.005zM6.527 14.433c-0.027 0-0.048 0.009-0.064 0.026s-0.025 0.041-0.028 0.072h0.174c0-0.032-0.007-0.056-0.021-0.073s-0.034-0.026-0.061-0.026zM6.905 14.391c0.044 0 0.078 0.015 0.102 0.045s0.036 0.072 0.036 0.127c0 0.055-0.012 0.097-0.037 0.128s-0.058 0.045-0.101 0.045c-0.022 0-0.042-0.004-0.059-0.012s-0.033-0.020-0.045-0.037h-0.004l-0.011 0.043h-0.036v-0.473h0.050v0.115c0 0.026-0.001 0.049-0.002 0.069h0.002c0.023-0.033 0.058-0.050 0.104-0.050zM6.897 14.433c-0.034 0-0.059 0.010-0.074 0.030s-0.023 0.053-0.023 0.1c0 0.047 0.008 0.080 0.023 0.101s0.041 0.030 0.075 0.030c0.031 0 0.054-0.011 0.069-0.034s0.023-0.055 0.023-0.097c0-0.043-0.008-0.076-0.023-0.097s-0.039-0.032-0.070-0.032z"></path>
<path fill="#fff" opacity="0.2" d="M3.862 14.846c-0.019 0-0.034-0.003-0.045-0.008v-0.044c0.014 0.004 0.029 0.006 0.045 0.006 0.020 0 0.035-0.006 0.046-0.018s0.016-0.030 0.016-0.053v-0.444h0.052v0.44c0 0.038-0.010 0.068-0.029 0.089s-0.047 0.032-0.084 0.032zM4.29 14.729l-0.010-0.047h-0.002c-0.017 0.021-0.033 0.035-0.050 0.043s-0.037 0.011-0.062 0.011c-0.033 0-0.059-0.008-0.078-0.026s-0.028-0.041-0.028-0.073c0-0.067 0.054-0.102 0.161-0.106l0.056-0.002v-0.021c0-0.026-0.006-0.045-0.017-0.058s-0.029-0.019-0.054-0.019c-0.028 0-0.059 0.009-0.094 0.026l-0.015-0.039c0.016-0.009 0.034-0.016 0.054-0.021s0.039-0.008 0.059-0.008c0.040 0 0.069 0.009 0.088 0.026s0.029 0.046 0.029 0.085v0.227h-0.037zM4.177 14.694c0.031 0 0.056-0.009 0.074-0.026s0.027-0.041 0.027-0.072v-0.030l-0.050 0.002c-0.040 0.001-0.069 0.008-0.087 0.019s-0.026 0.028-0.026 0.051c0 0.018 0.005 0.032 0.016 0.042s0.027 0.014 0.046 0.014zM4.66 14.729v-0.215c0-0.027-0.006-0.047-0.019-0.061s-0.032-0.020-0.058-0.020c-0.035 0-0.060 0.009-0.077 0.028s-0.024 0.050-0.024 0.093v0.175h-0.050v-0.333h0.041l0.008 0.046h0.002c0.010-0.016 0.025-0.029 0.043-0.038s0.039-0.014 0.062-0.014c0.040 0 0.070 0.010 0.090 0.029s0.030 0.050 0.030 0.093v0.217h-0.050z"></path>
<path fill="#fff" opacity="0.2" d="M2.385 7.19c0.040 0 0.073 0.009 0.096 0.028s0.036 0.045 0.036 0.078c0 0.022-0.007 0.042-0.020 0.060s-0.035 0.034-0.065 0.049c0.036 0.017 0.062 0.035 0.077 0.054s0.023 0.041 0.023 0.066c0 0.037-0.013 0.066-0.039 0.088s-0.061 0.033-0.106 0.033c-0.047 0-0.084-0.010-0.109-0.031s-0.038-0.050-0.038-0.088c0-0.051 0.031-0.090 0.093-0.119-0.028-0.016-0.048-0.033-0.060-0.051s-0.018-0.039-0.018-0.062c0-0.032 0.012-0.058 0.036-0.077s0.056-0.029 0.096-0.029zM2.289 7.529c0 0.024 0.008 0.043 0.025 0.057s0.041 0.020 0.071 0.020c0.030 0 0.054-0.007 0.070-0.021s0.025-0.034 0.025-0.058c0-0.020-0.008-0.037-0.024-0.052s-0.043-0.030-0.083-0.045c-0.030 0.013-0.052 0.027-0.066 0.043s-0.020 0.034-0.020 0.056zM2.384 7.231c-0.025 0-0.045 0.006-0.059 0.018s-0.022 0.028-0.022 0.049c0 0.019 0.006 0.035 0.018 0.048s0.034 0.027 0.066 0.040c0.029-0.012 0.049-0.025 0.061-0.039s0.018-0.030 0.018-0.049c0-0.020-0.007-0.037-0.022-0.049s-0.035-0.018-0.060-0.018zM2.945 7.641h-0.061l-0.162-0.215-0.046 0.041v0.174h-0.052v-0.444h0.052v0.22l0.201-0.22h0.061l-0.179 0.193 0.185 0.251z"></path>
<path fill="#fff" opacity="0.2" d="M2.53 12.304h-0.292v-0.043l0.117-0.117c0.036-0.036 0.059-0.062 0.070-0.077s0.020-0.030 0.026-0.045c0.006-0.015 0.009-0.030 0.009-0.047 0-0.024-0.007-0.042-0.022-0.056s-0.034-0.021-0.060-0.021c-0.018 0-0.036 0.003-0.053 0.009s-0.035 0.017-0.055 0.033l-0.027-0.034c0.041-0.034 0.085-0.051 0.134-0.051 0.042 0 0.074 0.011 0.098 0.032s0.036 0.050 0.036 0.086c0 0.028-0.008 0.056-0.024 0.084s-0.045 0.062-0.089 0.104l-0.097 0.095v0.002h0.228v0.047zM2.945 12.304h-0.061l-0.162-0.215-0.046 0.041v0.174h-0.052v-0.444h0.052v0.22l0.201-0.22h0.061l-0.179 0.193 0.185 0.251z"></path>
<path fill="#fff" opacity="0.2" d="M2.914 13.636c0 0.077-0.012 0.134-0.036 0.172s-0.061 0.057-0.111 0.057c-0.048 0-0.084-0.019-0.109-0.058s-0.037-0.096-0.037-0.171c0-0.077 0.012-0.135 0.036-0.172s0.061-0.056 0.11-0.056c0.048 0 0.085 0.020 0.11 0.059s0.038 0.096 0.038 0.17zM2.671 13.636c0 0.065 0.008 0.112 0.023 0.141s0.039 0.044 0.073 0.044c0.034 0 0.058-0.015 0.073-0.045s0.023-0.077 0.023-0.141c0-0.064-0.008-0.11-0.023-0.14s-0.039-0.045-0.073-0.045c-0.033 0-0.057 0.015-0.073 0.044s-0.023 0.076-0.023 0.141z"></path>
<path fill="#fff" opacity="0.2" d="M2.243 9.005c0-0.087 0.017-0.152 0.051-0.196s0.084-0.065 0.151-0.065c0.023 0 0.041 0.002 0.054 0.006v0.043c-0.016-0.005-0.033-0.008-0.053-0.008-0.048 0-0.084 0.015-0.109 0.045s-0.039 0.076-0.041 0.14h0.004c0.022-0.035 0.057-0.052 0.106-0.052 0.040 0 0.071 0.012 0.094 0.036s0.035 0.057 0.035 0.098c0 0.046-0.013 0.082-0.038 0.109s-0.059 0.039-0.102 0.039c-0.046 0-0.082-0.017-0.109-0.052s-0.040-0.083-0.040-0.144zM2.392 9.158c0.029 0 0.051-0.009 0.067-0.027s0.024-0.044 0.024-0.079c0-0.029-0.007-0.052-0.022-0.069s-0.037-0.025-0.066-0.025c-0.018 0-0.035 0.004-0.050 0.011s-0.027 0.018-0.036 0.031c-0.009 0.013-0.013 0.027-0.013 0.041 0 0.021 0.004 0.040 0.012 0.058s0.020 0.032 0.034 0.043c0.015 0.011 0.032 0.016 0.051 0.016zM2.945 9.195h-0.061l-0.162-0.215-0.046 0.041v0.174h-0.052v-0.444h0.052v0.22l0.201-0.22h0.061l-0.179 0.193 0.185 0.251z"></path>
<path fill="#fff" opacity="0.2" d="M2.069 6.086h-0.049v-0.316c0-0.026 0.001-0.051 0.002-0.075-0.004 0.004-0.009 0.009-0.014 0.013s-0.029 0.024-0.072 0.059l-0.027-0.035 0.117-0.091h0.042v0.444zM2.532 5.864c0 0.077-0.012 0.134-0.036 0.172s-0.061 0.057-0.111 0.057c-0.048 0-0.084-0.019-0.109-0.058s-0.037-0.096-0.037-0.171c0-0.077 0.012-0.135 0.036-0.172s0.061-0.056 0.11-0.056c0.048 0 0.085 0.020 0.11 0.059s0.038 0.096 0.038 0.17zM2.289 5.864c0 0.065 0.008 0.112 0.023 0.141s0.039 0.044 0.073 0.044c0.034 0 0.058-0.015 0.073-0.045s0.023-0.077 0.023-0.141-0.008-0.11-0.023-0.14c-0.015-0.030-0.039-0.045-0.073-0.045s-0.057 0.015-0.073 0.044c-0.015 0.029-0.023 0.076-0.023 0.141zM2.945 6.086h-0.061l-0.162-0.215-0.046 0.041v0.174h-0.052v-0.444h0.052v0.22l0.201-0.22h0.061l-0.179 0.193 0.185 0.251z"></path>
<path fill="#fff" opacity="0.2" d="M2.551 10.648h-0.066v0.102h-0.048v-0.102h-0.216v-0.044l0.211-0.3h0.053v0.298h0.066v0.046zM2.436 10.602v-0.148c0-0.029 0.001-0.062 0.003-0.098h-0.002c-0.010 0.019-0.019 0.036-0.027 0.048l-0.139 0.197h0.165zM2.945 10.75h-0.061l-0.162-0.215-0.046 0.041v0.174h-0.052v-0.444h0.052v0.22l0.201-0.22h0.061l-0.179 0.193 0.185 0.251z"></path>
<path fill="#8476aa" d="M8.604 10.248c0-0.103 0.084-0.187 0.187-0.187s0.187 0.083 0.187 0.187v3.607h-0.373v-3.607z"></path>
<path fill="#99efd0" d="M9.113 11.304c0-0.096 0.078-0.174 0.174-0.174s0.174 0.078 0.174 0.174v2.539h-0.348v-2.539z"></path>
<path fill="#8476aa" d="M6.365 9.191c0-0.103 0.083-0.187 0.187-0.187s0.187 0.084 0.187 0.187v4.664h-0.373v-4.664z"></path>
<path fill="#99efd0" d="M6.887 10.609c0-0.096 0.078-0.174 0.174-0.174s0.174 0.078 0.174 0.174v3.235h-0.348v-3.235z"></path>
<path fill="#8476aa" d="M13.081 6.579c0-0.103 0.084-0.187 0.187-0.187s0.187 0.084 0.187 0.187v7.275h-0.373v-7.275z"></path>
<path fill="#99efd0" d="M13.565 8.73c0-0.096 0.078-0.174 0.174-0.174s0.174 0.078 0.174 0.174v5.113h-0.348v-5.113z"></path>
<path fill="#8476aa" d="M4.127 11.678c0-0.103 0.084-0.187 0.187-0.187s0.187 0.083 0.187 0.187v2.176h-0.373v-2.176z"></path>
<path fill="#99efd0" d="M4.591 12.383c0-0.115 0.093-0.209 0.209-0.209s0.209 0.093 0.209 0.209v1.461h-0.417v-1.461z"></path>
<path fill="#8476aa" d="M10.842 7.388c0-0.103 0.084-0.187 0.187-0.187s0.187 0.084 0.187 0.187v6.467h-0.373v-6.467z"></path>
<path fill="#99efd0" d="M11.339 9.287c0-0.096 0.078-0.174 0.174-0.174s0.174 0.078 0.174 0.174v4.557h-0.348v-4.557z"></path>
<path fill="#13c296" d="M10.594 22.125h4.975c0.343 0 0.622 0.278 0.622 0.622v4.353c0 0.343-0.278 0.622-0.622 0.622h-4.975c-0.343 0-0.622-0.278-0.622-0.622v-4.353c0-0.343 0.278-0.622 0.622-0.622z"></path>
<path fill="none" stroke="#fff" stroke-linejoin="round" stroke-linecap="round" stroke-miterlimit="4" stroke-width="0.3731" d="M11.651 25.64l1.099-0.971 0.527 0.554 1.216-1.046h-0.695"></path>
</svg>
