<!-- Generated by IcoMoon.io -->
<svg version="1.1" xmlns="http://www.w3.org/2000/svg" width="32" height="32" viewBox="0 0 32 32">
<title>Flip-horizontal</title>
<path fill="#99efd0" opacity="0.3" d="M4.365 24.419c-0.030 0.073-0.048 0.159-0.048 0.248 0 0.368 0.298 0.667 0.667 0.667 0.001 0 0.002 0 0.003 0h6.347c0.368 0 0.667-0.298 0.667-0.667v0-15.872c0-0.733-1.013-0.929-1.285-0.247l-6.349 15.871z"></path>
<path fill="#99efd0" d="M27.635 24.419c0.030 0.073 0.048 0.159 0.048 0.248 0 0.368-0.298 0.667-0.666 0.667h-6.349c-0.368 0-0.667-0.298-0.667-0.667v0-15.872c0-0.733 1.013-0.929 1.285-0.247l6.349 15.871z"></path>
<path fill="#99efd0" opacity="0.3" d="M16 2.667c0.736 0 1.333 0.597 1.333 1.333v24c0 0.736-0.597 1.333-1.333 1.333s-1.333-0.597-1.333-1.333v-24c0-0.736 0.597-1.333 1.333-1.333z"></path>
</svg>
