<!-- Generated by IcoMoon.io -->
<svg version="1.1" xmlns="http://www.w3.org/2000/svg" width="32" height="32" viewBox="0 0 32 32">
<title>google</title>
<path fill="#fff" d="M23.191 15.069h-7.688c0 0.8 0 2.4-0.005 3.199h4.455c-0.171 0.8-0.776 1.92-1.631 2.483l-0.003 0.004c-1.137 0.751-2.639 0.92-3.752 0.697-1.729-0.359-3.108-1.582-3.68-3.188l-0.011-0.035c0.004-0.003 0.007-0.024 0.009-0.027-0.352-0.997-0.352-2.333 0-3.133h-0.001c0.453-1.469 1.876-2.809 3.625-3.177 1.407-0.297 2.993 0.025 4.16 1.117 0.156-0.152 2.149-2.099 2.299-2.256-3.988-3.612-10.373-2.341-12.763 2.323l-0.005 0.008c-0.546 1.039-0.867 2.271-0.867 3.577 0 1.313 0.324 2.551 0.897 3.638l-0.021-0.043-0.009 0.007c1.069 2.029 2.912 3.529 5.127 4.119l0.057 0.013c2.409 0.631 5.475 0.2 7.528-1.659l0.003 0.003c1.74-1.567 2.823-4.236 2.276-7.669z"></path>
</svg>
