<!-- Generated by IcoMoon.io -->
<svg version="1.1" xmlns="http://www.w3.org/2000/svg" width="34" height="32" viewBox="0 0 34 32">
<title>head-card</title>
<path fill="#516ea9" d="M24.657 19.015h8.502c0.427 0 0.773 0.346 0.773 0.773v3.478c0 0.427-0.346 0.773-0.773 0.773h-8.502c-0.427 0-0.773-0.346-0.773-0.773v-3.478c0-0.427 0.346-0.773 0.773-0.773z"></path>
<path fill="#fff" opacity="0.8" d="M26.355 22.647h-0.089v-0.417h0.089v0.417zM26.261 22.119c0-0.016 0.004-0.028 0.013-0.037s0.021-0.013 0.037-0.013c0.016 0 0.028 0.004 0.036 0.013s0.013 0.021 0.013 0.037c0 0.015-0.004 0.027-0.013 0.036s-0.021 0.013-0.036 0.013c-0.016 0-0.029-0.004-0.037-0.013s-0.013-0.021-0.013-0.036zM26.888 22.647h-0.089v-0.257c0-0.032-0.007-0.056-0.020-0.072s-0.033-0.024-0.062-0.024c-0.038 0-0.065 0.011-0.082 0.033s-0.026 0.059-0.026 0.111v0.208h-0.089v-0.417h0.070l0.012 0.055h0.004c0.013-0.020 0.030-0.035 0.054-0.046s0.049-0.016 0.077-0.016c0.1 0 0.15 0.051 0.15 0.153v0.272zM27.218 22.655c-0.063 0-0.111-0.018-0.144-0.055s-0.049-0.090-0.049-0.159c0-0.070 0.017-0.124 0.051-0.162s0.084-0.057 0.149-0.057c0.044 0 0.084 0.008 0.119 0.024l-0.027 0.071c-0.038-0.015-0.068-0.022-0.093-0.022-0.072 0-0.108 0.048-0.108 0.144 0 0.047 0.009 0.082 0.027 0.106s0.045 0.035 0.079 0.035c0.040 0 0.077-0.010 0.112-0.029v0.077c-0.016 0.009-0.033 0.016-0.051 0.020s-0.039 0.006-0.060 0.006c-0.002 0-0.004 0-0.005-0h0zM27.683 22.222c0.018 0 0.033 0.001 0.044 0.004l-0.009 0.083c-0.012-0.003-0.025-0.005-0.038-0.005-0 0-0 0-0.001 0h0c-0.035 0-0.064 0.012-0.087 0.035s-0.033 0.053-0.033 0.090v0.218h-0.089v-0.417h0.070l0.012 0.074h0.005c0.013-0.024 0.031-0.044 0.053-0.059l0.001-0c0.022-0.015 0.046-0.022 0.072-0.022zM28.026 22.655c-0.065 0-0.116-0.019-0.152-0.057s-0.055-0.090-0.055-0.157c0-0.068 0.017-0.122 0.051-0.161s0.081-0.058 0.14-0.058c0.055 0 0.099 0.017 0.131 0.050s0.048 0.080 0.048 0.138v0.048h-0.278c0.001 0.041 0.012 0.072 0.033 0.094s0.050 0.032 0.087 0.032c0.025 0 0.048-0.002 0.069-0.007 0.026-0.006 0.049-0.014 0.071-0.024l-0.002 0.001v0.072c-0.022 0.010-0.044 0.018-0.066 0.022s-0.046 0.006-0.072 0.006c-0.001 0-0.003 0-0.004-0h0zM28.010 22.29c-0.028 0-0.051 0.009-0.068 0.027s-0.027 0.044-0.030 0.078h0.19c-0.001-0.034-0.009-0.061-0.025-0.078s-0.038-0.027-0.066-0.027zM28.589 22.647l-0.018-0.058h-0.003c-0.020 0.025-0.040 0.043-0.061 0.052s-0.047 0.014-0.078 0.014c-0.041 0-0.073-0.011-0.096-0.033s-0.034-0.053-0.034-0.094c0-0.043 0.016-0.075 0.048-0.097s0.081-0.034 0.146-0.036l0.072-0.002v-0.022c0-0.027-0.006-0.047-0.019-0.060s-0.032-0.020-0.058-0.020c-0.021 0-0.042 0.003-0.062 0.009-0.023 0.007-0.041 0.015-0.059 0.023l0.003-0.001-0.029-0.063c0.023-0.012 0.047-0.021 0.074-0.027 0.023-0.006 0.049-0.009 0.076-0.009h0c0.053 0 0.093 0.012 0.12 0.035s0.041 0.060 0.041 0.109v0.281h-0.063zM28.457 22.587c0.032 0 0.058-0.009 0.077-0.027s0.029-0.043 0.029-0.076v-0.036l-0.054 0.002c-0.042 0.002-0.072 0.009-0.091 0.021s-0.028 0.031-0.028 0.057c0 0.019 0.006 0.033 0.017 0.043s0.028 0.015 0.050 0.015zM29.095 22.528c0 0.041-0.015 0.072-0.045 0.094s-0.072 0.032-0.128 0.032c-0.056 0-0.1-0.008-0.134-0.025v-0.077c0.049 0.023 0.095 0.034 0.137 0.034 0.055 0 0.082-0.016 0.082-0.049 0-0 0-0.001 0-0.001 0-0.010-0.003-0.018-0.009-0.025l0 0c-0.008-0.009-0.018-0.016-0.029-0.022l-0.001-0c-0.016-0.008-0.035-0.017-0.054-0.024l-0.004-0.001c-0.048-0.019-0.081-0.037-0.098-0.056s-0.025-0.043-0.025-0.072c0-0.036 0.014-0.063 0.043-0.083s0.068-0.030 0.118-0.030c0 0 0.001 0 0.001 0 0.050 0 0.097 0.011 0.14 0.031l-0.002-0.001-0.029 0.067c-0.045-0.019-0.083-0.028-0.114-0.028-0.047 0-0.070 0.013-0.070 0.040 0 0.013 0.006 0.024 0.018 0.033s0.039 0.021 0.080 0.037c0.034 0.013 0.059 0.026 0.075 0.037s0.027 0.024 0.035 0.038c0.008 0.014 0.011 0.032 0.011 0.052zM29.412 22.655c-0.065 0-0.116-0.019-0.152-0.057s-0.055-0.090-0.055-0.157c0-0.068 0.017-0.122 0.051-0.161s0.081-0.058 0.14-0.058c0.055 0 0.099 0.017 0.131 0.050s0.048 0.080 0.048 0.138v0.048h-0.278c0.001 0.041 0.012 0.072 0.033 0.094s0.050 0.032 0.087 0.032c0.025 0 0.048-0.002 0.069-0.007 0.026-0.006 0.049-0.014 0.071-0.024l-0.002 0.001v0.072c-0.022 0.010-0.044 0.018-0.066 0.022s-0.047 0.006-0.072 0.006c-0.001 0-0.003 0-0.004-0h0zM29.396 22.29c-0.028 0-0.051 0.009-0.068 0.027s-0.027 0.044-0.030 0.078h0.189c-0-0.034-0.009-0.061-0.025-0.078s-0.038-0.027-0.066-0.027zM30.184 22.647h-0.089v-0.356c0-0.043 0.001-0.076 0.003-0.101-0.007 0.007-0.014 0.013-0.021 0.020l-0 0c-0.008 0.007-0.036 0.030-0.085 0.069l-0.045-0.056 0.162-0.128h0.074v0.552zM30.778 22.647h-0.374v-0.067l0.142-0.143c0.042-0.043 0.070-0.073 0.083-0.091 0.012-0.015 0.022-0.032 0.030-0.050l0.001-0.001c0.006-0.016 0.009-0.033 0.009-0.051 0-0.025-0.008-0.045-0.023-0.059s-0.035-0.022-0.062-0.022c-0.021 0-0.042 0.004-0.062 0.012s-0.042 0.022-0.068 0.042l-0.048-0.058c0.031-0.026 0.060-0.044 0.089-0.055s0.060-0.016 0.092-0.016c0.051 0 0.092 0.013 0.123 0.040s0.046 0.063 0.046 0.108c0 0.025-0.004 0.049-0.014 0.071-0.011 0.027-0.025 0.049-0.042 0.070l0-0.001c-0.018 0.024-0.049 0.056-0.092 0.096l-0.096 0.093v0.004h0.262v0.078zM30.956 22.261c0 0.038 0.004 0.065 0.011 0.084s0.019 0.028 0.036 0.028c0.033 0 0.050-0.037 0.050-0.111s-0.017-0.111-0.050-0.111c-0.017 0-0.029 0.009-0.036 0.028s-0.011 0.046-0.011 0.084zM31.126 22.26c0 0.058-0.010 0.101-0.031 0.131s-0.051 0.043-0.092 0.043c-0.038 0-0.068-0.015-0.089-0.045s-0.031-0.073-0.031-0.129c0-0.115 0.040-0.172 0.12-0.172 0.040 0 0.070 0.015 0.091 0.045s0.032 0.072 0.032 0.128zM31.315 22.481c0 0.038 0.004 0.066 0.011 0.084s0.020 0.028 0.036 0.028c0.033 0 0.049-0.037 0.049-0.112s-0.017-0.111-0.049-0.111c-0.017 0-0.029 0.009-0.036 0.027s-0.011 0.046-0.011 0.083zM31.485 22.481c0 0.058-0.010 0.101-0.031 0.13s-0.051 0.043-0.091 0.043c-0.038 0-0.068-0.015-0.089-0.045s-0.032-0.073-0.032-0.129c0-0.115 0.040-0.173 0.121-0.173 0.039 0 0.069 0.015 0.090 0.045s0.032 0.072 0.032 0.128zM31.373 22.096l-0.306 0.552h-0.073l0.306-0.552h0.073z"></path>
<path fill="#fff" d="M26.84 20.728c-0.025-0.018-0.055-0.032-0.087-0.040l-0.002-0c-0.030-0.009-0.064-0.015-0.1-0.015v0c-0.078 0-0.136 0.026-0.176 0.078s-0.057 0.123-0.054 0.213c0.021-0.037 0.052-0.066 0.089-0.085l0.001-0.001c0.039-0.020 0.084-0.030 0.137-0.030 0.086 0 0.154 0.025 0.204 0.075s0.075 0.117 0.075 0.202c0 0.059-0.013 0.111-0.038 0.156s-0.063 0.078-0.107 0.101l-0.002 0.001c-0.046 0.024-0.1 0.036-0.162 0.036-0.073 0-0.137-0.017-0.19-0.051s-0.095-0.082-0.124-0.146c-0.028-0.063-0.042-0.139-0.042-0.228 0-0.092 0.015-0.172 0.046-0.24s0.075-0.122 0.132-0.16c0.057-0.038 0.124-0.057 0.2-0.057 0.045 0 0.090 0.006 0.137 0.019 0.047 0.011 0.089 0.027 0.127 0.049l-0.002-0.001-0.063 0.124zM26.616 20.975c-0.053 0-0.095 0.015-0.126 0.045-0.028 0.026-0.046 0.063-0.046 0.104 0 0.002 0 0.004 0 0.006v-0c-0.001 0.025 0.005 0.049 0.017 0.072s0.031 0.041 0.056 0.056c0.026 0.014 0.057 0.021 0.094 0.021 0.049 0 0.089-0.014 0.119-0.041s0.045-0.065 0.045-0.114c0-0.045-0.014-0.081-0.043-0.108s-0.066-0.041-0.115-0.041zM28.256 20.743c0.075 0 0.134 0.023 0.177 0.069s0.064 0.107 0.064 0.186v0.413h-0.162v-0.366c0-0.047-0.013-0.084-0.040-0.11s-0.061-0.041-0.105-0.041c-0.051 0.002-0.092 0.020-0.122 0.056s-0.045 0.080-0.045 0.135v0.326h-0.162v-0.366c0-0.047-0.013-0.084-0.038-0.11s-0.061-0.041-0.105-0.041c-0.052 0.002-0.093 0.020-0.124 0.056s-0.045 0.080-0.045 0.135v0.326h-0.161v-0.662h0.161v0.122c0.044-0.084 0.121-0.127 0.233-0.129 0.058 0 0.106 0.014 0.145 0.042s0.067 0.066 0.083 0.116c0.042-0.104 0.124-0.157 0.246-0.158zM28.966 20.744c0.068 0 0.129 0.014 0.181 0.042s0.094 0.068 0.122 0.117l0.001 0.001c0.030 0.050 0.045 0.108 0.045 0.174s-0.015 0.126-0.045 0.177c-0.029 0.051-0.071 0.091-0.121 0.118l-0.002 0.001c-0.052 0.028-0.112 0.042-0.181 0.042s-0.13-0.014-0.183-0.042c-0.052-0.028-0.094-0.068-0.123-0.117l-0.001-0.001c-0.029-0.051-0.043-0.11-0.043-0.177s0.014-0.124 0.043-0.174c0.030-0.051 0.072-0.091 0.122-0.118l0.002-0.001c0.053-0.028 0.114-0.042 0.183-0.042zM28.966 20.881c-0.056 0-0.101 0.019-0.136 0.056s-0.052 0.085-0.052 0.145 0.017 0.108 0.052 0.145c0.035 0.037 0.080 0.056 0.136 0.056 0.054 0 0.099-0.019 0.134-0.056s0.052-0.085 0.052-0.145-0.017-0.108-0.052-0.145c-0.035-0.037-0.079-0.056-0.134-0.056zM29.851 20.743c0.076 0 0.136 0.023 0.179 0.069s0.066 0.107 0.066 0.186v0.413h-0.162v-0.366c0-0.046-0.013-0.082-0.040-0.109s-0.062-0.041-0.108-0.041c-0.054 0.001-0.096 0.019-0.127 0.054s-0.046 0.081-0.046 0.136v0.325h-0.161v-0.662h0.161v0.124c0.045-0.085 0.125-0.128 0.237-0.13zM30.664 21.37c-0.053 0.032-0.108 0.048-0.166 0.048s-0.103-0.016-0.14-0.049c-0.036-0.034-0.054-0.083-0.054-0.148v-0.326h-0.093l-0.001-0.117h0.094v-0.182h0.16v0.182h0.189v0.117h-0.189v0.298c0 0.031 0.006 0.052 0.017 0.066s0.029 0.019 0.052 0.019c0.025 0 0.056-0.009 0.094-0.027l0.037 0.121zM31.195 20.743c0.076 0 0.136 0.023 0.179 0.069s0.066 0.107 0.066 0.186v0.413h-0.162v-0.366c0-0.046-0.013-0.082-0.040-0.109s-0.062-0.041-0.108-0.041c-0.054 0.001-0.096 0.019-0.127 0.054s-0.047 0.081-0.047 0.136v0.325h-0.161v-0.918h0.161v0.382c0.045-0.087 0.125-0.131 0.239-0.132z"></path>
<path fill="#fff" d="M5.874 0h18.551c0.427 0 0.773 0.346 0.773 0.773v30.454c0 0.427-0.346 0.773-0.773 0.773h-18.551c-0.427 0-0.773-0.346-0.773-0.773v-30.454c0-0.427 0.346-0.773 0.773-0.773z"></path>
<path fill="#212b36" d="M7.92 17.365c0.086 0 0.164 0.019 0.234 0.058s0.126 0.092 0.166 0.158l0.001 0.002c0.040 0.068 0.061 0.143 0.061 0.225 0 0.001 0 0.003 0 0.004 0 0.082-0.023 0.158-0.062 0.224l0.001-0.002c-0.041 0.068-0.097 0.122-0.165 0.16l-0.002 0.001c-0.070 0.040-0.148 0.059-0.234 0.059s-0.164-0.020-0.235-0.059c-0.069-0.039-0.125-0.093-0.165-0.159l-0.001-0.002c-0.038-0.064-0.061-0.14-0.061-0.222 0-0.002 0-0.003 0-0.005v0c0-0.082 0.020-0.157 0.061-0.225s0.097-0.121 0.163-0.158l0.002-0.001c0.071-0.039 0.149-0.058 0.235-0.058zM7.922 17.513c-0.053 0-0.102 0.013-0.147 0.040s-0.082 0.062-0.107 0.105l-0.001 0.001c-0.025 0.041-0.040 0.092-0.040 0.145 0 0.001 0 0.002 0 0.003v-0c0 0.054 0.013 0.104 0.040 0.15s0.063 0.081 0.106 0.107l0.001 0.001c0.042 0.025 0.092 0.040 0.146 0.040 0.001 0 0.001 0 0.002 0h-0c0 0 0.001 0 0.001 0 0.053 0 0.102-0.015 0.144-0.040l-0.001 0.001c0.044-0.026 0.080-0.063 0.104-0.106l0.001-0.001c0.025-0.042 0.040-0.093 0.040-0.147 0-0.001 0-0.002 0-0.003v0c0-0.054-0.013-0.104-0.040-0.148-0.025-0.045-0.061-0.081-0.104-0.106l-0.001-0.001c-0.041-0.025-0.090-0.040-0.143-0.040-0 0-0.001 0-0.002 0h0zM9.387 17.574c0.075 0 0.134 0.023 0.177 0.069s0.064 0.107 0.064 0.186v0.413h-0.162v-0.366c0-0.047-0.013-0.084-0.040-0.11s-0.061-0.041-0.105-0.041c-0.051 0.002-0.092 0.020-0.122 0.056s-0.045 0.080-0.045 0.135v0.326h-0.162v-0.366c0-0.047-0.013-0.084-0.038-0.11s-0.061-0.041-0.105-0.041c-0.052 0.002-0.093 0.020-0.124 0.056s-0.045 0.080-0.045 0.135v0.326h-0.161v-0.662h0.161v0.122c0.044-0.084 0.121-0.127 0.232-0.129 0.058 0 0.106 0.014 0.145 0.042s0.067 0.066 0.083 0.116c0.042-0.104 0.124-0.157 0.246-0.158zM10.199 18.242v-0.080c-0.023 0.029-0.053 0.051-0.088 0.065l-0.001 0.001c-0.036 0.015-0.078 0.022-0.125 0.022s-0.087-0.009-0.122-0.026c-0.034-0.017-0.061-0.043-0.080-0.073l-0.001-0.001c-0.018-0.029-0.028-0.065-0.028-0.102 0-0.001 0-0.002 0-0.003v0c0-0.062 0.022-0.11 0.066-0.145s0.105-0.054 0.185-0.054h0.193v-0.017c0-0.039-0.013-0.069-0.038-0.090s-0.063-0.032-0.111-0.032c-0.063 0-0.128 0.021-0.197 0.062l-0.058-0.111c0.052-0.029 0.099-0.049 0.141-0.062s0.093-0.020 0.15-0.020c0.086 0 0.152 0.021 0.199 0.062s0.072 0.099 0.073 0.173l0.001 0.433h-0.158zM10.023 18.125c0.046 0 0.086-0.011 0.119-0.032s0.051-0.049 0.056-0.082v-0.059h-0.167c-0.043 0-0.075 0.007-0.095 0.020s-0.030 0.033-0.030 0.062c0 0.028 0.010 0.050 0.031 0.067s0.050 0.025 0.087 0.025zM10.943 17.574c0.076 0 0.136 0.023 0.179 0.069s0.066 0.107 0.066 0.186v0.413h-0.162v-0.366c0-0.046-0.013-0.082-0.040-0.109s-0.062-0.041-0.108-0.041c-0.054 0.001-0.096 0.019-0.127 0.054s-0.047 0.081-0.047 0.136v0.325h-0.161v-0.918h0.161v0.382c0.045-0.087 0.125-0.131 0.239-0.132zM12.538 17.574c0.075 0 0.134 0.023 0.177 0.069s0.064 0.107 0.064 0.186v0.413h-0.162v-0.366c0-0.047-0.013-0.084-0.040-0.11s-0.061-0.041-0.105-0.041c-0.051 0.002-0.092 0.020-0.122 0.056s-0.045 0.080-0.045 0.135v0.326h-0.162v-0.366c0-0.047-0.013-0.084-0.038-0.11s-0.061-0.041-0.105-0.041c-0.052 0.002-0.093 0.020-0.124 0.056s-0.045 0.080-0.045 0.135v0.326h-0.161v-0.662h0.161v0.122c0.044-0.084 0.121-0.127 0.232-0.129 0.058 0 0.106 0.014 0.145 0.042s0.067 0.066 0.083 0.116c0.042-0.104 0.124-0.157 0.246-0.158zM13.57 17.58v0.662h-0.162v-0.122c-0.045 0.086-0.121 0.129-0.23 0.129-0.074 0-0.133-0.023-0.176-0.068s-0.064-0.107-0.064-0.186v-0.414h0.162v0.367c0 0.046 0.012 0.082 0.037 0.109s0.061 0.040 0.105 0.040c0.051-0.001 0.092-0.019 0.121-0.054s0.045-0.080 0.045-0.135v-0.326h0.162zM14.218 18.242l-0.179-0.289-0.101 0.106v0.183h-0.161v-0.918h0.161v0.532l0.272-0.275h0.185l-0.245 0.255 0.26 0.406h-0.192zM14.906 18.201c-0.053 0.032-0.108 0.048-0.166 0.048s-0.104-0.016-0.14-0.049c-0.036-0.034-0.054-0.083-0.054-0.148v-0.326h-0.093l-0.001-0.117h0.094v-0.182h0.16v0.182h0.189v0.117h-0.189v0.298c0 0.031 0.006 0.052 0.017 0.066s0.029 0.019 0.052 0.019c0.025 0 0.056-0.009 0.094-0.027l0.037 0.121zM15.033 17.58h0.161v0.662h-0.161v-0.662zM15.112 17.295c0.026 0 0.048 0.009 0.066 0.027s0.026 0.041 0.026 0.069c0 0.027-0.009 0.050-0.026 0.068-0.016 0.017-0.038 0.027-0.063 0.027-0.001 0-0.002 0-0.003-0h0c-0.001 0-0.002 0-0.002 0-0.025 0-0.047-0.010-0.063-0.027l-0-0c-0.016-0.017-0.026-0.040-0.026-0.065 0-0.001 0-0.002 0-0.003v0c0-0.028 0.009-0.051 0.026-0.069 0.016-0.017 0.038-0.027 0.063-0.027 0.001 0 0.002 0 0.003 0h-0zM15.856 17.707c0.022-0.043 0.052-0.075 0.090-0.098s0.084-0.035 0.135-0.036v0.156c-0.068-0.004-0.123 0.012-0.164 0.048s-0.061 0.084-0.061 0.145v0.319h-0.161v-0.662h0.161v0.127zM16.47 17.575c0.105 0 0.185 0.030 0.237 0.090s0.080 0.145 0.080 0.254c0 0.021-0 0.038-0.001 0.048h-0.488c0.011 0.047 0.033 0.084 0.066 0.111s0.075 0.040 0.124 0.040c0.034 0 0.066-0.006 0.096-0.019 0.032-0.014 0.059-0.032 0.082-0.056l0-0 0.087 0.090c-0.033 0.036-0.073 0.064-0.119 0.083l-0.002 0.001c-0.047 0.020-0.099 0.030-0.157 0.030-0.068 0-0.127-0.014-0.179-0.042-0.050-0.027-0.091-0.067-0.118-0.116l-0.001-0.002c-0.028-0.051-0.042-0.11-0.042-0.176s0.014-0.125 0.042-0.176c0.028-0.050 0.069-0.091 0.118-0.118l0.002-0.001c0.051-0.029 0.109-0.043 0.174-0.043zM16.641 17.859c-0.002-0.049-0.018-0.087-0.048-0.116s-0.071-0.043-0.121-0.043c-0.047 0-0.087 0.014-0.119 0.043s-0.051 0.067-0.058 0.116h0.346zM17.318 17.759c-0.029-0.017-0.062-0.032-0.097-0.044l-0.003-0.001c-0.028-0.010-0.060-0.016-0.094-0.016h-0c-0.027 0-0.049 0.005-0.066 0.015s-0.023 0.023-0.023 0.043c0 0.021 0.010 0.037 0.030 0.048s0.053 0.022 0.096 0.035c0.045 0.013 0.083 0.027 0.119 0.044l-0.005-0.002c0.030 0.013 0.055 0.033 0.077 0.061s0.033 0.061 0.033 0.105c0 0.064-0.025 0.114-0.074 0.148s-0.112 0.052-0.187 0.052c-0 0-0 0-0.001 0-0.053 0-0.105-0.009-0.152-0.024l0.003 0.001c-0.048-0.016-0.089-0.039-0.124-0.070l0 0 0.056-0.113c0.030 0.026 0.065 0.046 0.104 0.060l0.002 0.001c0.041 0.014 0.080 0.021 0.117 0.021 0.030 0 0.053-0.005 0.070-0.015 0.016-0.009 0.027-0.026 0.027-0.045 0-0.001 0-0.001-0-0.002v0c0-0.001 0-0.001 0-0.002 0-0.022-0.012-0.041-0.031-0.050l-0-0c-0.021-0.012-0.054-0.024-0.1-0.038-0.044-0.012-0.080-0.026-0.115-0.041l0.006 0.002c-0.029-0.014-0.054-0.034-0.073-0.058l-0-0c-0.021-0.026-0.031-0.061-0.031-0.103 0-0.065 0.023-0.115 0.070-0.148s0.108-0.052 0.179-0.052c0.044 0 0.087 0.006 0.129 0.019s0.081 0.030 0.114 0.052l-0.058 0.116zM17.523 17.58h0.161v0.662h-0.161v-0.662zM17.602 17.295c0.026 0 0.048 0.009 0.066 0.027s0.026 0.041 0.026 0.069c0 0.027-0.009 0.050-0.026 0.068-0.016 0.017-0.038 0.027-0.063 0.027-0.001 0-0.002 0-0.003-0h0c-0.026 0-0.048-0.009-0.066-0.027-0.016-0.017-0.026-0.040-0.026-0.065 0-0.001 0-0.002 0-0.003v0c0-0.028 0.009-0.051 0.026-0.069s0.039-0.027 0.066-0.027zM18.521 17.324v0.918h-0.161v-0.106c-0.024 0.037-0.055 0.066-0.093 0.085s-0.080 0.028-0.13 0.028c-0.063 0-0.118-0.014-0.166-0.042-0.047-0.029-0.085-0.070-0.109-0.118l-0.001-0.002c-0.026-0.052-0.040-0.111-0.040-0.178s0.013-0.124 0.038-0.174c0.025-0.050 0.063-0.090 0.109-0.118l0.001-0.001c0.048-0.028 0.102-0.042 0.163-0.042 0.050 0 0.094 0.010 0.132 0.030s0.069 0.048 0.094 0.085v-0.365h0.161zM18.172 18.114c0.055 0 0.1-0.019 0.135-0.056s0.053-0.087 0.053-0.146-0.018-0.108-0.053-0.145c-0.035-0.038-0.080-0.057-0.135-0.057s-0.1 0.019-0.135 0.057c-0.035 0.037-0.052 0.085-0.053 0.145 0.001 0.059 0.019 0.108 0.053 0.146s0.080 0.056 0.135 0.056zM19.003 17.575c0.106 0 0.185 0.030 0.237 0.090s0.080 0.145 0.080 0.254c0 0.021-0 0.038-0.001 0.048h-0.488c0.011 0.047 0.033 0.084 0.066 0.111s0.075 0.040 0.124 0.040c0.034 0 0.066-0.006 0.096-0.019 0.032-0.013 0.059-0.032 0.082-0.056l0-0 0.087 0.090c-0.033 0.036-0.073 0.065-0.119 0.083l-0.002 0.001c-0.047 0.020-0.099 0.030-0.157 0.030-0.068 0-0.127-0.014-0.179-0.042-0.050-0.027-0.091-0.068-0.118-0.116l-0.001-0.002c-0.028-0.051-0.042-0.11-0.042-0.176s0.014-0.125 0.042-0.176c0.028-0.050 0.069-0.091 0.118-0.118l0.002-0.001c0.051-0.029 0.109-0.043 0.174-0.043zM19.173 17.859c-0.002-0.049-0.018-0.087-0.048-0.116s-0.071-0.043-0.121-0.043c-0.047 0-0.087 0.014-0.119 0.043s-0.051 0.067-0.058 0.116h0.346zM19.857 17.574c0.076 0 0.136 0.023 0.179 0.069s0.066 0.107 0.066 0.186v0.413h-0.162v-0.366c0-0.046-0.013-0.082-0.040-0.109s-0.062-0.041-0.108-0.041c-0.054 0.001-0.096 0.019-0.127 0.054s-0.046 0.081-0.046 0.136v0.325h-0.161v-0.662h0.161v0.124c0.045-0.085 0.125-0.128 0.237-0.13zM20.738 17.789c-0.045-0.049-0.102-0.073-0.173-0.073-0.054 0-0.097 0.018-0.131 0.054s-0.049 0.083-0.049 0.141c0 0.059 0.017 0.107 0.049 0.143s0.078 0.054 0.131 0.054c0.079 0 0.139-0.026 0.178-0.078l0.1 0.083c-0.030 0.043-0.069 0.076-0.117 0.099s-0.105 0.035-0.169 0.035c-0.065 0-0.123-0.014-0.174-0.042-0.050-0.028-0.090-0.068-0.117-0.116l-0.001-0.002c-0.028-0.051-0.042-0.11-0.042-0.176s0.014-0.126 0.042-0.177c0.028-0.050 0.069-0.090 0.117-0.118l0.002-0.001c0.051-0.028 0.11-0.042 0.176-0.042 0.060 0 0.114 0.011 0.161 0.032 0.047 0.020 0.086 0.050 0.116 0.088l0 0.001-0.098 0.093zM21.233 17.575c0.105 0 0.185 0.030 0.237 0.090s0.080 0.145 0.080 0.254c0 0.021-0 0.038-0.001 0.048h-0.488c0.011 0.047 0.033 0.084 0.066 0.111s0.075 0.040 0.124 0.040c0.034 0 0.066-0.006 0.096-0.019 0.032-0.014 0.059-0.032 0.082-0.056l0-0 0.087 0.090c-0.033 0.036-0.073 0.064-0.119 0.083l-0.002 0.001c-0.047 0.020-0.099 0.030-0.157 0.030-0.068 0-0.127-0.014-0.179-0.042-0.050-0.027-0.091-0.067-0.118-0.116l-0.001-0.002c-0.028-0.051-0.042-0.11-0.042-0.176s0.014-0.125 0.042-0.176c0.028-0.050 0.069-0.091 0.118-0.118l0.002-0.001c0.051-0.029 0.109-0.043 0.174-0.043zM21.404 17.859c-0.002-0.049-0.018-0.087-0.048-0.116s-0.071-0.043-0.121-0.043c-0.047 0-0.087 0.014-0.119 0.043s-0.051 0.067-0.058 0.116h0.346z"></path>
<path fill="#212b36" d="M7.421 28.305h0.304v0.758h-0.145v-0.63h-0.159v-0.128zM8.197 28.621c0.070 0.006 0.126 0.028 0.167 0.064s0.063 0.083 0.063 0.142c0 0.048-0.012 0.090-0.037 0.127s-0.060 0.065-0.105 0.085c-0.045 0.020-0.098 0.030-0.159 0.030-0.054-0-0.107-0.008-0.156-0.024l0.004 0.001c-0.050-0.016-0.092-0.037-0.128-0.063l0.057-0.113c0.030 0.025 0.064 0.045 0.101 0.058s0.074 0.019 0.113 0.019c0.053 0 0.094-0.011 0.123-0.032s0.045-0.051 0.045-0.088c0-0.038-0.015-0.066-0.044-0.085s-0.072-0.030-0.127-0.030h-0.115v-0.088l0.203-0.197h-0.319l-0.001-0.123h0.506v0.090l-0.232 0.222 0.040 0.004zM8.713 28.303c0.063 0 0.113 0.020 0.149 0.061s0.054 0.095 0.054 0.166-0.018 0.127-0.054 0.168c-0.036 0.040-0.086 0.061-0.149 0.061s-0.112-0.020-0.148-0.061c-0.036-0.041-0.054-0.097-0.054-0.168s0.018-0.125 0.054-0.166c0.036-0.040 0.085-0.061 0.148-0.061zM8.713 28.385c-0.035 0-0.062 0.013-0.081 0.038s-0.028 0.061-0.028 0.106c0 0.046 0.009 0.082 0.028 0.108s0.047 0.038 0.081 0.038c0.035 0 0.063-0.013 0.082-0.038s0.029-0.062 0.029-0.108c0-0.045-0.010-0.081-0.029-0.106s-0.047-0.038-0.082-0.038zM9.219 28.305h0.107l-0.552 0.758h-0.108l0.553-0.758zM9.288 28.612c0.063 0 0.113 0.020 0.149 0.061s0.054 0.095 0.054 0.166-0.018 0.127-0.054 0.168c-0.036 0.040-0.086 0.061-0.149 0.061s-0.112-0.020-0.148-0.061c-0.036-0.041-0.054-0.097-0.054-0.168s0.018-0.125 0.054-0.166c0.036-0.040 0.085-0.061 0.148-0.061zM9.288 28.694c-0.035 0-0.062 0.013-0.081 0.038s-0.028 0.061-0.028 0.106c0 0.046 0.009 0.082 0.028 0.108s0.047 0.038 0.081 0.038c0.035 0 0.063-0.013 0.082-0.038s0.029-0.062 0.029-0.108c0-0.045-0.010-0.081-0.029-0.106s-0.047-0.038-0.082-0.038z"></path>
<path fill="#637381" d="M7.843 30.068l-0.069-0.176h-0.221l-0.068 0.176h-0.065l0.218-0.554h0.054l0.217 0.554h-0.066zM7.754 29.834l-0.064-0.171c-0.008-0.022-0.017-0.048-0.026-0.080-0.008 0.032-0.016 0.059-0.025 0.085l0.002-0.005-0.065 0.171h0.178zM8.207 30.075c-0.027 0-0.052-0.005-0.074-0.015s-0.042-0.026-0.056-0.046l-0-0h-0.005c0.003 0.024 0.005 0.047 0.005 0.069v0.17h-0.063v-0.599h0.051l0.009 0.057h0.003c0.016-0.023 0.035-0.039 0.056-0.049s0.046-0.015 0.074-0.015c0.055 0 0.097 0.019 0.127 0.056s0.045 0.090 0.045 0.158c0 0.068-0.015 0.121-0.046 0.159s-0.072 0.056-0.126 0.056zM8.198 29.7c-0.042 0-0.073 0.012-0.092 0.035s-0.029 0.061-0.029 0.112v0.014c0 0.058 0.010 0.1 0.029 0.125s0.050 0.037 0.093 0.037c0.036 0 0.064-0.014 0.084-0.043s0.031-0.069 0.031-0.12c0-0.052-0.010-0.091-0.031-0.119s-0.049-0.041-0.085-0.041zM8.716 29.646c0.018 0 0.035 0.001 0.049 0.004l-0.009 0.058c-0.014-0.003-0.029-0.005-0.045-0.006h-0c-0.033 0-0.062 0.014-0.086 0.041s-0.035 0.061-0.035 0.102v0.222h-0.063v-0.414h0.052l0.007 0.077h0.003c0.015-0.027 0.034-0.048 0.056-0.062s0.045-0.022 0.071-0.022z"></path>
<path fill="#212b36" d="M13.388 28.465c-0.022-0.016-0.048-0.028-0.076-0.035l-0.002-0c-0.026-0.008-0.056-0.013-0.088-0.013v0c-0.068 0-0.119 0.023-0.154 0.068s-0.050 0.108-0.048 0.186c0.019-0.032 0.046-0.058 0.078-0.074l0.001-0c0.034-0.017 0.074-0.026 0.12-0.026 0.075 0 0.135 0.022 0.179 0.066s0.066 0.103 0.066 0.176c0 0.052-0.011 0.097-0.034 0.136s-0.055 0.069-0.094 0.088l-0.001 0.001c-0.040 0.021-0.088 0.031-0.142 0.031-0.064 0-0.12-0.015-0.167-0.044s-0.083-0.072-0.108-0.128c-0.024-0.056-0.037-0.122-0.037-0.199 0-0.080 0.013-0.15 0.040-0.21s0.066-0.107 0.116-0.14c0.050-0.033 0.108-0.050 0.175-0.050 0.039 0 0.079 0.005 0.12 0.016 0.041 0.010 0.078 0.024 0.111 0.043l-0.002-0.001-0.055 0.108zM13.192 28.682c-0.046 0-0.083 0.013-0.11 0.039-0.025 0.023-0.040 0.055-0.040 0.091 0 0.002 0 0.003 0 0.005v-0c-0.001 0.022 0.004 0.043 0.015 0.063s0.027 0.036 0.049 0.049c0.022 0.012 0.050 0.018 0.082 0.018 0.043 0 0.078-0.012 0.104-0.036s0.039-0.057 0.039-0.1c0-0.040-0.013-0.071-0.038-0.094s-0.058-0.036-0.101-0.036zM13.855 28.299c0.079 0 0.142 0.018 0.187 0.054s0.069 0.084 0.069 0.145c0 0.035-0.009 0.066-0.028 0.094s-0.046 0.051-0.077 0.066l-0.001 0c0.045 0.017 0.080 0.042 0.105 0.076s0.039 0.073 0.039 0.117-0.012 0.083-0.036 0.116c-0.024 0.033-0.058 0.059-0.103 0.077s-0.096 0.026-0.155 0.026c-0.059 0-0.111-0.009-0.156-0.026s-0.078-0.043-0.102-0.076-0.036-0.071-0.036-0.115c0-0.045 0.013-0.084 0.040-0.118s0.064-0.060 0.11-0.077c-0.034-0.016-0.062-0.040-0.083-0.069l-0-0.001c-0.018-0.027-0.029-0.059-0.029-0.095 0-0.001 0-0.001 0-0.002v0c0-0.059 0.023-0.106 0.068-0.141s0.108-0.053 0.186-0.053zM13.857 28.403c-0.042 0-0.075 0.009-0.098 0.027s-0.035 0.043-0.035 0.076 0.012 0.058 0.035 0.076c0.024 0.018 0.057 0.027 0.098 0.027s0.074-0.009 0.097-0.027c0.023-0.018 0.035-0.043 0.035-0.076s-0.012-0.058-0.035-0.076c-0.023-0.018-0.056-0.027-0.097-0.027zM13.855 28.721c-0.049 0-0.087 0.010-0.115 0.030s-0.041 0.049-0.041 0.085c0 0.038 0.014 0.067 0.041 0.088s0.066 0.031 0.116 0.031c0.049 0 0.087-0.010 0.115-0.030s0.042-0.050 0.042-0.088c0-0.037-0.014-0.065-0.042-0.085s-0.066-0.031-0.116-0.031zM14.438 28.303c0.063 0 0.113 0.020 0.149 0.061s0.054 0.095 0.054 0.166-0.018 0.127-0.054 0.168c-0.036 0.040-0.086 0.061-0.149 0.061s-0.112-0.020-0.148-0.061c-0.036-0.041-0.054-0.097-0.054-0.168s0.018-0.125 0.054-0.166 0.085-0.061 0.148-0.061zM14.438 28.385c-0.035 0-0.062 0.013-0.081 0.038s-0.028 0.061-0.028 0.106c0 0.046 0.009 0.082 0.028 0.108s0.047 0.038 0.081 0.038c0.035 0 0.063-0.013 0.082-0.038s0.029-0.062 0.029-0.108c0-0.045-0.010-0.081-0.029-0.106s-0.047-0.038-0.082-0.038zM14.944 28.305h0.107l-0.552 0.758h-0.108l0.553-0.758zM15.012 28.612c0.063 0 0.113 0.020 0.149 0.061s0.054 0.095 0.054 0.166-0.018 0.127-0.054 0.168c-0.036 0.040-0.086 0.061-0.149 0.061s-0.112-0.020-0.148-0.061c-0.036-0.041-0.054-0.097-0.054-0.168s0.018-0.125 0.054-0.166 0.085-0.061 0.148-0.061zM15.012 28.694c-0.035 0-0.062 0.013-0.081 0.038s-0.028 0.061-0.028 0.106c0 0.046 0.009 0.082 0.028 0.108s0.047 0.038 0.081 0.038c0.035 0 0.063-0.013 0.082-0.038s0.029-0.062 0.029-0.108c0-0.045-0.010-0.081-0.029-0.106s-0.047-0.038-0.082-0.038z"></path>
<path fill="#637381" d="M12.907 30.068v-0.552h0.064v0.494h0.243v0.058h-0.308zM13.471 30.023c0.020 0 0.040-0.003 0.058-0.008l-0.002 0v0.048c-0.009 0.004-0.019 0.007-0.030 0.008l-0.001 0c-0.011 0.002-0.023 0.003-0.035 0.003h-0c-0.080 0-0.12-0.042-0.12-0.126v-0.246h-0.059v-0.030l0.059-0.026 0.026-0.088h0.036v0.096h0.12v0.049h-0.12v0.243c0 0.025 0.006 0.044 0.018 0.057s0.028 0.020 0.049 0.020zM13.74 30.068l-0.157-0.414h0.067l0.089 0.245c0.020 0.057 0.032 0.095 0.035 0.112h0.003c0.003-0.013 0.011-0.041 0.026-0.083s0.048-0.134 0.099-0.274h0.067l-0.157 0.414h-0.073z"></path>
<path fill="#212b36" d="M19.247 28.305h0.304v0.758h-0.145v-0.63h-0.159v-0.128zM20.261 28.936v0.127h-0.561v-0.105l0.286-0.294c0.027-0.027 0.049-0.055 0.066-0.081s0.025-0.050 0.025-0.069c0-0.001 0-0.002 0-0.003 0-0.025-0.013-0.048-0.032-0.061l-0-0c-0.022-0.016-0.052-0.024-0.090-0.024-0.033 0-0.069 0.008-0.106 0.025-0.041 0.018-0.076 0.042-0.106 0.070l0-0-0.057-0.111c0.040-0.032 0.087-0.059 0.137-0.079l0.004-0.001c0.044-0.018 0.095-0.029 0.149-0.029h0c0.050 0 0.094 0.008 0.132 0.024s0.068 0.039 0.089 0.068c0.022 0.029 0.032 0.062 0.032 0.101 0 0.037-0.013 0.076-0.038 0.117s-0.061 0.085-0.106 0.133l-0.193 0.195h0.369zM21.409 28.478c0.066 0 0.117 0.020 0.155 0.061s0.056 0.094 0.056 0.162v0.361h-0.142v-0.32c0-0.041-0.012-0.073-0.035-0.096s-0.053-0.036-0.092-0.036c-0.045 0.001-0.080 0.018-0.107 0.049s-0.039 0.070-0.039 0.118v0.286h-0.142v-0.32c0-0.041-0.011-0.073-0.034-0.096s-0.053-0.036-0.092-0.036c-0.045 0.001-0.082 0.018-0.108 0.049s-0.039 0.070-0.039 0.118v0.286h-0.141v-0.579h0.141v0.107c0.038-0.074 0.106-0.111 0.203-0.113 0.050 0 0.093 0.012 0.127 0.037s0.059 0.058 0.073 0.102c0.037-0.091 0.109-0.137 0.215-0.139zM22.116 29.027c-0.041 0.026-0.091 0.042-0.145 0.042h-0c-0.050 0-0.090-0.014-0.122-0.043s-0.048-0.073-0.048-0.13v-0.286h-0.081l-0.001-0.103h0.082v-0.159h0.14v0.159h0.166v0.103h-0.166v0.261c0 0.027 0.005 0.046 0.015 0.057s0.025 0.016 0.045 0.016c0.022 0 0.049-0.008 0.082-0.024l0.032 0.106zM22.581 28.478c0.066 0 0.119 0.020 0.157 0.061s0.057 0.094 0.057 0.162v0.361h-0.142v-0.32c0-0.040-0.012-0.072-0.035-0.095s-0.055-0.036-0.094-0.036c-0.047 0.001-0.084 0.017-0.111 0.048s-0.041 0.071-0.041 0.119v0.285h-0.141v-0.803h0.141v0.334c0.040-0.076 0.109-0.114 0.209-0.116z"></path>
<path fill="#637381" d="M19.322 30.068v-0.552h0.064v0.494h0.243v0.058h-0.308zM20.11 29.86c0 0.067-0.017 0.12-0.051 0.158s-0.081 0.057-0.141 0.057c-0.037 0-0.070-0.009-0.098-0.026s-0.052-0.043-0.066-0.074l-0-0.001c-0.016-0.032-0.023-0.070-0.023-0.114 0-0.067 0.017-0.12 0.051-0.157s0.081-0.057 0.14-0.057c0.058 0 0.104 0.019 0.138 0.058s0.051 0.091 0.051 0.156zM19.795 29.86c0 0.053 0.011 0.093 0.032 0.121s0.052 0.041 0.093 0.041c0.041 0 0.072-0.014 0.093-0.041s0.032-0.068 0.032-0.121c0-0.053-0.011-0.092-0.032-0.12s-0.052-0.041-0.094-0.041c-0.041 0-0.072 0.013-0.093 0.040s-0.031 0.067-0.031 0.12zM20.513 30.068l-0.013-0.059h-0.003c-0.021 0.026-0.041 0.044-0.062 0.053s-0.046 0.014-0.077 0.014c-0.041 0-0.073-0.011-0.097-0.032s-0.035-0.051-0.035-0.090c0-0.084 0.067-0.127 0.2-0.131l0.070-0.002v-0.026c0-0.032-0.007-0.056-0.021-0.072s-0.036-0.023-0.067-0.023c-0.034 0-0.073 0.011-0.117 0.032l-0.019-0.048c0.019-0.011 0.041-0.020 0.065-0.026l0.002-0c0.024-0.006 0.049-0.009 0.073-0.009 0.049 0 0.086 0.011 0.109 0.033s0.036 0.057 0.036 0.105v0.282h-0.046zM20.372 30.023c0.039 0 0.070-0.011 0.092-0.032s0.034-0.051 0.034-0.090v-0.037l-0.063 0.003c-0.050 0.002-0.086 0.010-0.108 0.023s-0.033 0.035-0.033 0.064c0 0.023 0.007 0.040 0.020 0.052s0.033 0.018 0.058 0.018zM21.011 30.068v-0.268c0-0.034-0.008-0.059-0.023-0.075s-0.039-0.025-0.072-0.025c-0.043 0-0.075 0.012-0.095 0.035s-0.030 0.062-0.030 0.116v0.217h-0.063v-0.414h0.051l0.010 0.057h0.003c0.013-0.020 0.031-0.036 0.054-0.047s0.049-0.017 0.077-0.017c0.050 0 0.087 0.012 0.112 0.036s0.038 0.062 0.038 0.115v0.27h-0.063z"></path>
<path fill="#13c296" d="M7.749 22.286c0 0.046 0.014 0.083 0.041 0.113 0.028 0.029 0.061 0.052 0.098 0.068l0.002 0.001c0.040 0.016 0.095 0.035 0.165 0.058 0.088 0.027 0.159 0.053 0.213 0.078s0.101 0.062 0.139 0.111c0.038 0.048 0.057 0.113 0.057 0.193 0 0.1-0.036 0.183-0.108 0.249-0.072 0.064-0.168 0.103-0.289 0.117v0.247h-0.135v-0.245c-0.091-0.007-0.176-0.029-0.253-0.065l0.005 0.002c-0.081-0.037-0.15-0.083-0.21-0.14l0 0 0.080-0.154c0.058 0.058 0.127 0.105 0.203 0.139l0.004 0.002c0.078 0.032 0.153 0.048 0.226 0.048 0.087 0 0.155-0.017 0.204-0.050 0.051-0.035 0.076-0.081 0.076-0.139 0-0.046-0.014-0.083-0.041-0.113-0.028-0.030-0.063-0.054-0.102-0.070l-0.002-0.001c-0.041-0.017-0.096-0.036-0.167-0.058-0.087-0.026-0.157-0.051-0.211-0.076-0.056-0.026-0.102-0.063-0.139-0.109l-0.001-0.001c-0.037-0.048-0.056-0.112-0.056-0.191 0-0.095 0.035-0.173 0.104-0.234 0.069-0.062 0.162-0.099 0.278-0.111v-0.224h0.135v0.223c0.068 0.005 0.134 0.019 0.198 0.041 0.066 0.023 0.123 0.051 0.175 0.085l-0.003-0.002-0.074 0.16c-0.054-0.035-0.117-0.064-0.184-0.084l-0.005-0.001c-0.064-0.020-0.124-0.030-0.178-0.030-0.075 0-0.136 0.015-0.182 0.045-0.045 0.028-0.067 0.068-0.067 0.119zM8.575 21.967h0.473v1.299h-0.178v-1.137h-0.295v-0.161zM9.274 21.967h0.972v0.139l-0.566 1.159h-0.189l0.555-1.137h-0.61l-0.002 0.187h-0.16v-0.349zM11.271 22.19c-0.041-0.026-0.088-0.046-0.138-0.059l-0.003-0.001c-0.046-0.014-0.099-0.022-0.154-0.022h-0c-0.125 0-0.221 0.043-0.288 0.13s-0.1 0.205-0.1 0.356c0 0.023 0.001 0.041 0.002 0.054 0.032-0.070 0.080-0.124 0.145-0.161s0.142-0.056 0.232-0.056c0.13 0 0.232 0.037 0.306 0.111 0.075 0.074 0.113 0.174 0.113 0.301 0 0.088-0.019 0.164-0.056 0.23-0.038 0.064-0.091 0.116-0.156 0.149l-0.002 0.001c-0.068 0.035-0.147 0.052-0.237 0.052-0.108 0-0.201-0.025-0.28-0.074-0.078-0.049-0.138-0.121-0.18-0.215-0.041-0.095-0.061-0.209-0.061-0.341 0-0.137 0.022-0.257 0.067-0.36 0.046-0.104 0.109-0.184 0.191-0.239 0.083-0.057 0.18-0.085 0.291-0.085 0.062 0 0.127 0.009 0.195 0.026 0.069 0.017 0.13 0.040 0.184 0.069l-0.070 0.135zM10.935 22.574c-0.063 0-0.118 0.013-0.165 0.039-0.047 0.025-0.083 0.058-0.109 0.1-0.022 0.037-0.035 0.081-0.035 0.129 0 0.003 0 0.006 0 0.009v-0c-0.001 0.043 0.009 0.085 0.032 0.126s0.056 0.075 0.1 0.102c0.046 0.027 0.101 0.041 0.167 0.041 0.089 0 0.16-0.025 0.213-0.074 0.054-0.049 0.082-0.117 0.082-0.204 0-0.082-0.026-0.147-0.078-0.195-0.051-0.048-0.119-0.072-0.206-0.072zM11.675 23.075c0.027 0 0.050 0.009 0.069 0.028 0.020 0.019 0.030 0.043 0.030 0.074 0 0.014-0.003 0.028-0.009 0.043-0.006 0.018-0.011 0.032-0.018 0.045l0.001-0.003-0.1 0.211h-0.095l0.074-0.21c-0.016-0.008-0.030-0.020-0.039-0.035l-0-0c-0.008-0.015-0.013-0.033-0.013-0.051 0-0 0-0 0-0.001v0c0-0.030 0.009-0.054 0.028-0.072 0.020-0.020 0.044-0.030 0.072-0.030zM12.532 21.96c0.174 0 0.309 0.057 0.403 0.171 0.094 0.113 0.141 0.275 0.141 0.486s-0.047 0.374-0.141 0.488c-0.094 0.114-0.228 0.171-0.403 0.171-0.176 0-0.31-0.057-0.404-0.171-0.093-0.114-0.139-0.276-0.139-0.488s0.046-0.373 0.139-0.486c0.094-0.114 0.229-0.171 0.404-0.171zM12.532 22.101c-0.24 0-0.36 0.172-0.36 0.516 0 0.171 0.030 0.299 0.091 0.386s0.15 0.13 0.269 0.13 0.208-0.043 0.269-0.13c0.061-0.087 0.091-0.215 0.091-0.386 0-0.344-0.12-0.516-0.36-0.516zM13.851 21.96c0.174 0 0.309 0.057 0.403 0.171 0.094 0.113 0.141 0.275 0.141 0.486s-0.047 0.374-0.141 0.488c-0.094 0.114-0.228 0.171-0.403 0.171-0.176 0-0.31-0.057-0.404-0.171-0.093-0.114-0.139-0.276-0.139-0.488s0.046-0.373 0.139-0.486c0.094-0.114 0.229-0.171 0.404-0.171zM13.851 22.101c-0.24 0-0.36 0.172-0.36 0.516 0 0.171 0.030 0.299 0.091 0.386s0.15 0.13 0.269 0.13 0.208-0.043 0.269-0.13c0.061-0.087 0.091-0.215 0.091-0.386 0-0.344-0.12-0.516-0.36-0.516zM15.17 21.96c0.174 0 0.309 0.057 0.403 0.171 0.094 0.113 0.141 0.275 0.141 0.486s-0.047 0.374-0.141 0.488c-0.094 0.114-0.228 0.171-0.403 0.171-0.176 0-0.31-0.057-0.404-0.171-0.093-0.114-0.139-0.276-0.139-0.488s0.046-0.373 0.139-0.486c0.094-0.114 0.229-0.171 0.404-0.171zM15.17 22.101c-0.24 0-0.36 0.172-0.36 0.516 0 0.171 0.030 0.299 0.091 0.386s0.15 0.13 0.269 0.13 0.208-0.043 0.269-0.13c0.061-0.087 0.091-0.215 0.091-0.386 0-0.344-0.12-0.516-0.36-0.516z"></path>
<path fill="#637381" d="M7.74 19.556l-0.187-0.489h-0.003c0.004 0.039 0.005 0.085 0.005 0.138v0.351h-0.059v-0.552h0.097l0.175 0.455h0.003l0.176-0.455h0.096v0.552h-0.064v-0.356c0-0.041 0.002-0.085 0.005-0.133h-0.003l-0.189 0.488h-0.052zM8.398 19.563c-0.061 0-0.109-0.019-0.145-0.056s-0.053-0.089-0.053-0.155c0-0.067 0.016-0.12 0.049-0.159s0.077-0.059 0.132-0.059c0.052 0 0.093 0.017 0.123 0.051s0.045 0.079 0.045 0.135v0.040h-0.285c0.001 0.049 0.013 0.085 0.037 0.111s0.056 0.038 0.099 0.038c0.045 0 0.088-0.009 0.132-0.028v0.056c-0.018 0.008-0.039 0.015-0.061 0.020l-0.002 0c-0.020 0.004-0.043 0.006-0.066 0.006-0.002 0-0.004 0-0.005-0h0zM8.381 19.187c-0.033 0-0.060 0.011-0.080 0.032s-0.031 0.052-0.035 0.090h0.216c0-0.040-0.009-0.070-0.026-0.091s-0.043-0.032-0.075-0.032zM8.885 19.134c0.018 0 0.035 0.001 0.049 0.004l-0.009 0.058c-0.014-0.003-0.029-0.005-0.045-0.006h-0c-0.033 0-0.062 0.014-0.086 0.041s-0.035 0.061-0.035 0.102v0.222h-0.063v-0.414h0.052l0.007 0.077h0.003c0.015-0.027 0.034-0.048 0.055-0.062s0.045-0.022 0.071-0.022zM9.243 19.563c-0.001 0-0.001 0-0.002 0-0.026 0-0.051-0.005-0.073-0.015l0.001 0c-0.023-0.011-0.042-0.026-0.056-0.046l-0-0h-0.004c0.003 0.024 0.004 0.047 0.004 0.069v0.17h-0.063v-0.599h0.051l0.009 0.057h0.003c0.016-0.023 0.035-0.039 0.056-0.049s0.046-0.015 0.074-0.015c0.055 0 0.097 0.019 0.127 0.056s0.045 0.090 0.045 0.158c0 0.068-0.015 0.121-0.046 0.159s-0.072 0.056-0.126 0.056zM9.234 19.188c-0.042 0-0.073 0.012-0.092 0.035s-0.029 0.061-0.029 0.112v0.014c0 0.058 0.010 0.1 0.029 0.125s0.050 0.037 0.093 0.037c0.036 0 0.064-0.014 0.084-0.043s0.031-0.069 0.031-0.12c0-0.052-0.010-0.091-0.031-0.119s-0.049-0.041-0.085-0.041zM9.818 19.556l-0.012-0.059h-0.003c-0.021 0.026-0.041 0.044-0.062 0.053s-0.046 0.014-0.077 0.014c-0.041 0-0.073-0.011-0.097-0.032s-0.035-0.051-0.035-0.090c0-0.084 0.067-0.127 0.2-0.131l0.070-0.002v-0.026c0-0.032-0.007-0.056-0.021-0.072s-0.036-0.023-0.067-0.023c-0.034 0-0.073 0.011-0.117 0.032l-0.019-0.048c0.020-0.011 0.043-0.020 0.067-0.026s0.049-0.009 0.073-0.009c0.049 0 0.086 0.011 0.109 0.033s0.036 0.057 0.036 0.105v0.282h-0.046zM9.676 19.511c0.039 0 0.070-0.011 0.092-0.032s0.034-0.051 0.034-0.090v-0.037l-0.063 0.003c-0.050 0.002-0.086 0.010-0.108 0.023s-0.033 0.035-0.033 0.064c0 0.023 0.007 0.040 0.020 0.052s0.033 0.018 0.058 0.018zM10.166 19.511c0.020-0 0.040-0.003 0.058-0.008l-0.002 0v0.048c-0.009 0.004-0.019 0.007-0.030 0.008l-0.001 0c-0.011 0.002-0.023 0.003-0.035 0.003h-0c-0.080 0-0.12-0.042-0.12-0.126v-0.246h-0.059v-0.030l0.059-0.026 0.026-0.088h0.036v0.096h0.12v0.049h-0.12v0.243c0 0.025 0.006 0.044 0.018 0.057s0.028 0.020 0.049 0.020zM10.407 19.556h-0.063v-0.414h0.063v0.414zM10.339 19.030c0-0.014 0.003-0.025 0.011-0.031s0.015-0.010 0.025-0.010c0 0 0.001 0 0.001 0h-0c0.010 0 0.019 0.003 0.026 0.010s0.011 0.017 0.011 0.031c0 0.014-0.004 0.025-0.011 0.032s-0.016 0.010-0.025 0.010c-0 0-0 0-0.001 0h0c-0 0-0.001 0-0.001 0-0.010 0-0.019-0.004-0.025-0.010v0c-0.007-0.007-0.011-0.018-0.011-0.032zM11.084 19.443c0 0.038-0.014 0.068-0.043 0.089s-0.069 0.031-0.121 0.031c-0.055 0-0.098-0.009-0.128-0.026v-0.058c0.020 0.010 0.041 0.018 0.064 0.024s0.045 0.009 0.066 0.009c0.033 0 0.058-0.005 0.075-0.015 0.016-0.009 0.027-0.026 0.027-0.046 0-0.001-0-0.002-0-0.003v0c0-0.016-0.007-0.030-0.021-0.041s-0.041-0.025-0.082-0.041c-0.039-0.014-0.066-0.027-0.082-0.037-0.015-0.009-0.027-0.022-0.036-0.036l-0-0c-0.007-0.013-0.012-0.029-0.012-0.046 0-0.001 0-0.002 0-0.003v0c0-0.034 0.014-0.060 0.041-0.080s0.065-0.029 0.113-0.029c0.045 0 0.088 0.009 0.131 0.027l-0.022 0.051c-0.041-0.017-0.079-0.026-0.113-0.026-0.030 0-0.052 0.005-0.067 0.014s-0.023 0.022-0.023 0.038c0 0.011 0.003 0.021 0.008 0.028s0.015 0.015 0.028 0.022c0.013 0.007 0.037 0.017 0.072 0.031 0.049 0.018 0.082 0.036 0.099 0.054s0.026 0.041 0.026 0.068zM11.288 19.556h-0.063v-0.414h0.063v0.414zM11.22 19.030c0-0.014 0.004-0.025 0.011-0.031s0.015-0.010 0.025-0.010c0 0 0.001 0 0.001 0h-0c0.010 0 0.019 0.003 0.026 0.010s0.011 0.017 0.011 0.031c0 0.014-0.004 0.025-0.011 0.032s-0.016 0.010-0.026 0.010c-0 0-0 0-0.001 0h0c-0 0-0.001 0-0.001 0-0.010 0-0.019-0.004-0.025-0.010v0c-0.007-0.007-0.011-0.018-0.011-0.032zM11.741 19.5h-0.003c-0.029 0.042-0.072 0.063-0.13 0.063-0.054 0-0.096-0.019-0.126-0.055s-0.045-0.090-0.045-0.158 0.015-0.121 0.045-0.159c0.030-0.038 0.072-0.057 0.126-0.057 0.056 0 0.099 0.020 0.129 0.061h0.005l-0.003-0.030-0.002-0.029v-0.168h0.063v0.587h-0.051l-0.008-0.055zM11.616 19.511c0.043 0 0.074-0.012 0.093-0.035s0.029-0.061 0.029-0.113v-0.013c0-0.059-0.010-0.1-0.029-0.125s-0.050-0.038-0.093-0.038c-0.037 0-0.065 0.014-0.085 0.043s-0.029 0.069-0.029 0.121c0 0.053 0.010 0.093 0.029 0.12s0.048 0.040 0.085 0.040zM12.329 19.348c0 0.067-0.017 0.12-0.051 0.158s-0.081 0.057-0.141 0.057c-0.037 0-0.070-0.009-0.098-0.026s-0.052-0.043-0.066-0.074l-0-0.001c-0.016-0.032-0.023-0.070-0.023-0.114 0-0.067 0.017-0.12 0.051-0.157s0.081-0.057 0.14-0.057c0.058 0 0.104 0.019 0.138 0.058s0.051 0.091 0.051 0.156zM12.014 19.348c0 0.053 0.011 0.093 0.032 0.121s0.052 0.041 0.093 0.041c0.041 0 0.072-0.014 0.093-0.041s0.032-0.068 0.032-0.121c0-0.053-0.011-0.092-0.032-0.12s-0.052-0.041-0.094-0.041c-0.041 0-0.072 0.013-0.093 0.040s-0.031 0.067-0.031 0.12zM13.005 19.556v-0.269c0-0.033-0.007-0.058-0.021-0.074s-0.036-0.025-0.066-0.025c-0.039 0-0.068 0.011-0.086 0.034s-0.028 0.057-0.028 0.103v0.231h-0.063v-0.269c0-0.033-0.007-0.058-0.021-0.074s-0.036-0.025-0.066-0.025c-0.039 0-0.068 0.012-0.086 0.035s-0.027 0.062-0.027 0.115v0.217h-0.063v-0.414h0.051l0.010 0.057h0.003c0.012-0.020 0.028-0.036 0.050-0.047s0.046-0.017 0.072-0.017c0.065 0 0.107 0.023 0.127 0.070h0.003c0.012-0.022 0.030-0.039 0.054-0.051 0.022-0.012 0.049-0.019 0.077-0.019 0.001 0 0.002 0 0.003 0h-0c0.047 0 0.082 0.012 0.105 0.036s0.035 0.062 0.035 0.115v0.27h-0.063zM13.295 19.142v0.268c0 0.034 0.008 0.059 0.023 0.076s0.039 0.025 0.072 0.025c0.043 0 0.075-0.012 0.095-0.035s0.030-0.062 0.030-0.116v-0.217h0.063v0.414h-0.052l-0.009-0.055h-0.003c-0.013 0.020-0.031 0.036-0.053 0.047l-0.001 0c-0.023 0.011-0.049 0.016-0.078 0.016-0.050 0-0.088-0.012-0.113-0.036s-0.037-0.062-0.037-0.115v-0.271h0.063zM14.032 19.556v-0.268c0-0.034-0.008-0.059-0.023-0.075s-0.039-0.025-0.072-0.025c-0.043 0-0.075 0.012-0.095 0.035s-0.030 0.062-0.030 0.116v0.217h-0.063v-0.414h0.051l0.010 0.057h0.003c0.013-0.020 0.031-0.036 0.054-0.047s0.049-0.017 0.077-0.017c0.050 0 0.087 0.012 0.112 0.036s0.038 0.062 0.038 0.115v0.27h-0.063zM14.428 19.563c-0.060 0-0.106-0.018-0.139-0.055s-0.049-0.089-0.049-0.157c0-0.069 0.017-0.123 0.050-0.16s0.081-0.057 0.143-0.057c0.020 0 0.040 0.002 0.060 0.006s0.035 0.009 0.047 0.015l-0.019 0.053c-0.013-0.005-0.028-0.010-0.043-0.013l-0.002-0c-0.013-0.003-0.028-0.005-0.043-0.006h-0c-0.084 0-0.126 0.054-0.126 0.161 0 0.051 0.010 0.090 0.031 0.117s0.051 0.041 0.091 0.041c0.038-0 0.075-0.009 0.108-0.023l-0.002 0.001v0.055c-0.028 0.014-0.063 0.022-0.105 0.022zM14.729 19.142v0.268c0 0.034 0.008 0.059 0.023 0.076s0.039 0.025 0.072 0.025c0.043 0 0.075-0.012 0.095-0.035s0.030-0.062 0.030-0.116v-0.217h0.063v0.414h-0.052l-0.009-0.055h-0.003c-0.013 0.020-0.031 0.036-0.053 0.047l-0.001 0c-0.023 0.011-0.049 0.016-0.078 0.016-0.050 0-0.088-0.012-0.113-0.036s-0.037-0.062-0.037-0.115v-0.271h0.063zM15.246 19.556h-0.063v-0.587h0.063v0.587zM15.991 19.556h-0.363v-0.054l0.145-0.146c0.044-0.045 0.073-0.077 0.088-0.096s0.025-0.038 0.032-0.056c0.007-0.017 0.011-0.037 0.011-0.057 0-0 0-0.001 0-0.001v0c0-0.029-0.009-0.053-0.027-0.070s-0.043-0.026-0.074-0.026c-0.023 0-0.045 0.004-0.065 0.011s-0.043 0.021-0.068 0.041l-0.033-0.043c0.051-0.042 0.106-0.063 0.166-0.063 0.052 0 0.092 0.013 0.122 0.040s0.044 0.062 0.044 0.107c0 0.035-0.010 0.070-0.029 0.104s-0.056 0.078-0.11 0.13l-0.121 0.118v0.003h0.284v0.058zM16.116 19.32c0-0.108 0.021-0.189 0.063-0.243s0.105-0.081 0.187-0.081c0.028 0 0.051 0.002 0.067 0.007v0.054c-0.019-0.006-0.040-0.009-0.063-0.009-0.001 0-0.003 0-0.004 0h0c-0.059 0-0.104 0.018-0.136 0.055s-0.048 0.095-0.051 0.174h0.005c0.028-0.043 0.071-0.065 0.131-0.065 0.050 0 0.089 0.015 0.117 0.045s0.043 0.071 0.043 0.122c0 0.057-0.016 0.102-0.047 0.136s-0.073 0.049-0.127 0.049c-0.057 0-0.102-0.021-0.136-0.064s-0.050-0.103-0.050-0.179zM16.301 19.51c0.036 0 0.063-0.011 0.083-0.034s0.030-0.055 0.030-0.098c0-0.036-0.009-0.065-0.028-0.086s-0.046-0.031-0.082-0.031c-0.023 0-0.043 0.005-0.062 0.014s-0.034 0.022-0.045 0.038l-0 0c-0.010 0.014-0.016 0.032-0.017 0.051v0c0 0.026 0.005 0.050 0.015 0.073s0.024 0.040 0.043 0.053c0.019 0.013 0.040 0.020 0.063 0.020zM17.125 19.443c0 0.038-0.014 0.068-0.043 0.089s-0.069 0.031-0.121 0.031c-0.055 0-0.098-0.009-0.128-0.026v-0.058c0.020 0.010 0.041 0.018 0.064 0.024s0.045 0.009 0.066 0.009c0.033 0 0.058-0.005 0.076-0.015 0.016-0.009 0.026-0.026 0.026-0.046 0-0.001-0-0.002-0-0.003v0c0-0.016-0.007-0.030-0.021-0.041s-0.041-0.025-0.082-0.041c-0.038-0.014-0.066-0.027-0.082-0.037-0.015-0.009-0.027-0.022-0.036-0.036l-0-0c-0.007-0.013-0.012-0.029-0.012-0.046 0-0.001 0-0.002 0-0.003v0c0-0.034 0.014-0.060 0.041-0.080s0.065-0.029 0.113-0.029c0.045 0 0.088 0.009 0.131 0.027l-0.022 0.051c-0.041-0.017-0.079-0.026-0.113-0.026-0.030 0-0.052 0.005-0.067 0.014s-0.023 0.022-0.023 0.038c0 0.011 0.003 0.021 0.008 0.028s0.015 0.015 0.028 0.022c0.013 0.007 0.037 0.017 0.073 0.031 0.049 0.018 0.082 0.036 0.099 0.054s0.026 0.041 0.026 0.068zM17.4 19.511c0 0 0 0 0 0 0.020 0 0.040-0.003 0.058-0.008l-0.002 0v0.048c-0.009 0.004-0.019 0.007-0.030 0.008l-0.001 0c-0.011 0.002-0.023 0.003-0.035 0.003h-0c-0.080 0-0.12-0.042-0.12-0.126v-0.246h-0.059v-0.030l0.059-0.026 0.026-0.088h0.036v0.096h0.12v0.049h-0.12v0.243c0 0.025 0.006 0.044 0.018 0.057s0.028 0.020 0.049 0.020zM17.767 19.134c0.018 0 0.035 0.001 0.049 0.004l-0.009 0.058c-0.014-0.003-0.029-0.005-0.045-0.006h-0c-0.033 0-0.062 0.014-0.086 0.041s-0.035 0.061-0.035 0.102v0.222h-0.063v-0.414h0.052l0.007 0.077h0.003c0.015-0.027 0.034-0.048 0.055-0.062s0.045-0.022 0.071-0.022zM18.107 19.563c-0.061 0-0.109-0.019-0.145-0.056s-0.053-0.089-0.053-0.155c0-0.067 0.016-0.12 0.049-0.159s0.077-0.059 0.132-0.059c0.052 0 0.093 0.017 0.123 0.051s0.045 0.079 0.045 0.135v0.040h-0.285c0.001 0.049 0.013 0.085 0.037 0.111s0.056 0.038 0.098 0.038c0.048-0 0.093-0.011 0.134-0.029l-0.002 0.001v0.056c-0.018 0.008-0.039 0.015-0.061 0.020l-0.002 0c-0.020 0.004-0.043 0.006-0.066 0.006-0.002 0-0.004 0-0.005-0h0zM18.090 19.187c-0.033 0-0.060 0.011-0.080 0.032s-0.031 0.052-0.035 0.090h0.216c0-0.040-0.009-0.070-0.026-0.091s-0.043-0.032-0.076-0.032zM18.579 19.563c-0.061 0-0.109-0.019-0.145-0.056s-0.053-0.089-0.053-0.155c0-0.067 0.016-0.12 0.049-0.159s0.077-0.059 0.132-0.059c0.052 0 0.093 0.017 0.123 0.051s0.045 0.079 0.045 0.135v0.040h-0.285c0.001 0.049 0.013 0.085 0.037 0.111s0.056 0.038 0.098 0.038c0.045 0 0.089-0.009 0.132-0.028v0.056c-0.018 0.008-0.039 0.015-0.061 0.020l-0.002 0c-0.020 0.004-0.043 0.006-0.066 0.006-0.002 0-0.004 0-0.005-0h0zM18.562 19.187c-0.033 0-0.060 0.011-0.080 0.032s-0.031 0.052-0.035 0.090h0.216c0-0.040-0.009-0.070-0.026-0.091s-0.043-0.032-0.076-0.032zM19.011 19.511c0.020 0 0.040-0.003 0.058-0.008l-0.002 0v0.048c-0.009 0.004-0.019 0.007-0.030 0.008l-0.001 0c-0.011 0.002-0.023 0.003-0.035 0.003h-0c-0.080 0-0.12-0.042-0.12-0.126v-0.246h-0.059v-0.030l0.059-0.026 0.026-0.088h0.036v0.096h0.12v0.049h-0.12v0.243c0 0.025 0.006 0.044 0.018 0.057s0.028 0.020 0.049 0.020zM19.255 19.466l0.006 0.009c-0.007 0.025-0.016 0.054-0.028 0.088s-0.025 0.065-0.038 0.093h-0.047c0.007-0.026 0.014-0.058 0.022-0.097s0.014-0.069 0.017-0.092h0.069zM20.083 19.004v0.357c0 0.063-0.019 0.112-0.057 0.148s-0.090 0.054-0.157 0.054c-0.066 0-0.118-0.018-0.154-0.054s-0.054-0.086-0.054-0.149v-0.356h0.064v0.36c0 0.046 0.013 0.081 0.038 0.106s0.062 0.037 0.111 0.037c0.047 0 0.082-0.012 0.108-0.037s0.038-0.061 0.038-0.107v-0.359h0.064zM20.667 19.556h-0.076l-0.201-0.268-0.058 0.051v0.216h-0.064v-0.552h0.064v0.274l0.25-0.274h0.076l-0.222 0.24 0.23 0.312z"></path>
<path fill="#98a4af" d="M7.583 24.966h-0.090v-0.552h0.311v0.076h-0.222v0.172h0.208v0.077h-0.208v0.226zM8.376 24.414v0.357c0 0.041-0.009 0.077-0.026 0.107s-0.044 0.055-0.075 0.070l-0.001 0c-0.033 0.016-0.072 0.025-0.118 0.025-0.068 0-0.122-0.018-0.16-0.054s-0.057-0.086-0.057-0.149v-0.356h0.091v0.349c0 0.046 0.011 0.079 0.032 0.101s0.054 0.032 0.097 0.032c0.085 0 0.128-0.045 0.128-0.134v-0.348h0.090zM9.015 24.966h-0.111l-0.271-0.44h-0.003l0.002 0.024c0.003 0.047 0.005 0.090 0.005 0.128v0.287h-0.082v-0.552h0.109l0.271 0.438h0.002c-0.001-0.006-0.002-0.027-0.003-0.063s-0.002-0.065-0.002-0.085v-0.289h0.083v0.552zM9.648 24.685c0 0.091-0.025 0.161-0.076 0.209s-0.123 0.072-0.219 0.072h-0.154v-0.552h0.171c0.088 0 0.156 0.024 0.205 0.071s0.073 0.114 0.073 0.2zM9.553 24.688c0-0.132-0.062-0.198-0.185-0.198h-0.078v0.4h0.064c0.133 0 0.199-0.067 0.199-0.202zM9.806 24.966v-0.552h0.090v0.552h-0.090zM10.54 24.966h-0.111l-0.271-0.44h-0.003l0.002 0.024c0.004 0.047 0.005 0.090 0.005 0.128v0.287h-0.082v-0.552h0.109l0.271 0.438h0.002c-0.001-0.013-0.002-0.035-0.003-0.057l-0-0.006c-0.001-0.036-0.002-0.065-0.002-0.085v-0.289h0.083v0.552zM10.95 24.667h0.203v0.277c-0.033 0.011-0.065 0.018-0.096 0.023-0.029 0.004-0.062 0.007-0.096 0.007-0.001 0-0.002 0-0.003 0h0c-0.083 0-0.148-0.025-0.193-0.074s-0.068-0.119-0.068-0.209c0-0.089 0.026-0.158 0.077-0.208s0.121-0.075 0.211-0.075c0.001 0 0.001 0 0.002 0 0.058 0 0.114 0.012 0.164 0.034l-0.003-0.001-0.032 0.075c-0.039-0.019-0.085-0.030-0.134-0.031h-0c-0.059 0-0.105 0.018-0.14 0.055s-0.051 0.087-0.051 0.152c0 0.067 0.015 0.119 0.046 0.154s0.075 0.052 0.133 0.052c0.029 0 0.060-0.004 0.094-0.011v-0.142h-0.114v-0.077zM11.655 24.671h0.063c0.042 0 0.072-0.008 0.091-0.023s0.028-0.039 0.028-0.070c0-0.031-0.010-0.054-0.031-0.067s-0.051-0.020-0.092-0.020h-0.060v0.18zM11.655 24.746v0.22h-0.090v-0.552h0.156c0.071 0 0.124 0.013 0.158 0.040s0.051 0.067 0.051 0.121c0 0.069-0.036 0.118-0.107 0.147l0.156 0.244h-0.103l-0.132-0.22h-0.089zM12.41 24.966h-0.312v-0.552h0.312v0.076h-0.222v0.15h0.208v0.076h-0.208v0.173h0.222v0.077zM13.058 24.69c0 0.067-0.013 0.123-0.039 0.169-0.024 0.044-0.063 0.078-0.11 0.096l-0.001 0 0.132 0.142h-0.121l-0.104-0.124h-0.015c-0.083 0-0.147-0.025-0.192-0.074s-0.067-0.12-0.067-0.211c0-0.091 0.022-0.161 0.067-0.21s0.109-0.073 0.192-0.073c0.082 0 0.145 0.025 0.19 0.074s0.067 0.119 0.067 0.209zM12.637 24.69c0 0.068 0.014 0.119 0.041 0.155s0.068 0.052 0.122 0.052c0.054 0 0.094-0.017 0.121-0.052s0.041-0.086 0.041-0.155c0-0.068-0.014-0.119-0.041-0.154s-0.067-0.052-0.121-0.052c-0.054 0-0.095 0.017-0.123 0.052s-0.041 0.086-0.041 0.154zM13.647 24.414v0.357c0 0.041-0.009 0.077-0.026 0.107s-0.044 0.055-0.075 0.070l-0.001 0c-0.033 0.016-0.072 0.025-0.118 0.025-0.068 0-0.122-0.018-0.16-0.054s-0.057-0.086-0.057-0.149v-0.356h0.091v0.349c0 0.046 0.011 0.079 0.032 0.101s0.054 0.032 0.097 0.032c0.085 0 0.128-0.045 0.128-0.134v-0.348h0.090zM14.139 24.966h-0.312v-0.552h0.312v0.076h-0.222v0.15h0.208v0.076h-0.208v0.173h0.222v0.077zM14.616 24.816c0 0.049-0.018 0.087-0.053 0.115s-0.084 0.042-0.147 0.042-0.113-0.010-0.153-0.029v-0.085c0.025 0.012 0.052 0.021 0.080 0.028s0.055 0.010 0.079 0.010c0.036 0 0.062-0.007 0.079-0.020 0.016-0.012 0.026-0.031 0.026-0.052 0-0.001 0-0.002-0-0.002v0c0-0 0-0.001 0-0.001 0-0.021-0.009-0.039-0.023-0.052l-0-0c-0.016-0.014-0.048-0.031-0.097-0.051-0.050-0.020-0.086-0.044-0.106-0.070s-0.031-0.058-0.031-0.094c0-0.046 0.016-0.082 0.049-0.109s0.077-0.040 0.132-0.040c0.053 0 0.105 0.012 0.158 0.035l-0.029 0.074c-0.049-0.021-0.093-0.031-0.131-0.031-0.029 0-0.051 0.006-0.066 0.019-0.014 0.011-0.023 0.029-0.023 0.048 0 0.001 0 0.002 0 0.002v-0c0 0.014 0.003 0.027 0.009 0.037s0.016 0.020 0.030 0.029 0.039 0.021 0.075 0.036c0.041 0.017 0.070 0.033 0.089 0.047s0.033 0.031 0.041 0.049c0.009 0.018 0.013 0.040 0.013 0.065zM14.952 24.966h-0.090v-0.474h-0.162v-0.077h0.415v0.077h-0.162v0.474z"></path>
<path fill="#000" d="M5.063-0.039h20.174v15.536h-20.174z"></path>
<path fill="#13c296" d="M3.246 9.43h3.71c0.256 0 0.464 0.208 0.464 0.464v3.71c0 0.256-0.208 0.464-0.464 0.464h-3.71c-0.256 0-0.464-0.208-0.464-0.464v-3.71c0-0.256 0.208-0.464 0.464-0.464z"></path>
</svg>
