<!-- Generated by IcoMoon.io -->
<svg version="1.1" xmlns="http://www.w3.org/2000/svg" width="32" height="32" viewBox="0 0 32 32">
<title>Logo</title>
<path fill="#f2994a" d="M16 32c8.836 0 16-7.164 16-16s-7.164-16-16-16-16 7.164-16 16 7.164 16 16 16z"></path>
<path fill="#fff" d="M11.556 9.778h8.889c0.982 0 1.778 0.796 1.778 1.778v1.778c0 0.982-0.796 1.778-1.778 1.778h-8.889c-0.982 0-1.778-0.796-1.778-1.778v-1.778c0-0.982 0.796-1.778 1.778-1.778z"></path>
<path fill="#fff" d="M11.556 16.889h8.889c0.982 0 1.778 0.796 1.778 1.778v1.778c0 0.982-0.796 1.778-1.778 1.778h-8.889c-0.982 0-1.778-0.796-1.778-1.778v-1.778c0-0.982 0.796-1.778 1.778-1.778z"></path>
</svg>
