<!-- Generated by IcoMoon.io -->
<svg version="1.1" xmlns="http://www.w3.org/2000/svg" width="32" height="32" viewBox="0 0 32 32">
<title>LTE</title>
<path fill="#99efd0" opacity="0.3" d="M9.675 25.24l-1.701 2.049c-3.252-2.704-5.307-6.751-5.307-11.277 0-0.004 0-0.009 0-0.013v0.001c0-4.413 1.964-8.511 5.292-11.28l1.705 2.051c-2.654 2.211-4.331 5.518-4.331 9.216 0 0.005 0 0.010 0 0.014v-0.001c0 0.005 0 0.010 0 0.016 0 3.703 1.681 7.013 4.322 9.209l0.020 0.016zM22.325 25.24l1.703 2.051c3.251-2.704 5.305-6.75 5.305-11.276 0-0.005 0-0.010 0-0.015v0.001c0-4.413-1.964-8.511-5.292-11.28l-1.705 2.051c2.654 2.211 4.331 5.517 4.331 9.215 0 0.005 0 0.010 0 0.015v-0.001c0 0.005 0 0.010 0 0.016 0 3.703-1.681 7.013-4.322 9.209l-0.020 0.016zM18.904 21.147l1.697 2.057c2.082-1.721 3.399-4.304 3.399-7.195 0-0.003 0-0.007 0-0.010v0c0-2.813-1.253-5.427-3.379-7.187l-1.701 2.053c1.479 1.228 2.413 3.068 2.413 5.125 0 0.003 0 0.006 0 0.008v-0c0 0.002 0 0.005 0 0.008 0 2.065-0.941 3.91-2.418 5.13l-0.011 0.009zM11.4 23.204l1.697-2.057c-1.489-1.229-2.431-3.074-2.431-5.14 0-0.002 0-0.005 0-0.007v0c0-2.012 0.895-3.875 2.413-5.133l-1.7-2.053c-2.071 1.721-3.38 4.297-3.38 7.179 0 0.003 0 0.005 0 0.008v-0c0 2.823 1.263 5.443 3.4 7.204z"></path>
<path fill="#99efd0" d="M16 18.667c1.473 0 2.667-1.194 2.667-2.667s-1.194-2.667-2.667-2.667v0c-1.473 0-2.667 1.194-2.667 2.667s1.194 2.667 2.667 2.667v0z"></path>
</svg>
