<!-- Generated by IcoMoon.io -->
<svg version="1.1" xmlns="http://www.w3.org/2000/svg" width="145" height="32" viewBox="0 0 145 32">
<title>technologic-2</title>
<path fill="#fff" d="M10.985 17.43l8.549 13.5c0.193 0.291 0.52 0.481 0.89 0.481 0.015 0 0.030-0 0.045-0.001l-0.002 0h3.167c0.005 0 0.011 0 0.016 0 0.447 0 0.829-0.275 0.988-0.665l0.003-0.007c0.051-0.121 0.080-0.262 0.080-0.41 0-0.004-0-0.008-0-0.011v0.001-28.59c-0.005-0.475-0.308-0.878-0.731-1.031l-0.008-0.002c-0.107-0.038-0.23-0.061-0.358-0.061-0.346 0-0.654 0.161-0.853 0.413l-0.002 0.002-11.783 15.070c-0.123 0.185-0.196 0.412-0.196 0.656s0.073 0.471 0.198 0.66l-0.003-0.004zM1.375 31.406h5.639c0.004 0 0.010 0 0.015 0 0.447 0 0.83-0.275 0.99-0.665l0.003-0.007c0.051-0.121 0.080-0.262 0.080-0.41 0-0.004-0-0.008-0-0.012v0.001-7.249c-0.008-0.474-0.311-0.875-0.733-1.028l-0.008-0.002c-0.107-0.038-0.23-0.061-0.358-0.061-0.346 0-0.654 0.161-0.853 0.412l-0.002 0.002-5.639 7.249c-0.135 0.182-0.216 0.412-0.216 0.66 0 0.392 0.203 0.737 0.509 0.936l0.004 0.003c0.162 0.105 0.359 0.169 0.57 0.172h0.001zM102.106 15.105c-0.066-0.081-0.134-0.153-0.208-0.22l-0.002-0.001-0.118-0.101-0.059-0.052c-0.255-0.218-0.541-0.415-0.845-0.582l-0.026-0.013c-0.303-0.187-0.653-0.355-1.020-0.487l-0.040-0.012c-0.327-0.123-0.718-0.23-1.121-0.304l-0.043-0.007c-0.36-0.068-0.773-0.106-1.196-0.106-0.667 0-1.312 0.096-1.921 0.276l0.048-0.012c-0.597 0.17-1.169 0.415-1.707 0.727-0.527 0.311-1.013 0.689-1.446 1.125-0.431 0.439-0.811 0.927-1.132 1.452-0.329 0.529-0.578 1.104-0.745 1.705-0.168 0.57-0.264 1.225-0.264 1.903s0.096 1.333 0.276 1.952l-0.012-0.049c0.17 0.599 0.421 1.172 0.745 1.702 0.321 0.526 0.702 1.013 1.132 1.452 0.436 0.437 0.923 0.816 1.451 1.127 0.538 0.304 1.108 0.548 1.698 0.726 1.024 0.308 2.107 0.362 3.156 0.156 0.402-0.066 0.798-0.18 1.175-0.337 0.362-0.148 0.713-0.325 1.049-0.527 0.334-0.201 0.656-0.422 0.962-0.663 0.089-0.078 0.172-0.16 0.249-0.25l0.039-0.044c0.071-0.085 0.127-0.185 0.162-0.294l0.002-0.006 0.015-0.090c0.001-0.012 0.001-0.026 0.001-0.040 0-0.137-0.036-0.265-0.1-0.376l0.002 0.004-0.034-0.055c-0.029-0.047-0.059-0.088-0.093-0.126l0.001 0.001-0.091-0.124c-0.185-0.25-0.357-0.5-0.543-0.73-0.078-0.089-0.174-0.16-0.283-0.207l-0.005-0.002c-0.051-0.018-0.109-0.028-0.17-0.028s-0.119 0.010-0.174 0.029l0.004-0.001c-0.164 0.075-0.305 0.173-0.425 0.292l0-0-0.162 0.139c-0.162 0.135-0.249 0.223-0.475 0.383-0.19 0.147-0.404 0.28-0.632 0.388l-0.021 0.009c-0.251 0.129-0.517 0.223-0.793 0.281-0.905 0.197-1.847 0.098-2.693-0.286-1.114-0.514-1.983-1.402-2.458-2.5l-0.012-0.032c-0.244-0.537-0.387-1.164-0.387-1.824s0.142-1.288 0.398-1.852l-0.011 0.028c0.242-0.567 0.585-1.087 1.012-1.53 0.414-0.418 0.897-0.768 1.43-1.031l0.031-0.014c0.498-0.244 1.083-0.386 1.701-0.386 0.29 0 0.573 0.031 0.845 0.091l-0.026-0.005c0.283 0.066 0.562 0.155 0.833 0.266 0.258 0.111 0.506 0.24 0.743 0.389 0.496 0.295 1.056 1.141 1.6 0.47l0.786-1.065c0.056-0.076 0.090-0.172 0.090-0.275 0-0.029-0.003-0.057-0.008-0.084l0 0.003c-0.015-0.131-0.064-0.248-0.137-0.345l0.001 0.002zM53.744 26.438l-8.599-19.727c-0.118-0.292-0.396-0.495-0.723-0.5h-1.379c-0.002 0-0.003-0-0.005-0-0.322 0-0.599 0.197-0.715 0.477l-0.002 0.005-8.622 19.722c-0.050 0.099-0.078 0.216-0.078 0.339 0 0.158 0.048 0.306 0.13 0.428l-0.002-0.003c0.139 0.223 0.383 0.369 0.661 0.369 0.002 0 0.005 0 0.007-0h1.272c0.005 0 0.011 0 0.016 0 0.32 0 0.593-0.197 0.706-0.476l0.002-0.005 2.068-4.868h10.454l2.055 4.868c0.118 0.293 0.399 0.496 0.727 0.5h1.241c0.015 0.001 0.032 0.002 0.049 0.002 0.254 0 0.479-0.123 0.619-0.312l0.001-0.002c0.111-0.137 0.178-0.314 0.178-0.506 0-0.112-0.023-0.219-0.064-0.316l0.002 0.005zM39.583 19.689l0.036-0.078 4.144-9.723 4.156 9.801h-8.336zM132.495 18.193c-0.232-0.815-0.571-1.527-1.008-2.167l0.016 0.025c-0.335-0.449-0.703-0.842-1.111-1.19l-0.010-0.008c-0.381-0.343-0.821-0.631-1.3-0.846l-0.032-0.013c-0.425-0.22-0.92-0.41-1.438-0.544l-0.050-0.011c-0.487-0.126-1.046-0.199-1.622-0.199-0.666 0-1.309 0.097-1.917 0.277l0.048-0.012c-0.585 0.164-1.145 0.409-1.662 0.726-0.513 0.321-0.986 0.702-1.412 1.135-0.417 0.431-0.772 0.922-1.051 1.455-0.277 0.495-0.509 1.069-0.666 1.672l-0.011 0.051c-0.157 0.544-0.247 1.17-0.247 1.816 0 0.397 0.034 0.785 0.099 1.163l-0.006-0.040c0.143 1.238 0.575 2.352 1.226 3.305l-0.016-0.025c0.327 0.441 0.703 0.841 1.121 1.194 0.398 0.357 0.848 0.647 1.334 0.864 0.474 0.239 0.974 0.425 1.488 0.551 1.754 0.433 3.606 0.148 5.151-0.791 0.533-0.337 0.996-0.711 1.411-1.131l0.001-0.001c0.405-0.415 0.747-0.889 1.014-1.406l0.022-0.049c0.056-0.075 0.089-0.169 0.089-0.271 0-0.076-0.018-0.147-0.051-0.21l0.001 0.003c-0.062-0.114-0.179-0.191-0.315-0.194h-2.056c-0.004-0-0.008-0-0.013-0-0.178 0-0.337 0.083-0.44 0.212l-0.001 0.001c-0.258 0.316-0.561 0.594-0.897 0.825-0.687 0.445-1.528 0.709-2.43 0.709-0.543 0-1.063-0.096-1.545-0.271l0.031 0.010c-0.508-0.189-0.948-0.436-1.341-0.74l0.012 0.009c-0.39-0.314-0.711-0.695-0.95-1.128l-0.010-0.019c-0.196-0.433-0.35-0.937-0.438-1.464l-0.005-0.036-0.012-0.064h0.069l10.565-0.023c0.433 0 0.679-0.271 0.679-0.751 0.003-0.078 0.005-0.17 0.005-0.262 0-0.762-0.117-1.496-0.334-2.186l0.014 0.052zM130.246 19.136l-8.55 0.039 0.022-0.073c0.155-0.522 0.371-0.978 0.645-1.392l-0.012 0.019c0.338-0.502 0.767-0.935 1.265-1.278 0.689-0.448 1.533-0.715 2.438-0.715 0.543 0 1.064 0.096 1.546 0.272l-0.031-0.010c0.478 0.175 0.926 0.421 1.329 0.731 0.395 0.315 0.722 0.708 0.962 1.154 0.209 0.368 0.359 0.767 0.444 1.182l0.015 0.069h-0.074zM68.923 25.435c0.426-0.439 0.8-0.927 1.113-1.452 0.311-0.54 0.554-1.119 0.722-1.719 0.167-0.57 0.262-1.224 0.262-1.902s-0.096-1.332-0.275-1.951l0.012 0.050c-0.519-1.841-1.695-3.349-3.254-4.287l-0.033-0.018c-0.53-0.309-1.095-0.554-1.684-0.726-0.568-0.172-1.22-0.271-1.895-0.271-0.975 0-1.901 0.206-2.738 0.577l0.043-0.017c-0.61 0.281-1.182 0.642-1.695 1.078l-0.091 0.078v-0.77c0.002-0.021 0.004-0.045 0.004-0.070 0-0.277-0.176-0.513-0.421-0.603l-0.004-0.001c-0.062-0.022-0.133-0.035-0.207-0.035-0.026 0-0.051 0.002-0.076 0.005l0.003-0h-1.082c-0.023-0.003-0.051-0.005-0.078-0.005-0.357 0-0.646 0.289-0.646 0.646 0 0.022 0.001 0.045 0.003 0.067l-0-0.003v16.594c-0 0.006-0 0.013-0 0.020 0 0.281 0.168 0.523 0.409 0.63l0.004 0.002c0.084 0.037 0.175 0.055 0.266 0.055h1.103c0.007 0 0.015 0 0.023 0 0.195 0 0.372-0.075 0.504-0.198l-0 0c0.121-0.123 0.196-0.292 0.196-0.479 0-0.008-0-0.015-0-0.023l0 0.001v-4.849l0.091 0.078c0.507 0.43 1.071 0.785 1.674 1.057 0.794 0.354 1.72 0.56 2.694 0.56 0.675 0 1.327-0.099 1.942-0.283l-0.048 0.012c0.597-0.169 1.17-0.414 1.707-0.726 0.529-0.309 1.017-0.686 1.451-1.12zM65.642 24.741c-0.514 0.247-1.117 0.391-1.754 0.391s-1.24-0.144-1.779-0.402l0.025 0.011c-0.571-0.263-1.054-0.62-1.453-1.056l-0.003-0.003c-0.408-0.431-0.743-0.938-0.98-1.496l-0.012-0.033c-0.228-0.534-0.361-1.156-0.361-1.809s0.133-1.274 0.373-1.839l-0.012 0.031c0.24-0.555 0.576-1.063 0.992-1.5 0.418-0.434 0.911-0.788 1.456-1.040 0.514-0.246 1.116-0.39 1.753-0.39s1.239 0.144 1.778 0.401l-0.025-0.011c0.537 0.256 1.023 0.607 1.435 1.038 0.41 0.438 0.738 0.946 0.972 1.502 0.229 0.534 0.363 1.155 0.363 1.807s-0.133 1.273-0.374 1.837l0.012-0.031c-0.253 0.59-0.581 1.097-0.979 1.54l0.004-0.005c-0.404 0.443-0.89 0.802-1.43 1.058zM75.735 13.418h-1.081c-0.024-0.003-0.052-0.005-0.080-0.005-0.281 0-0.519 0.18-0.607 0.43l-0.001 0.005c-0.023 0.065-0.037 0.14-0.037 0.217 0 0.025 0.001 0.049 0.004 0.073l-0-0.003v16.572c-0 0.004-0 0.009-0 0.015 0 0.189 0.075 0.36 0.197 0.485l-0-0c0.122 0.122 0.29 0.197 0.475 0.197 0.002 0 0.005 0 0.008-0h1.101c0.007 0 0.014 0 0.022 0 0.195 0 0.372-0.075 0.504-0.198l-0 0c0.122-0.121 0.197-0.289 0.197-0.475 0-0.009-0-0.018-0.001-0.026l0 0.001v-4.849l0.091 0.078c0.507 0.43 1.071 0.785 1.678 1.057 0.793 0.354 1.719 0.56 2.693 0.56 0.675 0 1.327-0.099 1.942-0.283l-0.048 0.012c0.65-0.187 1.216-0.435 1.74-0.745l-0.034 0.019c0.529-0.315 1.017-0.695 1.452-1.132 0.425-0.441 0.796-0.928 1.11-1.454 0.31-0.542 0.554-1.119 0.722-1.719 0.168-0.57 0.264-1.224 0.264-1.902s-0.096-1.332-0.276-1.951l0.012 0.049c-0.516-1.841-1.692-3.35-3.251-4.287l-0.033-0.018c-0.484-0.287-1.043-0.534-1.632-0.712l-0.055-0.014c-0.568-0.172-1.22-0.271-1.895-0.271-0.975 0-1.901 0.206-2.739 0.577l0.043-0.017c-0.612 0.279-1.182 0.642-1.695 1.077l-0.098 0.103v-0.751c0.003-0.024 0.005-0.051 0.005-0.079 0-0.274-0.171-0.508-0.413-0.601l-0.004-0.002c-0.065-0.025-0.139-0.039-0.217-0.039-0.022 0-0.044 0.001-0.066 0.003l0.003-0zM76.713 18.553c0.24-0.554 0.576-1.062 0.992-1.499 0.406-0.428 0.887-0.78 1.422-1.037l0.029-0.013c0.514-0.246 1.116-0.39 1.753-0.39s1.239 0.144 1.778 0.4l-0.025-0.011c0.544 0.254 1.036 0.607 1.455 1.040 0.41 0.437 0.738 0.945 0.972 1.499 0.231 0.534 0.365 1.155 0.365 1.807s-0.134 1.274-0.376 1.838l0.012-0.030c-0.235 0.566-0.565 1.086-0.975 1.538-0.405 0.442-0.891 0.8-1.43 1.057-0.514 0.246-1.118 0.39-1.755 0.39s-1.241-0.144-1.78-0.401l0.025 0.011c-0.569-0.264-1.051-0.621-1.449-1.056l-0.003-0.003c-0.409-0.431-0.744-0.938-0.981-1.496l-0.012-0.033c-0.232-0.539-0.367-1.165-0.367-1.824 0-0.645 0.13-1.26 0.364-1.819l-0.012 0.031zM116.357 13.931c0.002-0.019 0.003-0.042 0.003-0.065 0-0.182-0.074-0.346-0.194-0.465l-0-0c-0.115-0.112-0.272-0.182-0.445-0.182-0.030 0-0.060 0.002-0.090 0.006l0.003-0h-1.088c-0.023-0.003-0.049-0.005-0.076-0.005-0.275 0-0.508 0.177-0.593 0.422l-0.001 0.004c-0.031 0.091-0.042 0.187-0.031 0.283v7.954c0.009 0.466-0.092 0.928-0.293 1.348-0.172 0.384-0.427 0.725-0.743 0.999-0.31 0.258-0.66 0.462-1.035 0.603-0.341 0.132-0.736 0.208-1.149 0.208-0.532 0-1.035-0.127-1.479-0.352l0.019 0.009c-0.389-0.206-0.712-0.487-0.961-0.827l-0.005-0.008c-0.244-0.317-0.427-0.694-0.525-1.105l-0.004-0.020c-0.099-0.38-0.158-0.817-0.164-1.267l-0-0.004v-7.335c0.001-0.019 0.002-0.042 0.002-0.064 0-0.229-0.060-0.443-0.165-0.629l0.003 0.006c-0.152-0.157-0.365-0.254-0.601-0.254-0.031 0-0.061 0.002-0.091 0.005l0.004-0h-0.784c-0.009-0-0.019-0.001-0.029-0.001-0.236 0-0.449 0.096-0.603 0.25l-0 0c-0.155 0.172-0.25 0.401-0.25 0.653 0 0.025 0.001 0.049 0.003 0.073l-0-0.003v7.323c-0 0.026-0.001 0.057-0.001 0.087 0 0.811 0.129 1.591 0.367 2.323l-0.015-0.053c0.229 0.709 0.591 1.366 1.065 1.94 0.474 0.56 1.067 1.004 1.735 1.3 0.714 0.302 1.545 0.477 2.416 0.477 0.444 0 0.878-0.046 1.296-0.132l-0.041 0.007c0.332-0.080 0.657-0.192 0.969-0.332 0.292-0.135 0.561-0.315 0.801-0.529l0.172-0.16 0.094-0.094v0.558c-0 0.006-0 0.012-0 0.019 0 0.166 0.066 0.317 0.173 0.427l-0-0c0.124 0.153 0.312 0.25 0.522 0.25 0.009 0 0.019-0 0.028-0.001l-0.001 0h1.102c0.004 0 0.009 0 0.014 0 0.183 0 0.349-0.074 0.469-0.195v0c0.123-0.11 0.201-0.269 0.201-0.447 0-0.019-0.001-0.038-0.003-0.056l0 0.002v-12.953zM144.042 21.716c-0.238-0.496-0.566-0.913-0.966-1.246l-0.006-0.005c-0.428-0.354-0.919-0.654-1.449-0.878l-0.039-0.014c-0.532-0.23-1.16-0.432-1.811-0.572l-0.068-0.012c-0.361-0.083-0.669-0.18-0.966-0.299l0.045 0.016c-0.294-0.109-0.548-0.241-0.781-0.402l0.012 0.008c-0.322-0.199-0.571-0.49-0.711-0.838l-0.004-0.012c-0.039-0.119-0.061-0.256-0.061-0.398s0.022-0.279 0.063-0.408l-0.003 0.009c0.087-0.293 0.454-1.098 1.873-1.188 1.356-0.085 2.038 0.633 2.273 0.953 0.036 0.046 0.368 0.478 0.606 0.751 0.043 0.038 0.091 0.071 0.142 0.098 0.067 0.027 0.145 0.043 0.227 0.043 0.138 0 0.265-0.045 0.368-0.12l-0.002 0.001 0.828-0.62c0.178-0.108 0.294-0.301 0.294-0.521 0-0.002 0-0.003-0-0.005v0-0.025c-0.039-0.172-0.104-0.323-0.192-0.458l0.003 0.005c-0.264-0.38-0.525-0.711-0.804-1.025l0.010 0.011c-0.252-0.298-0.541-0.554-0.862-0.764l-0.015-0.009c-0.316-0.201-0.683-0.365-1.072-0.471l-0.028-0.007c-0.437-0.116-0.94-0.183-1.457-0.183-0.679 0-1.331 0.115-1.938 0.326l0.041-0.013c-0.574 0.176-1.071 0.455-1.494 0.817l0.006-0.005c-0.41 0.345-0.74 0.772-0.965 1.258l-0.009 0.022c-0.222 0.48-0.352 1.041-0.352 1.632 0 0.553 0.113 1.079 0.318 1.556l-0.010-0.026c0.203 0.455 0.505 0.859 0.88 1.184 0.387 0.335 0.822 0.632 1.29 0.875l0.037 0.018c0.489 0.239 1.066 0.455 1.666 0.619l0.071 0.016c0.176 0.041 0.352 0.087 0.535 0.138 0.183 0.049 0.362 0.098 0.543 0.14 0.321 0.078 0.633 0.193 0.926 0.345 0.247 0.119 0.466 0.289 0.642 0.5 0.145 0.212 0.232 0.473 0.232 0.755 0 0.298-0.097 0.574-0.261 0.797l0.003-0.004c-0.181 0.233-0.402 0.43-0.655 0.578-0.258 0.153-0.537 0.267-0.826 0.341-0.49 0.111-0.998 0.111-1.488 0-0.284-0.075-0.531-0.171-0.764-0.29l0.021 0.010c-0.255-0.129-0.474-0.279-0.672-0.452l0.004 0.003c-0.178-0.199-0.336-0.422-0.469-0.662l-0.010-0.019c-0.066-0.15-0.159-0.276-0.275-0.378l-0.001-0.001c-0.107-0.092-0.248-0.147-0.401-0.147-0.104 0-0.203 0.026-0.289 0.071l0.003-0.002-0.992 0.473c-0.159 0.063-0.284 0.182-0.353 0.333l-0.002 0.004c-0.023 0.059-0.037 0.127-0.037 0.198 0 0.041 0.004 0.080 0.013 0.118l-0.001-0.004c0.011 0.112 0.038 0.215 0.080 0.31l-0.003-0.006c0.171 0.454 0.415 0.876 0.721 1.25 0.34 0.409 0.754 0.748 1.22 1.001 0.404 0.247 0.873 0.441 1.373 0.556l0.032 0.006c1.137 0.271 2.325 0.234 3.442-0.111 0.623-0.179 1.165-0.463 1.633-0.837l-0.009 0.007c0.465-0.353 0.839-0.815 1.089-1.345 0.246-0.528 0.374-1.103 0.375-1.686 0-0.006 0-0.012 0-0.019 0-0.606-0.135-1.18-0.376-1.694l0.010 0.024z"></path>
</svg>
