<!-- Generated by IcoMoon.io -->
<svg version="1.1" xmlns="http://www.w3.org/2000/svg" width="145" height="32" viewBox="0 0 145 32">
<title>technologic-6</title>
<path fill="#fff" d="M18.575 0.848c-0.14 0.164-0.148 0.379-0.169 4.747-0.012 2.773-0.049 4.575-0.094 4.575-0.039 0-0.135-0.069-0.21-0.154-0.158-0.177-0.98-0.718-1.575-1.039-1.579-0.848-4.281-1.292-6.185-1.019-1.378 0.198-3.783 1.106-4.337 1.637-0.204 0.171-0.431 0.341-0.666 0.498l-0.029 0.018c-0.517 0.352-2.277 2.16-2.277 2.338 0 0.046-0.196 0.388-0.436 0.759-0.716 1.11-1.035 1.95-1.472 3.877-0.342 1.509-0.193 3.978 0.367 6.097 0.214 0.809 1.231 2.825 1.479 2.934 0.034 0.015 0.062 0.065 0.062 0.111 0 0.288 1.396 1.778 2.393 2.558 2.695 2.105 6.809 2.732 9.924 1.515 0.836-0.326 2.343-1.142 2.72-1.473l0.282-0.246 0.037 0.938c0.037 0.849 0.057 0.956 0.226 1.147l0.187 0.212h1.714c1.573 0 1.729-0.012 1.895-0.158l0.182-0.156v-13.876c0-12.23-0.012-13.893-0.116-13.998-0.063-0.065-0.358-0.255-0.655-0.422-0.298-0.166-0.61-0.367-0.695-0.447-0.988-0.921-2.204-1.383-2.553-0.974zM83.408 0.825c-0.108 0.128-0.127 0.367-0.127 1.618 0 1.674-0.006 1.657 0.634 2.089 0.224 0.151 0.474 0.338 0.554 0.416s0.341 0.246 0.578 0.375c0.238 0.129 0.67 0.407 0.959 0.618 0.69 0.502 1.1 0.517 1.329 0.049 0.169-0.348 0.165-4.724-0.006-5.073l-0.117-0.241h-1.838c-1.684 0-1.849 0.012-1.967 0.149zM128.999 0.731c-1.097 0.148-2.949 0.738-3.881 1.237-0.184 0.104-0.399 0.203-0.623 0.283l-0.029 0.009c-0.249 0.065-1.723 1.105-2.481 1.753-0.994 0.849-2.608 2.738-2.978 3.49-0.258 0.524-0.635 1.195-0.689 1.231-0.098 0.064-0.83 1.936-1.009 2.582-0.695 2.494-0.694 2.481-0.694 10.095v6.597l0.186 0.543c0.103 0.3 0.271 0.642 0.373 0.761 0.101 0.119 0.241 0.313 0.309 0.431 0.177 0.303 0.927 0.807 1.465 0.985 0.631 0.209 12.128 0.231 13.487 0.027 2.175-0.326 4.864-1.435 6.364-2.624 0.255-0.202 0.534-0.398 0.62-0.436 0.085-0.039 0.479-0.398 0.876-0.796s0.753-0.738 0.79-0.753c0.038-0.015 0.337-0.382 0.666-0.815 0.33-0.433 0.671-0.874 0.763-0.977 0.090-0.105 0.293-0.455 0.45-0.78 0.158-0.326 0.332-0.647 0.39-0.715 0.057-0.069 0.272-0.511 0.481-0.985 1.561-3.545 1.615-8.388 0.134-11.99-0.24-0.585-0.484-1.118-0.54-1.185s-0.228-0.386-0.379-0.709c-0.572-1.211-2.516-3.495-3.712-4.358-0.341-0.249-0.592-0.44-0.841-0.634l0.069 0.052c-2.176-1.71-6.428-2.738-9.567-2.316zM131.931 6.368c1.681 0.465 3.029 1.908 3.471 3.716 0.204 0.834 0.169 6.064-0.046 6.831-0.174 0.619-0.378 1.092-0.593 1.374-0.987 1.296-1.623 1.796-2.74 2.153-2.265 0.724-4.954-0.816-5.671-3.248-0.23-0.778-0.357-5.783-0.174-6.785 0.543-2.954 3.124-4.766 5.753-4.039zM35.326 7.849c-1.657 0.145-4.282 1.132-5.184 1.95-0.162 0.146-0.414 0.332-0.56 0.411-0.517 0.282-2.065 2.082-2.502 2.907-1.281 2.425-1.669 3.873-1.669 6.236 0 9.922 11.077 15.22 18.053 8.634 2.38-2.247 2.476-2.747 0.608-3.195-0.959-0.221-1.517-0.368-2.073-0.523l0.406 0.097c-1.061-0.295-1.243-0.277-1.73 0.182-2.303 2.17-5.559 2.432-8.049 0.647-1.212-0.869-2.233-2.187-2.545-3.287l-0.102-0.361h16.635l0.25-0.246 0.249-0.247-0.043-1.657c-0.025-0.966-0.090-1.877-0.155-2.187l-0.239-1.147c-0.142-0.679-0.793-2.19-1.218-2.823-0.15-0.225-0.295-0.482-0.32-0.574-0.092-0.32-1.712-2.090-2.249-2.459-0.259-0.179-0.479-0.347-0.691-0.523l0.016 0.013c-1.385-1.175-4.63-2.047-6.887-1.849zM57.78 7.961c-0.665 0.062-1.775 0.341-2.129 0.534-0.097 0.058-0.211 0.1-0.333 0.12l-0.005 0.001c-0.972 0-3.431 2.462-4.362 4.369-1.135 2.324-1.167 2.63-1.14 10.882l0.021 6.617 0.217 0.197c0.279 0.255 3.367 0.313 3.716 0.070 0.31-0.217 0.31-0.218 0.351-7.403l0.038-6.998 0.236-0.619c0.13-0.34 0.431-0.892 0.67-1.227 0.785-1.108 0.718-1.046 1.834-1.662 1.188-0.657 2.466-0.602 3.625 0.156 0.305 0.201 0.581 0.364 0.61 0.364 0.284 0 1.415 1.793 1.673 2.649 0.318 1.065 0.341 1.637 0.341 8.242 0 6.193 0.002 6.268 0.159 6.446 0.256 0.293 3.43 0.277 3.754-0.018l0.217-0.197 0.042-6.863 0.043-6.862 0.238-0.778c1.477-4.821 6.878-4.734 8.492 0.139l0.21 0.639 0.039 6.924c0.033 5.702 0.059 6.948 0.146 7.060 0.193 0.247 3.63 0.199 3.854-0.054l0.169-0.19v-6.876c0-7.75 0.009-7.594-0.576-9.398-0.505-1.556-1.691-3.455-2.511-4.020-0.224-0.165-0.421-0.332-0.606-0.51l0.002 0.002c-1.457-1.401-4.726-2.151-6.828-1.569-1.815 0.505-2.991 1.21-4.234 2.546l-0.596 0.638-0.332-0.411c-1.628-2.031-4.401-3.188-7.042-2.94zM83.765 7.936c-0.522 0.106-0.484-0.789-0.484 11.529v11.074l0.203 0.17c0.204 0.171 3.241 0.271 3.612 0.118 0.362-0.148 0.351 0.197 0.351-11.408 0-11.905 0.025-11.279-0.433-11.462-0.187-0.076-2.898-0.094-3.249-0.021zM99.215 8.037c-0.945 0.18-2.306 0.631-2.975 0.988-0.517 0.277-1.318 0.796-1.385 0.898-0.021 0.032-0.196 0.16-0.386 0.286s-0.673 0.582-1.071 1.015c-2.622 2.85-3.604 6.24-3.014 10.405 0.411 2.896 2.754 6.366 5.243 7.761 1.033 0.578 1.254 0.686 1.99 0.954 3.833 1.398 8.266 0.277 11.204-2.833 2.448-2.592 3.68-7.018 2.905-10.425-0.436-1.924-0.714-2.678-1.354-3.684-0.198-0.315-0.454-0.738-0.566-0.942-0.286-0.521-1.634-1.913-2.39-2.466-2.402-1.761-5.424-2.482-8.201-1.957zM129.95 7.966c-0.88 0.222-1.737 1.046-2.062 1.989l-0.202 0.583v2.865c0 2.785 0.006 2.88 0.18 3.397 0.896 2.673 4.554 2.907 5.751 0.369 0.35-0.742 0.369-0.975 0.343-3.972l-0.023-2.823-0.239-0.532c-0.673-1.502-2.199-2.265-3.749-1.877zM131.321 11.43l0.263 0.278v2.118c0 1.862-0.016 2.143-0.132 2.321-0.33 0.507-0.748 0.554-1.15 0.128l-0.262-0.278v-4.289l0.262-0.278c0.19-0.201 0.331-0.278 0.508-0.278 0.18 0 0.321 0.078 0.51 0.278zM13.318 12.538c4.702 1.282 6.623 7.015 3.718 11.097-0.549 0.772-0.751 0.972-1.73 1.711-2.503 1.892-6.404 1.246-8.597-1.424-4.129-5.026 0.526-13.042 6.609-11.382zM37.95 12.543c1.995 0.652 3.579 2.092 4.32 3.926l0.265 0.658h-12.565l0.105-0.315c0.218-0.655 0.736-1.578 1.086-1.936 0.089-0.090 0.236-0.27 0.33-0.399 1.196-1.659 4.383-2.613 6.459-1.935zM102.763 12.587c1.321 0.406 2.057 0.864 2.988 1.862 4.702 5.046 0.288 13.37-6.244 11.775-1.088-0.266-1.483-0.48-2.735-1.483-1.871-1.499-2.732-4.5-2.071-7.199 0.908-3.708 4.646-6.006 8.062-4.955zM138.729 18.060c0.144 0.154 0.262 0.358 0.262 0.455 0 0.462-0.823 2.661-1.073 2.868-0.027 0.022-0.266 0.336-0.533 0.695-0.266 0.361-0.599 0.747-0.738 0.86-0.143 0.112-0.513 0.411-0.827 0.665-0.858 0.694-1.648 1.066-3.194 1.505-1.893 0.537-4.905-0.037-6.55-1.248-1.134-0.834-2.454-2.284-2.63-2.887-0.113-0.308-0.219-0.552-0.336-0.79l0.022 0.049c-0.668-1.415-0.56-2.164 0.313-2.164 0.438 0 0.609 0.177 0.817 0.848 0.092 0.299 0.284 0.757 0.427 1.018s0.261 0.505 0.261 0.542c0 0.315 1.58 1.892 2.252 2.244 4.073 2.135 8.78 0.418 10.053-3.669 0.399-1.284 0.89-1.612 1.474-0.991z"></path>
</svg>
