<!-- Generated by IcoMoon.io -->
<svg version="1.1" xmlns="http://www.w3.org/2000/svg" width="145" height="32" viewBox="0 0 145 32">
<title>technologic-1</title>
<path fill="#fff" d="M20.17 17.772c-0.049 0.059-0.096 0.119-0.148 0.175l-0.001 0.011-4.902 5.483-0.007-0.002c-0.313 0.354-0.691 0.641-1.117 0.845l-0.021 0.009c-0.394 0.189-0.857 0.3-1.345 0.3h-4.825c-0.101 0-0.197 0.023-0.282 0.063l0.004-0.002c-0.093 0.044-0.172 0.103-0.237 0.175l-0.001 0.001c-0.066 0.075-0.12 0.163-0.156 0.259l-0.002 0.006c-0.035 0.092-0.055 0.199-0.055 0.31 0 0 0 0.001 0 0.001v-0 4.818h-0.015c-0.027 0.183-0.098 0.346-0.202 0.482l0.002-0.002c-0.1 0.131-0.233 0.232-0.388 0.291l-0.006 0.002c-0.080 0.030-0.172 0.047-0.268 0.047-0.073 0-0.144-0.010-0.211-0.029l0.006 0.001c-0.165-0.047-0.306-0.137-0.413-0.258l-0.001-0.001-0.002 0.002-4.446-4.969 0.004-0.009c-0.335-0.362-0.605-0.79-0.787-1.262l-0.009-0.027c-0.177-0.453-0.279-0.978-0.279-1.527 0-0.003 0-0.006 0-0.008v0-12.433c0-1.054 0.373-2.009 0.978-2.714l-0.002-0.006 5.042-5.637c0.654-0.718 1.534-1.12 2.449-1.119h4.102c0.523 0 1.018 0.132 1.462 0.362v-0.011c0.382 0.198 0.726 0.464 1.017 0.791l0.006-0.004 5.982 6.69 0.001 7.849h7.001v12.196c0.002 0.007 0.002 0.015 0.002 0.022v0.276c-0.028 0.505-0.234 0.956-0.555 1.298l0.001-0.001c-0.324 0.338-0.751 0.527-1.194 0.527h-3.508c-0.244 0-0.482-0.057-0.705-0.165-0.232-0.117-0.426-0.274-0.582-0.465l-0.003-0.003c-0.161-0.195-0.287-0.426-0.365-0.677l-0.004-0.014c-0.060-0.19-0.095-0.409-0.095-0.635 0-0.057 0.002-0.114 0.006-0.17l-0 0.007v-12.196l-0.926 1.041zM13.361 16.741c0 0 0.001 0 0.001 0 0.101 0 0.197-0.023 0.283-0.063l-0.004 0.002c0.093-0.044 0.171-0.104 0.236-0.176l0.001-0.001c0.066-0.074 0.12-0.162 0.156-0.258l0.002-0.006c0.035-0.092 0.055-0.199 0.055-0.31 0-0 0-0.001 0-0.001v0-6.212c0-0 0-0.001 0-0.001 0-0.111-0.020-0.218-0.057-0.317l0.002 0.006c-0.038-0.102-0.091-0.189-0.158-0.264l0.001 0.001c-0.065-0.073-0.143-0.133-0.232-0.175l-0.004-0.002c-0.082-0.039-0.177-0.062-0.278-0.062-0 0-0.001 0-0.001 0h-5.558c-0.205 0.002-0.389 0.093-0.514 0.237l-0.001 0.001c-0.133 0.152-0.214 0.351-0.214 0.57 0 0.002 0 0.003 0 0.005v-0 6.21c0 0.45 0.326 0.814 0.729 0.814l5.559 0.002z"></path>
<path fill="#fff" d="M21.1 16.74h6.999l-6.999-7.846v7.845zM38.023 7.59h6.479c2.646 0 4.994 0 6.409 2.271 0.617 1.022 0.913 2.474 0.913 3.698 0 0.994-0.183 1.966-0.548 2.806-1.391 3.215-4.357 3.292-6.548 3.342h-2.667v5.893h-4.038v-18.009zM42.063 10.907v5.458h2.421c1.506 0 3.333-0.049 3.333-2.831 0-2.629-2.032-2.629-3.196-2.629h-2.558zM56.662 13.659c0.775-0.741 1.62-1.327 3.444-1.531v3.471l-1.163 0.202c-1.686 0.332-2.191 0.613-2.191 2.297v7.5h-3.511v-13.342h3.422v1.403zM73.814 18.911c0 3.369-1.733 7.067-6.388 7.067-3.353 0-6.409-2.143-6.409-7.067 0-4.081 2.303-7.322 6.866-7.040 4.858 0.306 5.93 4.618 5.93 7.040zM65.146 16.286c-0.433 0.766-0.592 1.686-0.592 2.606 0 2.121 0.911 3.985 2.873 3.985 1.895 0 2.83-1.711 2.83-3.806 0-1.482-0.32-2.631-0.981-3.348-0.73-0.766-1.551-0.791-2.053-0.74-1.004 0.076-1.596 0.459-2.075 1.302zM76.666 10.95c0-0.662 0.046-1.557 0.502-2.271 0.433-0.663 1.414-1.353 3.057-1.353 0.706 0 1.415 0.128 2.097 0.229v2.935h-0.843c-1.323 0-1.391 0.306-1.369 2.092h2.35v2.398h-2.326v10.613h-3.49v-10.613h-1.871v-2.399h1.894v-1.632zM84.215 10.603h3.466v-3.036h-3.466v3.036zM84.215 25.604h3.466v-13.342h-3.466v13.342zM91.263 8.425h3.49v4.158h2.304v2.398h-2.326v5.996c-0.023 0.816-0.023 1.505 0.912 1.505l1.255-0.052v3.061c-0.753 0.128-1.21 0.206-1.847 0.206-1.211 0-2.533-0.078-3.286-1.302-0.479-0.79-0.501-1.734-0.501-3.009v-6.431h-1.734v-2.398h1.733v-4.132zM110.236 7.59c0.48 1.938 0.958 3.878 1.481 5.818 0.891 3.468 1.051 4.030 1.553 7.525 0.478-3.572 0.592-4.183 1.322-7.857 0.342-1.838 0.706-3.674 1.050-5.486h3.991l-4.082 18.011h-4.154c-0.501-1.989-0.981-3.98-1.505-5.945-0.866-3.316-0.913-3.444-1.392-5.969-0.41 2.22-0.455 2.399-1.369 5.842l-1.551 6.071h-4.151l-4.081-18.011h4.015c1.734 8.546 1.918 9.489 2.395 13.393 0.592-3.57 0.753-4.26 1.596-7.831l1.323-5.562h3.559zM131.426 22.21c-0.411 0.689-0.822 1.353-1.438 1.99-1.124 1.165-2.7 1.888-4.444 1.888-0.017 0-0.035-0-0.052-0l0.003 0c-3.536 0-6.022-2.526-6.022-6.889 0-3.212 1.414-7.346 6.113-7.346 0.708 0 2.759 0.076 4.288 1.914 1.552 1.862 1.642 4.464 1.689 5.969h-8.508c-0.023 1.657 0.821 3.317 2.715 3.317 1.915 0 2.576-1.403 3.010-2.348l2.646 1.505zM127.935 17.275c-0.068-0.559-0.159-1.295-0.661-1.878-0.434-0.484-1.093-0.738-1.711-0.738-0.843 0-1.436 0.458-1.778 0.865-0.48 0.585-0.593 1.194-0.708 1.753h4.858zM133.596 25.6h3.513v-18.009h-3.513v18.011zM140.249 25.6h3.513v-18.009h-3.513v18.011z"></path>
</svg>
