<!-- Generated by IcoMoon.io -->
<svg version="1.1" xmlns="http://www.w3.org/2000/svg" width="69" height="32" viewBox="0 0 69 32">
<title>technologic-5</title>
<path fill="#fff" d="M12.288 13.986c-0.147-0.131-0.343-0.212-0.557-0.212-0.091 0-0.178 0.014-0.26 0.041l0.006-0.002-7.669 2.42 10.959-10.482c0.161-0.155 0.261-0.372 0.261-0.612 0-0.251-0.109-0.476-0.282-0.632l-0.001-0.001-4.092-3.655c-0.149-0.133-0.347-0.215-0.563-0.215-0.307 0-0.576 0.163-0.724 0.408l-0.002 0.004-8.907 14.956c-0.058 0.095-0.092 0.211-0.092 0.334 0 0.193 0.084 0.367 0.218 0.487l0.001 0.001 1.735 1.552c0.213 0.191 0.508 0.26 0.784 0.183l6.213-1.732-7.151 11.237c-0.345 0.543 0.369 1.132 0.834 0.686l11.947-11.452c0.123-0.119 0.199-0.285 0.199-0.47 0-0.193-0.083-0.366-0.216-0.485l-0.001-0.001-2.641-2.357zM68.065 12.384l-1.186-1.058c-0.069-0.061-0.16-0.099-0.26-0.099-0.167 0-0.31 0.105-0.366 0.252l-0.001 0.003-2.439 6.582c-1.169 3.153-2.555 4.234-3.424 4.234-0.277 0-0.672-0.203-0.672-0.874 0-0.23 0.039-0.714 0.322-1.477l2.325-6.266c0.047-0.122 0.074-0.264 0.074-0.412 0-0.351-0.153-0.666-0.395-0.883l-0.001-0.001-1.186-1.058c-0.069-0.062-0.16-0.1-0.261-0.1-0.167 0-0.31 0.105-0.366 0.252l-0.001 0.003-2.439 6.582c-1.168 3.153-2.554 4.234-3.422 4.234-0.278 0-0.673-0.203-0.673-0.874 0-0.23 0.041-0.714 0.322-1.477l5.076-13.702c0.047-0.123 0.074-0.264 0.074-0.412 0-0.351-0.152-0.666-0.394-0.883l-0.001-0.001-1.188-1.058c-0.069-0.062-0.16-0.099-0.261-0.099-0.167 0-0.31 0.105-0.366 0.253l-0.001 0.003-5.194 14.018c-0.369 0.994-0.542 2.006-0.542 2.597 0 1.994 1.345 3.138 2.795 3.138 1.088 0 2.288-0.695 3.375-2.127 0.373 1.358 1.471 2.127 2.65 2.127 0.656 0 1.355-0.256 2.047-0.77l-1.71 4.607c-0.978-0.474-2.126-0.751-3.34-0.751-0.824 0-1.619 0.128-2.365 0.365l0.055-0.015c-0.229 0.069-0.182 0.401 0.053 0.425 2.431 0.229 4.431 1.28 5.908 3.254 0.147 0.194 0.378 0.318 0.637 0.318 0.341 0 0.631-0.214 0.746-0.514l0.002-0.005 6.314-17.030c0.048-0.123 0.075-0.266 0.075-0.415 0-0.35-0.152-0.665-0.394-0.882l-0.001-0.001zM42.602 22.287c-0.476 0-0.832-0.468-0.832-1.164 0-0.234 0.074-0.788 0.358-1.566 1.632-4.256 3.852-6.566 4.847-6.566 0.658 0 0.758 0.684 0.758 1.499 0 3.323-2.962 7.794-5.132 7.794v0.002zM47.883 11.004c-1.174 0-2.266 0.674-3.243 1.705l2.492-6.78c0.047-0.125 0.075-0.269 0.075-0.42 0-0.357-0.154-0.678-0.399-0.9l-0.001-0.001-1.201-1.079c-0.069-0.063-0.162-0.102-0.263-0.102-0.17 0-0.314 0.108-0.368 0.259l-0.001 0.003-5.244 14.282c-0.373 1.015-0.546 2.047-0.546 2.646 0 1.935 1.354 3.2 3.195 3.2 4.345 0 8.265-5.152 8.265-9.306-0.002-2.034-0.982-3.508-2.758-3.508zM31.503 22.287c-0.478 0-0.833-0.468-0.833-1.164 0-0.234 0.074-0.788 0.359-1.566 1.633-4.256 3.856-6.566 4.853-6.566 0.658 0 0.759 0.684 0.759 1.499-0.001 3.323-2.966 7.794-5.14 7.794v0.002zM33.545 12.709l2.495-6.78c0.048-0.125 0.075-0.27 0.075-0.421 0-0.357-0.154-0.677-0.399-0.899l-0.001-0.001-1.202-1.079c-0.069-0.063-0.162-0.101-0.263-0.101-0.17 0-0.315 0.107-0.37 0.258l-0.001 0.003-5.253 14.283c-1.183 3.212-2.583 4.313-3.462 4.313-0.281 0-0.681-0.204-0.681-0.891 0-0.233 0.042-0.725 0.327-1.503l2.348-6.385c0.048-0.125 0.075-0.27 0.075-0.421 0-0.357-0.154-0.678-0.399-0.9l-0.001-0.001-1.2-1.078c-0.069-0.063-0.162-0.101-0.263-0.101-0.17 0-0.314 0.107-0.37 0.258l-0.001 0.003-2.468 6.706c-1.182 3.212-2.582 4.313-3.46 4.313-0.282 0-0.682-0.204-0.682-0.891 0-0.233 0.042-0.725 0.327-1.503l2.348-6.385c0.047-0.125 0.075-0.268 0.075-0.419 0-0.358-0.155-0.679-0.401-0.901l-0.001-0.001-1.199-1.079c-0.069-0.063-0.162-0.101-0.263-0.101-0.17 0-0.314 0.107-0.37 0.258l-0.001 0.003-2.466 6.706c-0.373 1.015-0.548 2.047-0.548 2.646 0 2.033 1.36 3.2 2.827 3.2 1.099 0 2.313-0.709 3.412-2.169 0.377 1.385 1.487 2.167 2.678 2.167 1.103 0 2.322-0.713 3.422-2.178 0.394 1.342 1.551 2.178 3.042 2.178 4.351 0 8.278-5.151 8.278-9.305 0-2.034-0.982-3.508-2.759-3.508-1.177 0-2.27 0.674-3.247 1.705z"></path>
</svg>
