<!-- Generated by IcoMoon.io -->
<svg version="1.1" xmlns="http://www.w3.org/2000/svg" width="114" height="32" viewBox="0 0 114 32">
<title>technologic-3</title>
<path fill="#fff" d="M27.993 8.33l-0.002-0.002-0.004-0.006c-0.036-0.060-0.070-0.11-0.105-0.159l0.004 0.006-0.030-0.038c-0.031-0.042-0.060-0.077-0.091-0.112l0.002 0.002-0.054-0.058c-0.048-0.049-0.097-0.096-0.148-0.141l-0.003-0.003c-0.046-0.038-0.098-0.079-0.152-0.117l-0.008-0.006-0.069-0.047c-0.077-0.049-0.168-0.097-0.262-0.14l-0.014-0.006c-0.025-0.012-0.049-0.022-0.074-0.032-0.022-0.009-0.061-0.023-0.099-0.036l-0.016-0.005-0.068-0.021c-0.031-0.010-0.077-0.023-0.124-0.033l-0.013-0.003-0.049-0.010c-0.044-0.009-0.103-0.018-0.163-0.025l-0.010-0.001-0.018-0.002c-0.064-0.007-0.138-0.011-0.213-0.011-0.374 0-0.725 0.099-1.028 0.272l0.010-0.005-10.801 6.111-7.724-4.369 7.73-4.374 5.154 2.913c0.98 0.554 2.233 0.225 2.799-0.735s0.23-2.187-0.751-2.741l-6.176-3.493c-0.295-0.169-0.648-0.269-1.024-0.269s-0.729 0.1-1.034 0.274l0.010-0.005-11.78 6.665c-0.644 0.337-1.076 1-1.076 1.764 0 0.743 0.409 1.391 1.014 1.731l0.010 0.005 11.829 6.692c0.062 0.034 0.126 0.065 0.191 0.092 0.018 0.007 0.036 0.018 0.053 0.025 0.039 0.016 0.081 0.027 0.121 0.041 0.214 0.070 0.433 0.11 0.652 0.11h0.004c0.224 0 0.448-0.041 0.667-0.114 0.034-0.012 0.070-0.021 0.105-0.034 0.021-0.009 0.041-0.020 0.062-0.030 0.062-0.027 0.123-0.055 0.185-0.089l0.005-0.002 8.756-4.953v8.747l-9.777 5.53-9.776-5.53v-5.53c0-1.108-0.918-2.006-2.048-2.006-1.132 0-2.049 0.898-2.049 2.006v6.688c0 0.718 0.39 1.378 1.024 1.738l11.825 6.689c0.294 0.169 0.648 0.269 1.024 0.269s0.729-0.1 1.034-0.275l-0.010 0.005 11.825-6.689c0.634-0.358 1.024-1.022 1.024-1.738v-13.378c0-0.366-0.101-0.708-0.276-1.003z"></path>
<path fill="#fff" d="M38.89 19.557c0.684 0.443 1.378 0.773 2.082 0.987 0.622 0.2 1.338 0.317 2.081 0.32h0.002c0.683 0 1.236-0.156 1.655-0.47 0.42-0.315 0.63-0.721 0.63-1.222 0-0.414-0.167-0.738-0.502-0.975-0.363-0.248-0.779-0.462-1.222-0.62l-0.038-0.012c-0.505-0.186-1.050-0.375-1.633-0.569-0.624-0.207-1.164-0.469-1.663-0.789l0.029 0.017c-0.513-0.331-0.935-0.758-1.25-1.258l-0.010-0.017c-0.334-0.529-0.501-1.221-0.501-2.078 0-0.657 0.135-1.258 0.406-1.801s0.647-1.010 1.131-1.403c0.493-0.394 1.073-0.705 1.703-0.901l0.037-0.010c0.644-0.204 1.384-0.322 2.152-0.322 0.028 0 0.056 0 0.084 0l-0.004-0c1.47 0 2.873 0.291 4.152 0.819l-0.072-0.026v3.129c-0.553-0.332-1.19-0.613-1.864-0.81l-0.058-0.015c-0.569-0.168-1.223-0.266-1.899-0.268h-0.001c-0.655 0-1.185 0.143-1.591 0.428s-0.609 0.665-0.609 1.136c0 0.4 0.167 0.714 0.502 0.943s0.751 0.431 1.249 0.61c0.498 0.178 1.044 0.364 1.634 0.558 0.591 0.192 1.135 0.453 1.633 0.782s0.914 0.761 1.249 1.297c0.335 0.535 0.502 1.239 0.502 2.111 0 0.671-0.139 1.289-0.416 1.854-0.285 0.574-0.674 1.056-1.145 1.44l-0.008 0.006c-0.492 0.4-1.079 0.71-1.762 0.932s-1.43 0.332-2.242 0.332c-1.494 0-2.969-0.321-4.421-0.964v-3.173zM49.922 8.030h3.482v5.442c0.926-0.672 1.9-1.007 2.926-1.007 0.555 0 1.068 0.096 1.538 0.289 0.469 0.193 0.874 0.464 1.216 0.814 0.342 0.351 0.609 0.768 0.801 1.254s0.288 1.014 0.288 1.585v7.029h-3.481v-6.385c0-0.443-0.139-0.807-0.416-1.093-0.257-0.265-0.616-0.429-1.013-0.429-0.016 0-0.032 0-0.048 0.001l0.002-0c-0.64 0-1.246 0.286-1.814 0.857v7.050h-3.482v-15.407zM61.596 12.722h3.481v10.714h-3.481v-10.714zM61.425 9.872c0-0.571 0.178-1.033 0.534-1.382 0.357-0.35 0.818-0.526 1.388-0.526 0.542 0 0.993 0.176 1.356 0.526s0.544 0.811 0.544 1.382c0 0.543-0.181 0.993-0.544 1.35s-0.816 0.535-1.356 0.535c-0.57 0-1.033-0.178-1.388-0.535-0.357-0.357-0.534-0.807-0.534-1.35zM73.868 18.079c0-0.785-0.197-1.418-0.588-1.895-0.347-0.44-0.881-0.719-1.479-0.719-0.016 0-0.033 0-0.049 0.001l0.002-0c-0.628 0-1.189 0.25-1.687 0.751v3.729c0.498 0.498 1.061 0.75 1.686 0.75 0.628 0 1.136-0.244 1.527-0.729 0.393-0.486 0.588-1.115 0.588-1.887zM66.585 12.722h3.482v0.578c0.812-0.558 1.644-0.837 2.498-0.837 0.017-0 0.037-0 0.057-0 1.374 0 2.606 0.608 3.441 1.57l0.005 0.006c0.427 0.492 0.758 1.083 0.993 1.769 0.234 0.686 0.352 1.442 0.352 2.271 0 0.83-0.117 1.586-0.352 2.272-0.228 0.681-0.567 1.269-0.999 1.775l0.006-0.007c-0.427 0.492-0.94 0.879-1.538 1.157-0.562 0.264-1.221 0.419-1.917 0.419-0.017 0-0.034-0-0.050-0l0.003 0c-0.854 0-1.686-0.278-2.498-0.836v5.271h-3.482v-15.407zM82.060 20.694h2.284c0.542 0 0.986-0.161 1.335-0.482 0.348-0.321 0.523-0.732 0.523-1.232 0-0.501-0.175-0.911-0.523-1.232-0.35-0.322-0.794-0.482-1.335-0.482h-2.284v3.429zM82.060 14.608h1.985c0.498 0 0.912-0.15 1.239-0.45s0.492-0.678 0.492-1.136c0-0.471-0.165-0.853-0.492-1.146s-0.741-0.439-1.239-0.439h-1.985v3.172zM78.663 8.693h6.046c0.655 0 1.252 0.101 1.793 0.3 0.542 0.201 1.010 0.48 1.409 0.837s0.709 0.778 0.929 1.263c0.222 0.486 0.332 1.015 0.332 1.586 0 0.729-0.172 1.378-0.514 1.95-0.341 0.572-0.811 0.993-1.408 1.265 0.768 0.286 1.362 0.731 1.782 1.339 0.395 0.567 0.631 1.271 0.631 2.030 0 0.021-0 0.041-0.001 0.062l0-0.003c0 0.601-0.114 1.154-0.342 1.662-0.231 0.514-0.552 0.949-0.947 1.304l-0.004 0.003c-0.406 0.364-0.889 0.646-1.452 0.846-0.534 0.191-1.149 0.301-1.79 0.301-0.020 0-0.039-0-0.059-0l0.003 0h-6.407v-14.743zM90.081 18.079c0-0.828 0.143-1.585 0.427-2.271 0.286-0.691 0.691-1.28 1.195-1.767l0.001-0.001c0.511-0.487 1.118-0.879 1.789-1.144l0.038-0.013c0.704-0.278 1.477-0.418 2.316-0.418 0.841 0 1.612 0.14 2.318 0.418 0.705 0.276 1.309 0.668 1.817 1.158l-0.002-0.002c0.505 0.492 0.9 1.083 1.185 1.769 0.284 0.686 0.427 1.442 0.427 2.271 0 0.815-0.143 1.568-0.427 2.261-0.283 0.694-0.685 1.286-1.185 1.778l-0.001 0.001c-0.507 0.489-1.11 0.881-1.779 1.144l-0.037 0.013c-0.704 0.279-1.477 0.418-2.318 0.418-0.839 0-1.612-0.139-2.316-0.418-0.709-0.278-1.316-0.67-1.829-1.159l0.002 0.002c-0.513-0.492-0.911-1.086-1.196-1.778-0.27-0.651-0.427-1.408-0.427-2.201 0-0.021 0-0.042 0-0.063l-0 0.003zM93.648 18.079c0 0.815 0.203 1.468 0.609 1.961 0.406 0.494 0.935 0.74 1.59 0.74 0.64 0 1.168-0.246 1.582-0.738 0.412-0.492 0.619-1.147 0.619-1.962 0-0.814-0.207-1.467-0.619-1.961-0.414-0.492-0.94-0.738-1.582-0.738-0.655 0-1.185 0.246-1.59 0.738-0.406 0.492-0.609 1.147-0.609 1.961zM109.721 18.079c0-0.785-0.196-1.418-0.587-1.895-0.347-0.44-0.88-0.719-1.478-0.719-0.017 0-0.034 0-0.051 0.001l0.002-0c-0.628 0-1.189 0.25-1.687 0.751v3.729c0.498 0.498 1.060 0.75 1.686 0.75 0.628 0 1.136-0.244 1.526-0.729 0.394-0.486 0.588-1.115 0.588-1.887zM102.438 8.030h3.482v5.271c0.811-0.558 1.644-0.837 2.498-0.837 0.017-0 0.036-0 0.056-0 1.374 0 2.606 0.608 3.442 1.57l0.005 0.006c0.427 0.492 0.758 1.083 0.992 1.769 0.235 0.686 0.353 1.442 0.353 2.271 0 0.83-0.118 1.586-0.353 2.272-0.228 0.681-0.566 1.269-0.998 1.775l0.006-0.007c-0.427 0.492-0.94 0.879-1.538 1.157-0.562 0.264-1.221 0.419-1.916 0.419-0.017 0-0.034-0-0.051-0l0.003 0c-0.854 0-1.687-0.278-2.498-0.836v0.578h-3.483v-15.407z"></path>
</svg>
