<!-- Generated by IcoMoon.io -->
<svg version="1.1" xmlns="http://www.w3.org/2000/svg" width="130" height="32" viewBox="0 0 130 32">
<title>technologic-4</title>
<path fill="#fff" d="M119.082 21.963c-5.735 0-10.4-4.66-10.4-10.386v-10.385h20.799v10.385c0 5.727-4.666 10.386-10.4 10.386zM110.57 3.079v8.497c0 4.686 3.818 8.498 8.511 8.498 4.69 0 8.508-3.813 8.508-8.498v-8.497h-17.018z"></path>
<path fill="#fff" d="M123.808 7.486h-9.454v1.888h1.292l-0.655 5.233h1.905l0.656-5.233h3.056l0.656 5.233h1.905l-0.655-5.233h1.292v-1.888zM11.906 4.313c5.579 0 8.554 2.599 8.554 6.314 0 2.97-2.231 5.199-5.206 6.016v0.074c4.649 1.152 6.322 3.863 6.322 6.722 0 4.086-2.976 6.871-8.554 6.871h-12.272v-0.742c2.233 0 2.233 0 2.233-2.415v-19.685c0-2.414 0-2.414-2.233-2.414v-0.743h11.157zM9.675 16.566c3.348 0 4.649-2.228 4.649-5.756 0-3.157-1.301-5.756-3.532-5.756h-1.858v11.513h0.742zM8.932 17.31v12.257h2.603c2.975 0 3.905-2.972 3.905-6.314 0-3.343-1.674-5.943-5.022-5.943h-1.486zM23.062 21.211c0-6.314 5.206-9.842 9.855-9.842 4.277 0 8.144 1.856 7.028 8.17h-11.007c0 5.014 2.863 6.871 5.653 6.871 3.348 0 4.834-1.857 5.579-3.157h0.372c-0.743 3.713-3.348 7.428-7.996 7.428-6.137 0-9.484-4.455-9.484-9.47zM28.938 18.796h5.467c0.633-2.526 1.153-6.686-1.674-6.686-2.119 0-3.644 1.969-3.793 6.686zM55.787 16.567c0-1.67-1.115-2.228-2.231-2.228-1.152 0-2.417 0.558-3.718 1.671v11.141c0 2.415 0 2.415 2.231 2.415v0.743h-10.414v-0.743c2.231 0 2.231 0 2.231-2.415v-11.698c0-1.856 0-1.856-1.86-1.856v-0.558l7.623-1.671h0.298l-0.111 3.899h0.074c1.413-2.414 4.091-3.899 6.806-3.899 2.491 0 5.022 1.486 5.022 5.572v10.213c0 2.415 0 2.415 2.23 2.415v0.743h-9.669v-0.743c1.487 0 1.487 0 1.487-2.415v-10.585zM76.24 26.411c3.348 0 4.834-1.858 5.578-3.158h0.373c-0.745 3.714-3.348 7.428-7.996 7.428-6.137 0-9.483-4.455-9.483-9.47 0-6.314 5.206-9.842 9.855-9.842s7.104 2.265 7.104 4.642c0 1.3-0.594 2.599-2.826 2.599-1.86 0-2.27-1.151-2.233-1.931 0.187-2.711 0-4.569-2.231-4.569-2.602 0-3.793 3.455-3.793 7.762 0 4.866 2.864 6.538 5.653 6.538zM97.438 16.567c0-1.67-1.116-2.228-2.233-2.228-1.152 0-2.417 0.558-3.718 1.671v11.141c0 2.415 0 2.415 2.231 2.415v0.743h-10.412v-0.743c2.231 0 2.231 0 2.231-2.415v-21.354c0-1.858 0-1.858-1.86-1.858v-0.555l7.513-1.671h0.297v13.556h0.074c1.414-2.414 4.091-3.899 6.806-3.899 2.492 0 5.022 1.486 5.022 5.572v10.213c0 2.415 0 2.415 2.233 2.415v0.743h-9.671v-0.743c1.488 0 1.488 0 1.488-2.415v-10.585z"></path>
</svg>
