<!-- Generated by IcoMoon.io -->
<svg version="1.1" xmlns="http://www.w3.org/2000/svg" width="32" height="32" viewBox="0 0 32 32">
<title>Thunder-move</title>
<path fill="#99efd0" d="M20 26.031c0 0.989 1.283 1.377 1.832 0.555l7.799-11.697c0.105-0.156 0.168-0.348 0.168-0.555 0-0.552-0.448-1-1-1h-6.132v-7.364c0-0.989-1.283-1.377-1.832-0.555l-7.799 11.697c-0.105 0.156-0.168 0.348-0.168 0.555 0 0.552 0.448 1 1 1h6.132v7.364z"></path>
<path fill="#99efd0" opacity="0.3" d="M4 8.667c0-1.105 0.895-2 2-2v0h6.667c1.105 0 2 0.895 2 2s-0.895 2-2 2v0h-6.667c-1.105 0-2-0.895-2-2v0zM4 24.667c0-1.105 0.895-2 2-2v0h6.667c1.105 0 2 0.895 2 2s-0.895 2-2 2v0h-6.667c-1.105 0-2-0.895-2-2v0zM3.333 14.667c-1.105 0-2 0.895-2 2s0.895 2 2 2v0h5.333c1.105 0 2-0.895 2-2s-0.895-2-2-2v0h-5.333z"></path>
</svg>
