<!-- Generated by IcoMoon.io -->
<svg version="1.1" xmlns="http://www.w3.org/2000/svg" width="32" height="32" viewBox="0 0 32 32">
<title>twitter</title>
<path fill="#fff" d="M12.537 24c7.044 0 10.897-6.156 10.897-11.493 0-0.176 0-0.351-0.012-0.524 0.755-0.581 1.389-1.273 1.891-2.058l0.019-0.032c-0.64 0.308-1.382 0.532-2.163 0.632l-0.037 0.004c0.801-0.519 1.397-1.294 1.678-2.207l0.008-0.029c-0.698 0.445-1.513 0.785-2.384 0.973l-0.049 0.009c-1.449-1.627-3.876-1.705-5.419-0.176-0.993 0.987-1.416 2.459-1.107 3.861-3.080-0.164-5.949-1.697-7.893-4.221-1.017 1.847-0.497 4.207 1.187 5.393-0.645-0.022-1.242-0.207-1.757-0.516l0.017 0.009v0.053c0 1.921 1.287 3.577 3.072 3.959-0.563 0.163-1.155 0.187-1.728 0.069 0.501 1.645 1.94 2.773 3.577 2.805-1.278 1.075-2.94 1.73-4.755 1.733h-0.001c-0.304-0.001-0.609-0.020-0.912-0.059 1.644 1.133 3.678 1.811 5.87 1.812h0z"></path>
</svg>
